<?xml version="1.0" standalone="no"?>
 <!DOCTYPE svg PUBLIC "-//W3C//DTD SVG 1.1//EN" 
 "http://www.w3.org/Graphics/SVG/1.1/DTD/svg11.dtd"> 
<svg xmlns="http://www.w3.org/2000/svg" version="1.1" 
    width="29.7002cm" height="21.0007cm" viewBox="0 0 116930 82680 ">
<title>SVG Picture created as placa-B.Cu.svg date 2018/09/18 21:37:17 </title>
  <desc>Picture generated by PCBNEW </desc>
<g style="fill:#000000; fill-opacity:1;stroke:#000000; stroke-opacity:1;
stroke-linecap:round; stroke-linejoin:round; "
 transform="translate(0 0) scale(1 1)">
</g>
<g style="fill:#000000; fill-opacity:0.0; 
stroke:#000000; stroke-width:-0.000393701; stroke-opacity:1; 
stroke-linecap:round; stroke-linejoin:round;">
</g>
<g style="fill:#000000; fill-opacity:1.0; 
stroke:#000000; stroke-width:39.3701; stroke-opacity:1; 
stroke-linecap:round; stroke-linejoin:round;">
<rect x="59132" y="8701.97" width="18996.1" height="41496.1" rx="0" />
</g>
<g style="fill:#FFFFFF; fill-opacity:1.0; 
stroke:#FFFFFF; stroke-width:39.3701; stroke-opacity:1; 
stroke-linecap:round; stroke-linejoin:round;">
</g>
<g style="fill:#FFFFFF; fill-opacity:0.0; 
stroke:#FFFFFF; stroke-width:39.3701; stroke-opacity:1; 
stroke-linecap:round; stroke-linejoin:round;">
</g>
<g style="fill:#FFFFFF; fill-opacity:0.0; 
stroke:#FFFFFF; stroke-width:118.11; stroke-opacity:1; 
stroke-linecap:round; stroke-linejoin:round;">
<path d="M62161 28573
L62301 28967
L62442 28573
" />
<path d="M63426 28967
L63089 28967
" />
<path d="M63258 28967
L63258 28376
L63201 28460
L63145 28517
L63089 28545
" />
<path d="M63679 28910
L63708 28939
L63679 28967
L63651 28939
L63679 28910
L63679 28967
" />
<path d="M64073 28376
L64129 28376
L64186 28404
L64214 28432
L64242 28489
L64270 28601
L64270 28742
L64242 28854
L64214 28910
L64186 28939
L64129 28967
L64073 28967
L64017 28939
L63989 28910
L63961 28854
L63933 28742
L63933 28601
L63961 28489
L63989 28432
L64017 28404
L64073 28376
" />
</g>
<g style="fill:#FFFFFF; fill-opacity:1.0; 
stroke:#FFFFFF; stroke-width:3.93701; stroke-opacity:1; 
stroke-linecap:round; stroke-linejoin:round;">
<polyline style="fill-rule:evenodd;"
points="66004,46291
68531,47795
68531,46291
66004,46291
" /> 
<polyline style="fill-rule:evenodd;"
points="69516,47248
68654,47803
68654,46295
71154,46291
69516,47248
" /> 
<polyline style="fill-rule:evenodd;"
points="65953,46157
64933,45567
71736,45555
70709,46146
65953,46157
" /> 
<polyline style="fill-rule:evenodd;"
points="63472,44740
62453,44150
74146,44157
73118,44748
63472,44740
" /> 
<polyline style="fill-rule:evenodd;"
points="65213,45445
64213,44854
73398,44858
72425,45445
65213,45445
" /> 
<polyline style="fill-rule:evenodd;"
points="75126,43827
75126,44024
75122,44027
74925,43909
74929,43827
75126,43827
" /> 
<polyline style="fill-rule:evenodd;"
points="74929,43909
75122,44027
69358,47335
69240,47177
74929,43909
" /> 
<polyline style="fill-rule:evenodd;"
points="62354,44024
62157,44024
67748,47331
67866,47134
62354,44024
" /> 
<polyline style="fill-rule:evenodd;"
points="62350,43323
62350,42732
74807,42732
74807,43323
62350,43323
" /> 
<polyline style="fill-rule:evenodd;"
points="62350,41905
62350,41315
74807,41315
74807,41905
62350,41905
" /> 
<polyline style="fill-rule:evenodd;"
points="62350,40488
62350,39898
74807,39898
74807,40488
62350,40488
" /> 
<polyline style="fill-rule:evenodd;"
points="62350,39067
62350,38476
74807,38476
74807,39067
62350,39067
" /> 
<polyline style="fill-rule:evenodd;"
points="62350,37650
62350,37059
74807,37059
74807,37650
62350,37650
" /> 
<polyline style="fill-rule:evenodd;"
points="62350,36232
62350,35642
74807,35642
74807,36232
62350,36232
" /> 
<polyline style="fill-rule:evenodd;"
points="62350,34815
62350,34224
74807,34224
74807,34815
62350,34815
" /> 
<polyline style="fill-rule:evenodd;"
points="62350,33398
62350,32807
74807,32807
74807,33398
62350,33398
" /> 
<polyline style="fill-rule:evenodd;"
points="62350,31980
62350,31390
74807,31390
74807,31980
62350,31980
" /> 
<polyline style="fill-rule:evenodd;"
points="62602,44024
62602,43433
74929,43437
74929,44027
62602,44024
" /> 
<polyline style="fill-rule:evenodd;"
points="62468,42606
62468,42016
74929,42020
74929,42610
62468,42606
" /> 
<polyline style="fill-rule:evenodd;"
points="62472,41189
62472,40598
74929,40602
74929,41193
62472,41189
" /> 
<polyline style="fill-rule:evenodd;"
points="62468,39775
62468,39185
74929,39185
74929,39775
62468,39775
" /> 
<polyline style="fill-rule:evenodd;"
points="62468,38358
62468,37768
74929,37768
74929,38358
62468,38358
" /> 
<polyline style="fill-rule:evenodd;"
points="62468,36941
62468,36350
74929,36350
74929,36941
62468,36941
" /> 
<polyline style="fill-rule:evenodd;"
points="62468,35524
62468,34933
74929,34933
74929,35524
62468,35524
" /> 
<polyline style="fill-rule:evenodd;"
points="62468,34106
62468,33516
74929,33516
74929,34106
62468,34106
" /> 
<polyline style="fill-rule:evenodd;"
points="62468,32685
62468,32094
74929,32098
74929,32689
62468,32685
" /> 
<polyline style="fill-rule:evenodd;"
points="74929,43827
74929,30563
75126,30563
75126,43827
74929,43827
" /> 
<polyline style="fill-rule:evenodd;"
points="62154,44031
62154,30563
62350,30563
62350,44031
62154,44031
" /> 
<polyline style="fill-rule:evenodd;"
points="62154,30563
62154,29972
67488,29972
67488,30563
62154,30563
" /> 
<polyline style="fill-rule:evenodd;"
points="69831,30563
69831,29972
75126,29972
75126,30563
69831,30563
" /> 
</g>
<g style="fill:#FFFFFF; fill-opacity:0.0; 
stroke:#FFFFFF; stroke-width:150; stroke-opacity:1; 
stroke-linecap:round; stroke-linejoin:round;">
<circle cx="67830" cy="15000" r="591" /> 
<path d="M67830 14409
L67830 15591
" />
<path d="M68421 15000
L67239 15000
" />
</g>
<g style="fill:#FFFFFF; fill-opacity:1.0; 
stroke:#FFFFFF; stroke-width:0; stroke-opacity:1; 
stroke-linecap:round; stroke-linejoin:round;">
<circle cx="67469" cy="30268.1" r="300" /> 
</g>
<g style="fill:#FFFFFF; fill-opacity:1.0; 
stroke:#FFFFFF; stroke-width:39.3701; stroke-opacity:1; 
stroke-linecap:round; stroke-linejoin:round;">
</g>
<g style="fill:#FFFFFF; fill-opacity:1.0; 
stroke:#FFFFFF; stroke-width:0; stroke-opacity:1; 
stroke-linecap:round; stroke-linejoin:round;">
<circle cx="69831.2" cy="30268.1" r="300" /> 
</g>
<g style="fill:#FFFFFF; fill-opacity:1.0; 
stroke:#FFFFFF; stroke-width:39.3701; stroke-opacity:1; 
stroke-linecap:round; stroke-linejoin:round;">
</g>
<g style="fill:#FFFFFF; fill-opacity:1.0; 
stroke:#FFFFFF; stroke-width:0; stroke-opacity:1; 
stroke-linecap:round; stroke-linejoin:round;">
<circle cx="70420" cy="12040" r="300" /> 
</g>
<g style="fill:#FFFFFF; fill-opacity:1.0; 
stroke:#FFFFFF; stroke-width:39.3701; stroke-opacity:1; 
stroke-linecap:round; stroke-linejoin:round;">
</g>
<g style="fill:#FFFFFF; fill-opacity:1.0; 
stroke:#FFFFFF; stroke-width:0; stroke-opacity:1; 
stroke-linecap:round; stroke-linejoin:round;">
<circle cx="70330" cy="22200" r="196.85" /> 
</g>
<g style="fill:#FFFFFF; fill-opacity:1.0; 
stroke:#FFFFFF; stroke-width:39.3701; stroke-opacity:1; 
stroke-linecap:round; stroke-linejoin:round;">
</g>
<g style="fill:#FFFFFF; fill-opacity:1.0; 
stroke:#FFFFFF; stroke-width:0; stroke-opacity:1; 
stroke-linecap:round; stroke-linejoin:round;">
<circle cx="70330" cy="21609.4" r="196.85" /> 
</g>
<g style="fill:#FFFFFF; fill-opacity:1.0; 
stroke:#FFFFFF; stroke-width:39.3701; stroke-opacity:1; 
stroke-linecap:round; stroke-linejoin:round;">
</g>
<g style="fill:#FFFFFF; fill-opacity:1.0; 
stroke:#FFFFFF; stroke-width:0; stroke-opacity:1; 
stroke-linecap:round; stroke-linejoin:round;">
<circle cx="68530" cy="26352" r="275.591" /> 
</g>
<g style="fill:#FFFFFF; fill-opacity:1.0; 
stroke:#FFFFFF; stroke-width:39.3701; stroke-opacity:1; 
stroke-linecap:round; stroke-linejoin:round;">
</g>
<g style="fill:#FFFFFF; fill-opacity:1.0; 
stroke:#FFFFFF; stroke-width:551.181; stroke-opacity:1; 
stroke-linecap:round; stroke-linejoin:round;">
</g>
<g style="fill:#FFFFFF; fill-opacity:0.0; 
stroke:#FFFFFF; stroke-width:551.181; stroke-opacity:1; 
stroke-linecap:round; stroke-linejoin:round;">
<path d="M68530 25603
L68530 25603
" />
</g>
<g style="fill:#FFFFFF; fill-opacity:0.0; 
stroke:#FFFFFF; stroke-width:0; stroke-opacity:1; 
stroke-linecap:round; stroke-linejoin:round;">
</g>
<g style="fill:#FFFFFF; fill-opacity:1.0; 
stroke:#FFFFFF; stroke-width:0; stroke-opacity:1; 
stroke-linecap:round; stroke-linejoin:round;">
<polyline style="fill-rule:evenodd;"
points="69315,20914
69944,20914
69944,20285
69315,20285
69315,20914
" /> 
<circle cx="69630" cy="19615.7" r="314.961" /> 
</g>
<g style="fill:#FFFFFF; fill-opacity:1.0; 
stroke:#FFFFFF; stroke-width:39.3701; stroke-opacity:1; 
stroke-linecap:round; stroke-linejoin:round;">
</g>
<g style="fill:#FFFFFF; fill-opacity:1.0; 
stroke:#FFFFFF; stroke-width:0; stroke-opacity:1; 
stroke-linecap:round; stroke-linejoin:round;">
<polyline style="fill-rule:evenodd;"
points="73344,15814
73344,15185
72715,15185
72715,15814
73344,15814
" /> 
<circle cx="72242.6" cy="15500" r="314.961" /> 
</g>
<g style="fill:#FFFFFF; fill-opacity:1.0; 
stroke:#FFFFFF; stroke-width:39.3701; stroke-opacity:1; 
stroke-linecap:round; stroke-linejoin:round;">
</g>
<g style="fill:#FFFFFF; fill-opacity:1.0; 
stroke:#FFFFFF; stroke-width:0; stroke-opacity:1; 
stroke-linecap:round; stroke-linejoin:round;">
<polyline style="fill-rule:evenodd;"
points="61995,20865
61995,21534
62664,21534
62664,20865
61995,20865
" /> 
</g>
<g style="fill:#FFFFFF; fill-opacity:1.0; 
stroke:#FFFFFF; stroke-width:669.291; stroke-opacity:1; 
stroke-linecap:round; stroke-linejoin:round;">
</g>
<g style="fill:#FFFFFF; fill-opacity:0.0; 
stroke:#FFFFFF; stroke-width:669.291; stroke-opacity:1; 
stroke-linecap:round; stroke-linejoin:round;">
<path d="M62330 20200
L62330 20200
" />
<path d="M62330 19200
L62330 19200
" />
<path d="M62330 18200
L62330 18200
" />
<path d="M62330 17200
L62330 17200
" />
</g>
<g style="fill:#FFFFFF; fill-opacity:1.0; 
stroke:#FFFFFF; stroke-width:0; stroke-opacity:1; 
stroke-linecap:round; stroke-linejoin:round;">
<circle cx="67230" cy="26500" r="314.961" /> 
</g>
<g style="fill:#FFFFFF; fill-opacity:1.0; 
stroke:#FFFFFF; stroke-width:39.3701; stroke-opacity:1; 
stroke-linecap:round; stroke-linejoin:round;">
</g>
<g style="fill:#FFFFFF; fill-opacity:1.0; 
stroke:#FFFFFF; stroke-width:0; stroke-opacity:1; 
stroke-linecap:round; stroke-linejoin:round;">
<circle cx="67230" cy="28500" r="314.961" /> 
</g>
<g style="fill:#FFFFFF; fill-opacity:1.0; 
stroke:#FFFFFF; stroke-width:39.3701; stroke-opacity:1; 
stroke-linecap:round; stroke-linejoin:round;">
</g>
<g style="fill:#FFFFFF; fill-opacity:1.0; 
stroke:#FFFFFF; stroke-width:0; stroke-opacity:1; 
stroke-linecap:round; stroke-linejoin:round;">
<circle cx="72061.5" cy="28000" r="300" /> 
</g>
<g style="fill:#FFFFFF; fill-opacity:1.0; 
stroke:#FFFFFF; stroke-width:39.3701; stroke-opacity:1; 
stroke-linecap:round; stroke-linejoin:round;">
</g>
<g style="fill:#FFFFFF; fill-opacity:1.0; 
stroke:#FFFFFF; stroke-width:0; stroke-opacity:1; 
stroke-linecap:round; stroke-linejoin:round;">
<circle cx="74030" cy="28000" r="300" /> 
</g>
<g style="fill:#FFFFFF; fill-opacity:1.0; 
stroke:#FFFFFF; stroke-width:39.3701; stroke-opacity:1; 
stroke-linecap:round; stroke-linejoin:round;">
</g>
<g style="fill:#FFFFFF; fill-opacity:1.0; 
stroke:#FFFFFF; stroke-width:0; stroke-opacity:1; 
stroke-linecap:round; stroke-linejoin:round;">
<circle cx="74430" cy="21600" r="295.276" /> 
</g>
<g style="fill:#FFFFFF; fill-opacity:1.0; 
stroke:#FFFFFF; stroke-width:39.3701; stroke-opacity:1; 
stroke-linecap:round; stroke-linejoin:round;">
</g>
<g style="fill:#FFFFFF; fill-opacity:1.0; 
stroke:#FFFFFF; stroke-width:0; stroke-opacity:1; 
stroke-linecap:round; stroke-linejoin:round;">
<circle cx="74430" cy="23521.3" r="295.276" /> 
</g>
<g style="fill:#FFFFFF; fill-opacity:1.0; 
stroke:#FFFFFF; stroke-width:39.3701; stroke-opacity:1; 
stroke-linecap:round; stroke-linejoin:round;">
</g>
<g style="fill:#FFFFFF; fill-opacity:1.0; 
stroke:#FFFFFF; stroke-width:669.291; stroke-opacity:1; 
stroke-linecap:round; stroke-linejoin:round;">
</g>
<g style="fill:#FFFFFF; fill-opacity:0.0; 
stroke:#FFFFFF; stroke-width:669.291; stroke-opacity:1; 
stroke-linecap:round; stroke-linejoin:round;">
<path d="M62330 23500
L62330 23500
" />
</g>
<g style="fill:#FFFFFF; fill-opacity:0.0; 
stroke:#FFFFFF; stroke-width:0; stroke-opacity:1; 
stroke-linecap:round; stroke-linejoin:round;">
</g>
<g style="fill:#FFFFFF; fill-opacity:1.0; 
stroke:#FFFFFF; stroke-width:0; stroke-opacity:1; 
stroke-linecap:round; stroke-linejoin:round;">
<polyline style="fill-rule:evenodd;"
points="61995,24165
61995,24834
62664,24834
62664,24165
61995,24165
" /> 
<polyline style="fill-rule:evenodd;"
points="74245,17315
74245,17984
74914,17984
74914,17315
74245,17315
" /> 
</g>
<g style="fill:#FFFFFF; fill-opacity:1.0; 
stroke:#FFFFFF; stroke-width:669.291; stroke-opacity:1; 
stroke-linecap:round; stroke-linejoin:round;">
</g>
<g style="fill:#FFFFFF; fill-opacity:0.0; 
stroke:#FFFFFF; stroke-width:669.291; stroke-opacity:1; 
stroke-linecap:round; stroke-linejoin:round;">
<path d="M74580 16650
L74580 16650
" />
</g>
<g style="fill:#FFFFFF; fill-opacity:0.0; 
stroke:#FFFFFF; stroke-width:0; stroke-opacity:1; 
stroke-linecap:round; stroke-linejoin:round;">
</g>
<g style="fill:#FFFFFF; fill-opacity:1.0; 
stroke:#FFFFFF; stroke-width:0; stroke-opacity:1; 
stroke-linecap:round; stroke-linejoin:round;">
<polyline style="fill-rule:evenodd;"
points="62664,13034
62664,12365
61995,12365
61995,13034
62664,13034
" /> 
</g>
<g style="fill:#FFFFFF; fill-opacity:1.0; 
stroke:#FFFFFF; stroke-width:669.291; stroke-opacity:1; 
stroke-linecap:round; stroke-linejoin:round;">
</g>
<g style="fill:#FFFFFF; fill-opacity:0.0; 
stroke:#FFFFFF; stroke-width:669.291; stroke-opacity:1; 
stroke-linecap:round; stroke-linejoin:round;">
<path d="M62330 13700
L62330 13700
" />
<path d="M62330 14700
L62330 14700
" />
<path d="M62330 15700
L62330 15700
" />
</g>
<g style="fill:#FFFFFF; fill-opacity:1.0; 
stroke:#FFFFFF; stroke-width:0; stroke-opacity:1; 
stroke-linecap:round; stroke-linejoin:round;">
<circle cx="67180" cy="25500" r="157.48" /> 
</g>
<g style="fill:#FFFFFF; fill-opacity:1.0; 
stroke:#FFFFFF; stroke-width:39.3701; stroke-opacity:1; 
stroke-linecap:round; stroke-linejoin:round;">
</g>
<g style="fill:#FFFFFF; fill-opacity:1.0; 
stroke:#FFFFFF; stroke-width:0; stroke-opacity:1; 
stroke-linecap:round; stroke-linejoin:round;">
<circle cx="62380" cy="25650" r="157.48" /> 
</g>
<g style="fill:#FFFFFF; fill-opacity:1.0; 
stroke:#FFFFFF; stroke-width:39.3701; stroke-opacity:1; 
stroke-linecap:round; stroke-linejoin:round;">
</g>
<g style="fill:#FFFFFF; fill-opacity:1.0; 
stroke:#FFFFFF; stroke-width:0; stroke-opacity:1; 
stroke-linecap:round; stroke-linejoin:round;">
<circle cx="62380" cy="22500" r="157.48" /> 
</g>
<g style="fill:#FFFFFF; fill-opacity:1.0; 
stroke:#FFFFFF; stroke-width:39.3701; stroke-opacity:1; 
stroke-linecap:round; stroke-linejoin:round;">
</g>
<g style="fill:#FFFFFF; fill-opacity:1.0; 
stroke:#FFFFFF; stroke-width:0; stroke-opacity:1; 
stroke-linecap:round; stroke-linejoin:round;">
<circle cx="74080" cy="12800" r="157.48" /> 
</g>
<g style="fill:#FFFFFF; fill-opacity:1.0; 
stroke:#FFFFFF; stroke-width:39.3701; stroke-opacity:1; 
stroke-linecap:round; stroke-linejoin:round;">
</g>
<g style="fill:#FFFFFF; fill-opacity:1.0; 
stroke:#FFFFFF; stroke-width:0; stroke-opacity:1; 
stroke-linecap:round; stroke-linejoin:round;">
<circle cx="75130" cy="28550" r="157.48" /> 
</g>
<g style="fill:#FFFFFF; fill-opacity:1.0; 
stroke:#FFFFFF; stroke-width:39.3701; stroke-opacity:1; 
stroke-linecap:round; stroke-linejoin:round;">
</g>
<g style="fill:#FFFFFF; fill-opacity:1.0; 
stroke:#FFFFFF; stroke-width:0; stroke-opacity:1; 
stroke-linecap:round; stroke-linejoin:round;">
<circle cx="70280" cy="25900" r="157.48" /> 
</g>
<g style="fill:#FFFFFF; fill-opacity:1.0; 
stroke:#FFFFFF; stroke-width:39.3701; stroke-opacity:1; 
stroke-linecap:round; stroke-linejoin:round;">
</g>
<g style="fill:#FFFFFF; fill-opacity:1.0; 
stroke:#FFFFFF; stroke-width:0; stroke-opacity:1; 
stroke-linecap:round; stroke-linejoin:round;">
<circle cx="64780" cy="25050" r="157.48" /> 
</g>
<g style="fill:#FFFFFF; fill-opacity:1.0; 
stroke:#FFFFFF; stroke-width:39.3701; stroke-opacity:1; 
stroke-linecap:round; stroke-linejoin:round;">
</g>
<g style="fill:#FFFFFF; fill-opacity:1.0; 
stroke:#FFFFFF; stroke-width:0; stroke-opacity:1; 
stroke-linecap:round; stroke-linejoin:round;">
<circle cx="68093" cy="20168.8" r="157.48" /> 
</g>
<g style="fill:#FFFFFF; fill-opacity:1.0; 
stroke:#FFFFFF; stroke-width:39.3701; stroke-opacity:1; 
stroke-linecap:round; stroke-linejoin:round;">
</g>
<g style="fill:#FFFFFF; fill-opacity:1.0; 
stroke:#FFFFFF; stroke-width:0; stroke-opacity:1; 
stroke-linecap:round; stroke-linejoin:round;">
<circle cx="70380" cy="23351.3" r="196.85" /> 
</g>
<g style="fill:#FFFFFF; fill-opacity:1.0; 
stroke:#FFFFFF; stroke-width:39.3701; stroke-opacity:1; 
stroke-linecap:round; stroke-linejoin:round;">
</g>
<g style="fill:#FFFFFF; fill-opacity:1.0; 
stroke:#FFFFFF; stroke-width:0; stroke-opacity:1; 
stroke-linecap:round; stroke-linejoin:round;">
<circle cx="63930" cy="21300" r="157.48" /> 
</g>
<g style="fill:#FFFFFF; fill-opacity:1.0; 
stroke:#FFFFFF; stroke-width:39.3701; stroke-opacity:1; 
stroke-linecap:round; stroke-linejoin:round;">
</g>
<g style="fill:#FFFFFF; fill-opacity:1.0; 
stroke:#FFFFFF; stroke-width:0; stroke-opacity:1; 
stroke-linecap:round; stroke-linejoin:round;">
<circle cx="68530" cy="28500" r="196.85" /> 
</g>
<g style="fill:#FFFFFF; fill-opacity:1.0; 
stroke:#FFFFFF; stroke-width:39.3701; stroke-opacity:1; 
stroke-linecap:round; stroke-linejoin:round;">
</g>
<g style="fill:#FFFFFF; fill-opacity:1.0; 
stroke:#FFFFFF; stroke-width:0; stroke-opacity:1; 
stroke-linecap:round; stroke-linejoin:round;">
<circle cx="70430" cy="19900" r="157.48" /> 
</g>
<g style="fill:#FFFFFF; fill-opacity:1.0; 
stroke:#FFFFFF; stroke-width:39.3701; stroke-opacity:1; 
stroke-linecap:round; stroke-linejoin:round;">
</g>
<g style="fill:#FFFFFF; fill-opacity:1.0; 
stroke:#FFFFFF; stroke-width:0; stroke-opacity:1; 
stroke-linecap:round; stroke-linejoin:round;">
<circle cx="70407.6" cy="20977" r="157.48" /> 
</g>
<g style="fill:#FFFFFF; fill-opacity:1.0; 
stroke:#FFFFFF; stroke-width:39.3701; stroke-opacity:1; 
stroke-linecap:round; stroke-linejoin:round;">
</g>
<g style="fill:#FFFFFF; fill-opacity:1.0; 
stroke:#FFFFFF; stroke-width:98.4252; stroke-opacity:1; 
stroke-linecap:round; stroke-linejoin:round;">
</g>
<g style="fill:#FFFFFF; fill-opacity:0.0; 
stroke:#FFFFFF; stroke-width:98.4252; stroke-opacity:1; 
stroke-linecap:round; stroke-linejoin:round;">
<path d="M70230 23500
L70378 23351
" />
<path d="M70378 23351
L70380 23351
" />
</g>
<g style="fill:#FFFFFF; fill-opacity:0.0; 
stroke:#FFFFFF; stroke-width:200; stroke-opacity:1; 
stroke-linecap:round; stroke-linejoin:round;">
<path d="M67468 30268
L67468 29438
" />
</g>
<g style="fill:#FFFFFF; fill-opacity:0.0; 
stroke:#FFFFFF; stroke-width:120; stroke-opacity:1; 
stroke-linecap:round; stroke-linejoin:round;">
<path d="M63830 21200
L62330 21200
" />
<path d="M63930 21300
L63830 21200
" />
</g>
<g style="fill:#FFFFFF; fill-opacity:0.0; 
stroke:#FFFFFF; stroke-width:98.4252; stroke-opacity:1; 
stroke-linecap:round; stroke-linejoin:round;">
<path d="M69831 30268
L69831 29801
" />
<path d="M69831 29801
L68530 28500
" />
</g>
<g style="fill:#FFFFFF; fill-opacity:0.0; 
stroke:#FFFFFF; stroke-width:120; stroke-opacity:1; 
stroke-linecap:round; stroke-linejoin:round;">
<path d="M70430 20954
L70407 20976
" />
<path d="M70430 19900
L70430 20954
" />
</g>
<g style="fill:#FFFFFF; fill-opacity:1.0; 
stroke:#FFFFFF; stroke-width:94.4882; stroke-opacity:1; 
stroke-linecap:round; stroke-linejoin:round;">
<polyline style="fill-rule:evenodd;"
points="61358,29652
69357,29597
68598,28838
68597,28838
68462,28838
68338,28787
68242,28691
68191,28567
68191,28432
68201,28409
67686,28409
67686,28590
67617,28758
67488,28887
67320,28956
67139,28956
66971,28887
66842,28758
66773,28590
66773,28409
66842,28241
66971,28112
66993,28103
64583,28103
64583,29390
61876,29390
61876,28103
64583,28103
66993,28103
67139,28043
67320,28043
67488,28112
67617,28241
67686,28409
68201,28409
68242,28308
68338,28212
68462,28161
68597,28161
68721,28212
68817,28308
68868,28432
68868,28567
68868,28568
69894,29594
75958,29553
75958,27912
74471,27912
74471,28087
74404,28250
74280,28374
74117,28441
73942,28441
73807,28386
72373,28386
72345,28480
72139,28552
71922,28540
71777,28480
71749,28386
72061,28074
72373,28386
73807,28386
73779,28374
73655,28250
73588,28087
73588,27921
72613,27921
72601,28139
72541,28283
72447,28311
72136,28000
71986,28000
71675,28311
71581,28283
71509,28078
71521,27860
71581,27716
71675,27688
71986,28000
72136,28000
72447,27688
72541,27716
72613,27921
73588,27921
73588,27912
73655,27749
73779,27625
73807,27613
72373,27613
72061,27925
71749,27613
71777,27519
71983,27447
72200,27459
72345,27519
72373,27613
73807,27613
73942,27558
74117,27558
74280,27625
74404,27749
74471,27912
75958,27912
75958,25603
68955,25603
68923,25766
68830,25904
68719,25978
68766,25998
68883,26115
68947,26268
68947,26434
68883,26588
68766,26705
68613,26769
68446,26769
68293,26705
68176,26588
68112,26434
68112,26409
67686,26409
67686,26590
67617,26758
67488,26887
67320,26956
67139,26956
66971,26887
66842,26758
66773,26590
66773,26409
66842,26241
66971,26112
67139,26043
67320,26043
67488,26112
67617,26241
67686,26409
68112,26409
68112,26268
68176,26115
68293,25998
68340,25978
68229,25904
68136,25766
68104,25603
68136,25441
68229,25303
68367,25210
68488,25186
68571,25186
68692,25210
68830,25303
68923,25441
68955,25603
75958,25603
75958,24165
62809,24165
62809,24834
62798,24889
62766,24936
62719,24968
62664,24979
61995,24979
61940,24968
61893,24936
61861,24889
61850,24834
61850,24165
61861,24110
61893,24063
61940,24031
61995,24020
62664,24020
62719,24031
62766,24063
62798,24110
62809,24165
75958,24165
75958,23434
74867,23434
74867,23608
74800,23768
74677,23891
74516,23958
74343,23958
74182,23891
74059,23768
73992,23608
73992,23500
62815,23500
62778,23685
62673,23843
62515,23948
62376,23976
62283,23976
62144,23948
61986,23843
61881,23685
61844,23500
61881,23314
61986,23156
62144,23051
62283,23023
62376,23023
62515,23051
62673,23156
62778,23314
62815,23500
73992,23500
73992,23434
74059,23273
74182,23150
74343,23084
74516,23084
74677,23150
74800,23273
74867,23434
75958,23434
75958,21513
74867,21513
74867,21686
74800,21847
74677,21970
74516,22037
74343,22037
74182,21970
74059,21847
73992,21686
73992,21513
74059,21352
74182,21229
74343,21162
74516,21162
74677,21229
74800,21352
74867,21513
75958,21513
75958,19840
70729,19840
70729,19959
70683,20069
70631,20121
70631,20777
70661,20807
70706,20917
70706,21036
70661,21146
70577,21230
70467,21276
70410,21276
70521,21322
70617,21417
70668,21542
70668,21676
70617,21801
70521,21896
70501,21904
70521,21912
70617,22008
70668,22132
70668,22267
70617,22391
70521,22487
70397,22538
70262,22538
70138,22487
70042,22391
69991,22267
69991,22132
70042,22008
70138,21912
70158,21904
70138,21896
70042,21801
69991,21676
69991,21542
70042,21417
70138,21322
70262,21270
70335,21270
70261,21240
64229,21240
64229,21359
64183,21469
64099,21553
63989,21599
63870,21599
63760,21553
63676,21469
63648,21401
62809,21401
62809,21534
62798,21589
62766,21636
62719,21668
62664,21679
61995,21679
61940,21668
61893,21636
61861,21589
61850,21534
61850,20865
61861,20810
61893,20763
61940,20731
61995,20720
62664,20720
62719,20731
62766,20763
62798,20810
62809,20865
62809,20998
63810,20998
63830,20994
63849,20998
63849,20998
63867,21001
63870,21000
63989,21000
64099,21046
64183,21130
64229,21240
70261,21240
70238,21230
70153,21146
70108,21036
70108,20917
70153,20807
70228,20733
70228,20285
70089,20285
70089,20914
70078,20970
70047,21017
70000,21048
69944,21059
69315,21059
69259,21048
69212,21017
69181,20970
69170,20914
69170,20285
69181,20229
69201,20200
62815,20200
62778,20385
62673,20543
62515,20648
62376,20676
62283,20676
62144,20648
61986,20543
61881,20385
61844,20200
61881,20014
61986,19856
62144,19751
62283,19723
62376,19723
62515,19751
62673,19856
62778,20014
62815,20200
69201,20200
69212,20182
69259,20151
69315,20140
69414,20140
69337,20108
69307,20012
69630,19690
69952,20012
69922,20108
69832,20140
69944,20140
70000,20151
70047,20182
70078,20229
70089,20285
70228,20285
70228,20121
70176,20069
70130,19959
70130,19889
70122,19908
70026,19938
69704,19615
69555,19615
69233,19938
69137,19908
69062,19697
69074,19474
69137,19322
69233,19293
69555,19615
69704,19615
70026,19293
70122,19322
70197,19533
70187,19719
70260,19646
70370,19600
70489,19600
70599,19646
70683,19730
70729,19840
75958,19840
75958,19218
69952,19218
69630,19541
69307,19218
69313,19200
62815,19200
62778,19385
62673,19543
62515,19648
62376,19676
62283,19676
62144,19648
61986,19543
61881,19385
61844,19200
61881,19014
61986,18856
62144,18751
62283,18723
62376,18723
62515,18751
62673,18856
62778,19014
62815,19200
69313,19200
69337,19122
69548,19048
69771,19060
69922,19122
69952,19218
75958,19218
75958,17764
75161,17764
75161,18033
75124,18124
75054,18194
74963,18231
74694,18231
74632,18170
74632,17702
74527,17702
74527,18170
74465,18231
74196,18231
74105,18194
74035,18124
73998,18033
73998,17764
74059,17702
74527,17702
74632,17702
75100,17702
75161,17764
75958,17764
75958,17266
75161,17266
75161,17535
75100,17597
74632,17597
74632,17589
74527,17589
74527,17597
74059,17597
73998,17535
73998,17342
62894,17342
62829,17497
62677,17666
62504,17749
62515,17751
62673,17856
62778,18014
62815,18200
62778,18385
62673,18543
62515,18648
62376,18676
62283,18676
62144,18648
61986,18543
61881,18385
61844,18200
61881,18014
61986,17856
62144,17751
62155,17749
61982,17666
61830,17497
61765,17342
61812,17252
62277,17252
62277,17260
62382,17260
62382,17252
62847,17252
62894,17342
73998,17342
73998,17266
74035,17175
74105,17105
74196,17068
74348,17068
74332,17057
62894,17057
62847,17147
62382,17147
62382,16682
62277,16682
62277,17147
61812,17147
61765,17057
61830,16902
61982,16733
62187,16635
62277,16682
62382,16682
62472,16635
62677,16733
62829,16902
62894,17057
74332,17057
74236,16993
74131,16835
74094,16650
74131,16464
74236,16306
74394,16201
74533,16173
74626,16173
74765,16201
74923,16306
75028,16464
75065,16650
75028,16835
74923,16993
74811,17068
74963,17068
75054,17105
75124,17175
75161,17266
75958,17266
75958,15185
73489,15185
73489,15814
73478,15870
73447,15917
73400,15948
73344,15959
72715,15959
72659,15948
72626,15925
72609,15941
72564,15896
72535,15992
72324,16067
72101,16055
71949,15992
71920,15896
72242,15574
72248,15580
72322,15505
72317,15500
72167,15500
71845,15822
71749,15792
71675,15581
71687,15358
71749,15207
71845,15177
72167,15500
72317,15500
72322,15494
72248,15419
72242,15425
71920,15103
71949,15007
71970,15000
68641,15000
68634,15038
68633,15140
68544,15392
68378,15603
68153,15748
67893,15813
67845,15808
67830,15811
67790,15804
67627,15789
67423,15700
62815,15700
62778,15885
62673,16043
62515,16148
62376,16176
62283,16176
62144,16148
61986,16043
61881,15885
61844,15700
61881,15514
61986,15356
62144,15251
62283,15223
62376,15223
62515,15251
62673,15356
62778,15514
62815,15700
67423,15700
67382,15681
67185,15499
67058,15264
67014,15000
67014,14987
67062,14723
67075,14700
62815,14700
62778,14885
62673,15043
62515,15148
62376,15176
62283,15176
62144,15148
61986,15043
61881,14885
61844,14700
61881,14514
61986,14356
62144,14251
62283,14223
62376,14223
62515,14251
62673,14356
62778,14514
62815,14700
67075,14700
67193,14490
67392,14311
67639,14206
67787,14196
67830,14188
67850,14192
67906,14188
68165,14256
68388,14405
68550,14618
68635,14872
68634,14964
68641,15000
71970,15000
72160,14932
72383,14944
72535,15007
72564,15103
72609,15058
72626,15074
72659,15051
72715,15040
73344,15040
73400,15051
73447,15082
73478,15129
73489,15185
75958,15185
75958,13700
62815,13700
62778,13885
62673,14043
62515,14148
62376,14176
62283,14176
62144,14148
61986,14043
61881,13885
61844,13700
61881,13514
61986,13356
62144,13251
62283,13223
62376,13223
62515,13251
62673,13356
62778,13514
62815,13700
75958,13700
75958,11952
70861,11952
70861,12127
70794,12290
70670,12414
70507,12481
70332,12481
70169,12414
70120,12365
62809,12365
62809,13034
62798,13089
62766,13136
62719,13168
62664,13179
61995,13179
61940,13168
61893,13136
61861,13089
61850,13034
61850,12365
61861,12310
61893,12263
61940,12231
61995,12220
62664,12220
62719,12231
62766,12263
62798,12310
62809,12365
70120,12365
70045,12290
69978,12127
69978,11952
70045,11789
70169,11665
70332,11598
70507,11598
70670,11665
70794,11789
70861,11952
75958,11952
75958,10970
61301,10872
61358,29652
" /> 
</g>
<g style="fill:#000000; fill-opacity:1.0; 
stroke:#000000; stroke-width:94.4882; stroke-opacity:1; 
stroke-linecap:round; stroke-linejoin:round;">
</g>
<g style="fill:#000000; fill-opacity:1.0; 
stroke:#000000; stroke-width:0; stroke-opacity:1; 
stroke-linecap:round; stroke-linejoin:round;">
<circle cx="67180" cy="25500" r="118.11" /> 
</g>
<g style="fill:#000000; fill-opacity:1.0; 
stroke:#000000; stroke-width:39.3701; stroke-opacity:1; 
stroke-linecap:round; stroke-linejoin:round;">
</g>
<g style="fill:#000000; fill-opacity:1.0; 
stroke:#000000; stroke-width:0; stroke-opacity:1; 
stroke-linecap:round; stroke-linejoin:round;">
<circle cx="62380" cy="25650" r="118.11" /> 
</g>
<g style="fill:#000000; fill-opacity:1.0; 
stroke:#000000; stroke-width:39.3701; stroke-opacity:1; 
stroke-linecap:round; stroke-linejoin:round;">
</g>
<g style="fill:#000000; fill-opacity:1.0; 
stroke:#000000; stroke-width:0; stroke-opacity:1; 
stroke-linecap:round; stroke-linejoin:round;">
<circle cx="62380" cy="22500" r="118.11" /> 
</g>
<g style="fill:#000000; fill-opacity:1.0; 
stroke:#000000; stroke-width:39.3701; stroke-opacity:1; 
stroke-linecap:round; stroke-linejoin:round;">
</g>
<g style="fill:#000000; fill-opacity:1.0; 
stroke:#000000; stroke-width:0; stroke-opacity:1; 
stroke-linecap:round; stroke-linejoin:round;">
<circle cx="74080" cy="12800" r="118.11" /> 
</g>
<g style="fill:#000000; fill-opacity:1.0; 
stroke:#000000; stroke-width:39.3701; stroke-opacity:1; 
stroke-linecap:round; stroke-linejoin:round;">
</g>
<g style="fill:#000000; fill-opacity:1.0; 
stroke:#000000; stroke-width:0; stroke-opacity:1; 
stroke-linecap:round; stroke-linejoin:round;">
<circle cx="75130" cy="28550" r="118.11" /> 
</g>
<g style="fill:#000000; fill-opacity:1.0; 
stroke:#000000; stroke-width:39.3701; stroke-opacity:1; 
stroke-linecap:round; stroke-linejoin:round;">
</g>
<g style="fill:#000000; fill-opacity:1.0; 
stroke:#000000; stroke-width:0; stroke-opacity:1; 
stroke-linecap:round; stroke-linejoin:round;">
<circle cx="70280" cy="25900" r="118.11" /> 
</g>
<g style="fill:#000000; fill-opacity:1.0; 
stroke:#000000; stroke-width:39.3701; stroke-opacity:1; 
stroke-linecap:round; stroke-linejoin:round;">
</g>
<g style="fill:#000000; fill-opacity:1.0; 
stroke:#000000; stroke-width:0; stroke-opacity:1; 
stroke-linecap:round; stroke-linejoin:round;">
<circle cx="64780" cy="25050" r="118.11" /> 
</g>
<g style="fill:#000000; fill-opacity:1.0; 
stroke:#000000; stroke-width:39.3701; stroke-opacity:1; 
stroke-linecap:round; stroke-linejoin:round;">
</g>
<g style="fill:#000000; fill-opacity:1.0; 
stroke:#000000; stroke-width:0; stroke-opacity:1; 
stroke-linecap:round; stroke-linejoin:round;">
<circle cx="68093" cy="20168.8" r="118.11" /> 
</g>
<g style="fill:#000000; fill-opacity:1.0; 
stroke:#000000; stroke-width:39.3701; stroke-opacity:1; 
stroke-linecap:round; stroke-linejoin:round;">
</g>
<g style="fill:#000000; fill-opacity:1.0; 
stroke:#000000; stroke-width:0; stroke-opacity:1; 
stroke-linecap:round; stroke-linejoin:round;">
<circle cx="70380" cy="23351.3" r="157.48" /> 
</g>
<g style="fill:#000000; fill-opacity:1.0; 
stroke:#000000; stroke-width:39.3701; stroke-opacity:1; 
stroke-linecap:round; stroke-linejoin:round;">
</g>
<g style="fill:#000000; fill-opacity:1.0; 
stroke:#000000; stroke-width:0; stroke-opacity:1; 
stroke-linecap:round; stroke-linejoin:round;">
<circle cx="63930" cy="21300" r="118.11" /> 
</g>
<g style="fill:#000000; fill-opacity:1.0; 
stroke:#000000; stroke-width:39.3701; stroke-opacity:1; 
stroke-linecap:round; stroke-linejoin:round;">
</g>
<g style="fill:#000000; fill-opacity:1.0; 
stroke:#000000; stroke-width:0; stroke-opacity:1; 
stroke-linecap:round; stroke-linejoin:round;">
<circle cx="68530" cy="28500" r="157.48" /> 
</g>
<g style="fill:#000000; fill-opacity:1.0; 
stroke:#000000; stroke-width:39.3701; stroke-opacity:1; 
stroke-linecap:round; stroke-linejoin:round;">
</g>
<g style="fill:#000000; fill-opacity:1.0; 
stroke:#000000; stroke-width:0; stroke-opacity:1; 
stroke-linecap:round; stroke-linejoin:round;">
<circle cx="70430" cy="19900" r="118.11" /> 
</g>
<g style="fill:#000000; fill-opacity:1.0; 
stroke:#000000; stroke-width:39.3701; stroke-opacity:1; 
stroke-linecap:round; stroke-linejoin:round;">
</g>
<g style="fill:#000000; fill-opacity:1.0; 
stroke:#000000; stroke-width:0; stroke-opacity:1; 
stroke-linecap:round; stroke-linejoin:round;">
<circle cx="70407.6" cy="20977" r="118.11" /> 
</g>
<g style="fill:#000000; fill-opacity:1.0; 
stroke:#000000; stroke-width:39.3701; stroke-opacity:1; 
stroke-linecap:round; stroke-linejoin:round;">
</g>
<g style="fill:#000000; fill-opacity:1.0; 
stroke:#000000; stroke-width:0; stroke-opacity:1; 
stroke-linecap:round; stroke-linejoin:round;">
<circle cx="67469" cy="30268.1" r="150" /> 
</g>
<g style="fill:#000000; fill-opacity:1.0; 
stroke:#000000; stroke-width:39.3701; stroke-opacity:1; 
stroke-linecap:round; stroke-linejoin:round;">
</g>
<g style="fill:#000000; fill-opacity:1.0; 
stroke:#000000; stroke-width:0; stroke-opacity:1; 
stroke-linecap:round; stroke-linejoin:round;">
<circle cx="69831.2" cy="30268.1" r="150" /> 
</g>
<g style="fill:#000000; fill-opacity:1.0; 
stroke:#000000; stroke-width:39.3701; stroke-opacity:1; 
stroke-linecap:round; stroke-linejoin:round;">
</g>
<g style="fill:#000000; fill-opacity:1.0; 
stroke:#000000; stroke-width:0; stroke-opacity:1; 
stroke-linecap:round; stroke-linejoin:round;">
<circle cx="70420" cy="12040" r="157.48" /> 
</g>
<g style="fill:#000000; fill-opacity:1.0; 
stroke:#000000; stroke-width:39.3701; stroke-opacity:1; 
stroke-linecap:round; stroke-linejoin:round;">
</g>
<g style="fill:#000000; fill-opacity:1.0; 
stroke:#000000; stroke-width:0; stroke-opacity:1; 
stroke-linecap:round; stroke-linejoin:round;">
<circle cx="70330" cy="22200" r="98.4252" /> 
</g>
<g style="fill:#000000; fill-opacity:1.0; 
stroke:#000000; stroke-width:39.3701; stroke-opacity:1; 
stroke-linecap:round; stroke-linejoin:round;">
</g>
<g style="fill:#000000; fill-opacity:1.0; 
stroke:#000000; stroke-width:0; stroke-opacity:1; 
stroke-linecap:round; stroke-linejoin:round;">
<circle cx="70330" cy="21609.4" r="98.4252" /> 
</g>
<g style="fill:#000000; fill-opacity:1.0; 
stroke:#000000; stroke-width:39.3701; stroke-opacity:1; 
stroke-linecap:round; stroke-linejoin:round;">
</g>
<g style="fill:#000000; fill-opacity:1.0; 
stroke:#000000; stroke-width:0; stroke-opacity:1; 
stroke-linecap:round; stroke-linejoin:round;">
<circle cx="68530" cy="26352" r="137.795" /> 
</g>
<g style="fill:#000000; fill-opacity:1.0; 
stroke:#000000; stroke-width:39.3701; stroke-opacity:1; 
stroke-linecap:round; stroke-linejoin:round;">
</g>
<g style="fill:#000000; fill-opacity:1.0; 
stroke:#000000; stroke-width:0; stroke-opacity:1; 
stroke-linecap:round; stroke-linejoin:round;">
<circle cx="68530" cy="25603.9" r="137.795" /> 
</g>
<g style="fill:#000000; fill-opacity:1.0; 
stroke:#000000; stroke-width:39.3701; stroke-opacity:1; 
stroke-linecap:round; stroke-linejoin:round;">
</g>
<g style="fill:#000000; fill-opacity:1.0; 
stroke:#000000; stroke-width:0; stroke-opacity:1; 
stroke-linecap:round; stroke-linejoin:round;">
<circle cx="69630" cy="20600" r="157.48" /> 
</g>
<g style="fill:#000000; fill-opacity:1.0; 
stroke:#000000; stroke-width:39.3701; stroke-opacity:1; 
stroke-linecap:round; stroke-linejoin:round;">
</g>
<g style="fill:#000000; fill-opacity:1.0; 
stroke:#000000; stroke-width:0; stroke-opacity:1; 
stroke-linecap:round; stroke-linejoin:round;">
<circle cx="69630" cy="19615.7" r="157.48" /> 
</g>
<g style="fill:#000000; fill-opacity:1.0; 
stroke:#000000; stroke-width:39.3701; stroke-opacity:1; 
stroke-linecap:round; stroke-linejoin:round;">
</g>
<g style="fill:#000000; fill-opacity:1.0; 
stroke:#000000; stroke-width:0; stroke-opacity:1; 
stroke-linecap:round; stroke-linejoin:round;">
<circle cx="73030" cy="15500" r="157.48" /> 
</g>
<g style="fill:#000000; fill-opacity:1.0; 
stroke:#000000; stroke-width:39.3701; stroke-opacity:1; 
stroke-linecap:round; stroke-linejoin:round;">
</g>
<g style="fill:#000000; fill-opacity:1.0; 
stroke:#000000; stroke-width:0; stroke-opacity:1; 
stroke-linecap:round; stroke-linejoin:round;">
<circle cx="72242.6" cy="15500" r="157.48" /> 
</g>
<g style="fill:#000000; fill-opacity:1.0; 
stroke:#000000; stroke-width:39.3701; stroke-opacity:1; 
stroke-linecap:round; stroke-linejoin:round;">
</g>
<g style="fill:#000000; fill-opacity:1.0; 
stroke:#000000; stroke-width:0; stroke-opacity:1; 
stroke-linecap:round; stroke-linejoin:round;">
<circle cx="62330" cy="21200" r="196.85" /> 
</g>
<g style="fill:#000000; fill-opacity:1.0; 
stroke:#000000; stroke-width:39.3701; stroke-opacity:1; 
stroke-linecap:round; stroke-linejoin:round;">
</g>
<g style="fill:#000000; fill-opacity:1.0; 
stroke:#000000; stroke-width:0; stroke-opacity:1; 
stroke-linecap:round; stroke-linejoin:round;">
<circle cx="62330" cy="20200" r="196.85" /> 
</g>
<g style="fill:#000000; fill-opacity:1.0; 
stroke:#000000; stroke-width:39.3701; stroke-opacity:1; 
stroke-linecap:round; stroke-linejoin:round;">
</g>
<g style="fill:#000000; fill-opacity:1.0; 
stroke:#000000; stroke-width:0; stroke-opacity:1; 
stroke-linecap:round; stroke-linejoin:round;">
<circle cx="62330" cy="19200" r="196.85" /> 
</g>
<g style="fill:#000000; fill-opacity:1.0; 
stroke:#000000; stroke-width:39.3701; stroke-opacity:1; 
stroke-linecap:round; stroke-linejoin:round;">
</g>
<g style="fill:#000000; fill-opacity:1.0; 
stroke:#000000; stroke-width:0; stroke-opacity:1; 
stroke-linecap:round; stroke-linejoin:round;">
<circle cx="62330" cy="18200" r="196.85" /> 
</g>
<g style="fill:#000000; fill-opacity:1.0; 
stroke:#000000; stroke-width:39.3701; stroke-opacity:1; 
stroke-linecap:round; stroke-linejoin:round;">
</g>
<g style="fill:#000000; fill-opacity:1.0; 
stroke:#000000; stroke-width:0; stroke-opacity:1; 
stroke-linecap:round; stroke-linejoin:round;">
<circle cx="62330" cy="17200" r="196.85" /> 
</g>
<g style="fill:#000000; fill-opacity:1.0; 
stroke:#000000; stroke-width:39.3701; stroke-opacity:1; 
stroke-linecap:round; stroke-linejoin:round;">
</g>
<g style="fill:#000000; fill-opacity:1.0; 
stroke:#000000; stroke-width:0; stroke-opacity:1; 
stroke-linecap:round; stroke-linejoin:round;">
<circle cx="67230" cy="26500" r="157.48" /> 
</g>
<g style="fill:#000000; fill-opacity:1.0; 
stroke:#000000; stroke-width:39.3701; stroke-opacity:1; 
stroke-linecap:round; stroke-linejoin:round;">
</g>
<g style="fill:#000000; fill-opacity:1.0; 
stroke:#000000; stroke-width:0; stroke-opacity:1; 
stroke-linecap:round; stroke-linejoin:round;">
<circle cx="67230" cy="28500" r="157.48" /> 
</g>
<g style="fill:#000000; fill-opacity:1.0; 
stroke:#000000; stroke-width:39.3701; stroke-opacity:1; 
stroke-linecap:round; stroke-linejoin:round;">
</g>
<g style="fill:#000000; fill-opacity:1.0; 
stroke:#000000; stroke-width:0; stroke-opacity:1; 
stroke-linecap:round; stroke-linejoin:round;">
<circle cx="72061.5" cy="28000" r="150" /> 
</g>
<g style="fill:#000000; fill-opacity:1.0; 
stroke:#000000; stroke-width:39.3701; stroke-opacity:1; 
stroke-linecap:round; stroke-linejoin:round;">
</g>
<g style="fill:#000000; fill-opacity:1.0; 
stroke:#000000; stroke-width:0; stroke-opacity:1; 
stroke-linecap:round; stroke-linejoin:round;">
<circle cx="74030" cy="28000" r="150" /> 
</g>
<g style="fill:#000000; fill-opacity:1.0; 
stroke:#000000; stroke-width:39.3701; stroke-opacity:1; 
stroke-linecap:round; stroke-linejoin:round;">
</g>
<g style="fill:#000000; fill-opacity:1.0; 
stroke:#000000; stroke-width:0; stroke-opacity:1; 
stroke-linecap:round; stroke-linejoin:round;">
<circle cx="74430" cy="21600" r="157.48" /> 
</g>
<g style="fill:#000000; fill-opacity:1.0; 
stroke:#000000; stroke-width:39.3701; stroke-opacity:1; 
stroke-linecap:round; stroke-linejoin:round;">
</g>
<g style="fill:#000000; fill-opacity:1.0; 
stroke:#000000; stroke-width:0; stroke-opacity:1; 
stroke-linecap:round; stroke-linejoin:round;">
<circle cx="74430" cy="23521.3" r="157.48" /> 
</g>
<g style="fill:#000000; fill-opacity:1.0; 
stroke:#000000; stroke-width:39.3701; stroke-opacity:1; 
stroke-linecap:round; stroke-linejoin:round;">
</g>
<g style="fill:#000000; fill-opacity:1.0; 
stroke:#000000; stroke-width:0; stroke-opacity:1; 
stroke-linecap:round; stroke-linejoin:round;">
<circle cx="62330" cy="23500" r="196.85" /> 
</g>
<g style="fill:#000000; fill-opacity:1.0; 
stroke:#000000; stroke-width:39.3701; stroke-opacity:1; 
stroke-linecap:round; stroke-linejoin:round;">
</g>
<g style="fill:#000000; fill-opacity:1.0; 
stroke:#000000; stroke-width:0; stroke-opacity:1; 
stroke-linecap:round; stroke-linejoin:round;">
<circle cx="62330" cy="24500" r="196.85" /> 
</g>
<g style="fill:#000000; fill-opacity:1.0; 
stroke:#000000; stroke-width:39.3701; stroke-opacity:1; 
stroke-linecap:round; stroke-linejoin:round;">
</g>
<g style="fill:#000000; fill-opacity:1.0; 
stroke:#000000; stroke-width:0; stroke-opacity:1; 
stroke-linecap:round; stroke-linejoin:round;">
<circle cx="74580" cy="17650" r="196.85" /> 
</g>
<g style="fill:#000000; fill-opacity:1.0; 
stroke:#000000; stroke-width:39.3701; stroke-opacity:1; 
stroke-linecap:round; stroke-linejoin:round;">
</g>
<g style="fill:#000000; fill-opacity:1.0; 
stroke:#000000; stroke-width:0; stroke-opacity:1; 
stroke-linecap:round; stroke-linejoin:round;">
<circle cx="74580" cy="16650" r="196.85" /> 
</g>
<g style="fill:#000000; fill-opacity:1.0; 
stroke:#000000; stroke-width:39.3701; stroke-opacity:1; 
stroke-linecap:round; stroke-linejoin:round;">
</g>
<g style="fill:#000000; fill-opacity:1.0; 
stroke:#000000; stroke-width:0; stroke-opacity:1; 
stroke-linecap:round; stroke-linejoin:round;">
<circle cx="62330" cy="12700" r="196.85" /> 
</g>
<g style="fill:#000000; fill-opacity:1.0; 
stroke:#000000; stroke-width:39.3701; stroke-opacity:1; 
stroke-linecap:round; stroke-linejoin:round;">
</g>
<g style="fill:#000000; fill-opacity:1.0; 
stroke:#000000; stroke-width:0; stroke-opacity:1; 
stroke-linecap:round; stroke-linejoin:round;">
<circle cx="62330" cy="13700" r="196.85" /> 
</g>
<g style="fill:#000000; fill-opacity:1.0; 
stroke:#000000; stroke-width:39.3701; stroke-opacity:1; 
stroke-linecap:round; stroke-linejoin:round;">
</g>
<g style="fill:#000000; fill-opacity:1.0; 
stroke:#000000; stroke-width:0; stroke-opacity:1; 
stroke-linecap:round; stroke-linejoin:round;">
<circle cx="62330" cy="14700" r="196.85" /> 
</g>
<g style="fill:#000000; fill-opacity:1.0; 
stroke:#000000; stroke-width:39.3701; stroke-opacity:1; 
stroke-linecap:round; stroke-linejoin:round;">
</g>
<g style="fill:#000000; fill-opacity:1.0; 
stroke:#000000; stroke-width:0; stroke-opacity:1; 
stroke-linecap:round; stroke-linejoin:round;">
<circle cx="62330" cy="15700" r="196.85" /> 
</g>
<g style="fill:#000000; fill-opacity:1.0; 
stroke:#000000; stroke-width:39.3701; stroke-opacity:1; 
stroke-linecap:round; stroke-linejoin:round;">
</g>
<g style="fill:#FFFFFF; fill-opacity:1.0; 
stroke:#FFFFFF; stroke-width:39.3701; stroke-opacity:1; 
stroke-linecap:round; stroke-linejoin:round;">
</g> 
</svg>
