<?xml version="1.0" standalone="no"?>
 <!DOCTYPE svg PUBLIC "-//W3C//DTD SVG 1.1//EN" 
 "http://www.w3.org/Graphics/SVG/1.1/DTD/svg11.dtd"> 
<svg xmlns="http://www.w3.org/2000/svg" version="1.1" 
    width="29.7002cm" height="21.0007cm" viewBox="0 0 116930 82680 ">
<title>SVG Picture created as placa-F.SilkS.svg date 2018/10/02 14:48:37 </title>
  <desc>Picture generated by PCBNEW </desc>
<g style="fill:#000000; fill-opacity:1;stroke:#000000; stroke-opacity:1;
stroke-linecap:round; stroke-linejoin:round; "
 transform="translate(0 0) scale(1 1)">
</g>
<g style="fill:#000000; fill-opacity:0.0; 
stroke:#000000; stroke-width:-0.000393701; stroke-opacity:1; 
stroke-linecap:round; stroke-linejoin:round;">
</g>
<g style="fill:#000000; fill-opacity:1.0; 
stroke:#000000; stroke-width:39.3701; stroke-opacity:1; 
stroke-linecap:round; stroke-linejoin:round;">
<rect x="59132" y="8701.97" width="18996.1" height="41496.1" rx="0" />
</g>
<g style="fill:#FFFFFF; fill-opacity:1.0; 
stroke:#FFFFFF; stroke-width:39.3701; stroke-opacity:1; 
stroke-linecap:round; stroke-linejoin:round;">
</g>
<g style="fill:#FFFFFF; fill-opacity:1.0; 
stroke:#FFFFFF; stroke-width:59.0551; stroke-opacity:1; 
stroke-linecap:round; stroke-linejoin:round;">
</g>
<g style="fill:#FFFFFF; fill-opacity:0.0; 
stroke:#FFFFFF; stroke-width:59.0551; stroke-opacity:1; 
stroke-linecap:round; stroke-linejoin:round;">
<path d="M68650 48075
L61366 43744
" />
<path d="M68650 48075
L75933 43744
" />
<path d="M61366 29728
L75933 29728
" />
<path d="M61362 43744
L61366 29728
" />
<path d="M75933 29728
L75937 43736
" />
<path d="M70778 17949
L70778 18244
" />
<path d="M70778 18244
L64281 18244
" />
<path d="M64281 18244
L64281 17949
" />
<path d="M70778 11650
L70778 11355
" />
<path d="M70778 11355
L64281 11355
" />
<path d="M64281 11355
L64281 11650
" />
</g>
<g style="fill:#FFFFFF; fill-opacity:0.0; 
stroke:#FFFFFF; stroke-width:47.2441; stroke-opacity:1; 
stroke-linecap:round; stroke-linejoin:round;">
<path d="M65728 21498
L65728 21663
" />
<path d="M65728 24301
L65728 24136
" />
<path d="M68531 24301
L68531 24136
" />
<path d="M68531 21498
L68366 21498
" />
<path d="M65728 24301
L65893 24301
" />
<path d="M65728 21498
L65893 21498
" />
<path d="M68531 21663
L69074 21663
" />
<path d="M68531 21498
L68531 21663
" />
<path d="M68531 24301
L68366 24301
" />
<path d="M65523 26779
L65729 26779
" />
<path d="M65523 26220
L65729 26220
" />
<path d="M70605.6 22200 A403.903 403.903 0.0 0 0 70605.8 21609.7 " />
<path d="M70054.2 21609.7 A403.903 403.903 0.0 0 0 70054.4 22200 " />
<path d="M68235 26225.9 A320.812 320.812 0.0 1 0 68805.6 26187.7 " />
<path d="M64133 20680
L64339 20680
" />
<path d="M64133 21239
L64339 21239
" />
<path d="M73350 25693
L73350 25899
" />
<path d="M73909 25693
L73909 25899
" />
<path d="M65527 25979
L65732 25979
" />
<path d="M65527 25420
L65732 25420
" />
<circle cx="69630" cy="20107.9" r="1031.5" /> 
<path d="M70645 20107
L68614 20107
" />
<path d="M70645 20092
L68614 20092
" />
<path d="M70645 20076
L68614 20076
" />
<path d="M70644 20060
L68615 20060
" />
<path d="M70644 20044
L68615 20044
" />
<path d="M70642 20029
L68617 20029
" />
<path d="M70641 20013
L70039 20013
" />
<path d="M69220 20013
L68618 20013
" />
<path d="M70639 19997
L70039 19997
" />
<path d="M69220 19997
L68620 19997
" />
<path d="M70638 19981
L70039 19981
" />
<path d="M69220 19981
L68621 19981
" />
<path d="M70636 19966
L70039 19966
" />
<path d="M69220 19966
L68623 19966
" />
<path d="M70633 19950
L70039 19950
" />
<path d="M69220 19950
L68626 19950
" />
<path d="M70631 19934
L70039 19934
" />
<path d="M69220 19934
L68628 19934
" />
<path d="M70628 19918
L70039 19918
" />
<path d="M69220 19918
L68631 19918
" />
<path d="M70625 19903
L70039 19903
" />
<path d="M69220 19903
L68634 19903
" />
<path d="M70622 19887
L70039 19887
" />
<path d="M69220 19887
L68637 19887
" />
<path d="M70618 19871
L70039 19871
" />
<path d="M69220 19871
L68641 19871
" />
<path d="M70614 19855
L70039 19855
" />
<path d="M69220 19855
L68645 19855
" />
<path d="M70610 19840
L70039 19840
" />
<path d="M69220 19840
L68649 19840
" />
<path d="M70606 19824
L70039 19824
" />
<path d="M69220 19824
L68653 19824
" />
<path d="M70601 19808
L70039 19808
" />
<path d="M69220 19808
L68658 19808
" />
<path d="M70596 19792
L70039 19792
" />
<path d="M69220 19792
L68663 19792
" />
<path d="M70591 19776
L70039 19776
" />
<path d="M69220 19776
L68668 19776
" />
<path d="M70585 19761
L70039 19761
" />
<path d="M69220 19761
L68674 19761
" />
<path d="M70580 19745
L70039 19745
" />
<path d="M69220 19745
L68679 19745
" />
<path d="M70574 19729
L70039 19729
" />
<path d="M69220 19729
L68685 19729
" />
<path d="M70567 19713
L70039 19713
" />
<path d="M69220 19713
L68692 19713
" />
<path d="M70561 19698
L70039 19698
" />
<path d="M69220 19698
L68698 19698
" />
<path d="M70554 19682
L70039 19682
" />
<path d="M69220 19682
L68705 19682
" />
<path d="M70546 19666
L70039 19666
" />
<path d="M69220 19666
L68713 19666
" />
<path d="M70539 19650
L70039 19650
" />
<path d="M69220 19650
L68720 19650
" />
<path d="M70531 19635
L70039 19635
" />
<path d="M69220 19635
L68728 19635
" />
<path d="M70522 19619
L70039 19619
" />
<path d="M69220 19619
L68737 19619
" />
<path d="M70514 19603
L70039 19603
" />
<path d="M69220 19603
L68745 19603
" />
<path d="M70505 19587
L70039 19587
" />
<path d="M69220 19587
L68754 19587
" />
<path d="M70496 19572
L70039 19572
" />
<path d="M69220 19572
L68763 19572
" />
<path d="M70486 19556
L70039 19556
" />
<path d="M69220 19556
L68773 19556
" />
<path d="M70476 19540
L70039 19540
" />
<path d="M69220 19540
L68783 19540
" />
<path d="M70465 19524
L70039 19524
" />
<path d="M69220 19524
L68794 19524
" />
<path d="M70454 19509
L70039 19509
" />
<path d="M69220 19509
L68805 19509
" />
<path d="M70442 19493
L70039 19493
" />
<path d="M69220 19493
L68817 19493
" />
<path d="M70431 19477
L70039 19477
" />
<path d="M69220 19477
L68828 19477
" />
<path d="M70418 19461
L70039 19461
" />
<path d="M69220 19461
L68841 19461
" />
<path d="M70405 19446
L70039 19446
" />
<path d="M69220 19446
L68854 19446
" />
<path d="M70392 19430
L70039 19430
" />
<path d="M69220 19430
L68867 19430
" />
<path d="M70378 19414
L70039 19414
" />
<path d="M69220 19414
L68881 19414
" />
<path d="M70363 19398
L70039 19398
" />
<path d="M69220 19398
L68896 19398
" />
<path d="M70348 19383
L70039 19383
" />
<path d="M69220 19383
L68911 19383
" />
<path d="M70332 19367
L70039 19367
" />
<path d="M69220 19367
L68927 19367
" />
<path d="M70316 19351
L70039 19351
" />
<path d="M69220 19351
L68943 19351
" />
<path d="M70298 19335
L70039 19335
" />
<path d="M69220 19335
L68961 19335
" />
<path d="M70280 19320
L70039 19320
" />
<path d="M69220 19320
L68979 19320
" />
<path d="M70261 19304
L70039 19304
" />
<path d="M69220 19304
L68998 19304
" />
<path d="M70241 19288
L70039 19288
" />
<path d="M69220 19288
L69018 19288
" />
<path d="M70220 19272
L70039 19272
" />
<path d="M69220 19272
L69039 19272
" />
<path d="M70198 19257
L70039 19257
" />
<path d="M69220 19257
L69061 19257
" />
<path d="M70174 19241
L70039 19241
" />
<path d="M69220 19241
L69085 19241
" />
<path d="M70149 19225
L70039 19225
" />
<path d="M69220 19225
L69110 19225
" />
<path d="M70122 19209
L70039 19209
" />
<path d="M69220 19209
L69137 19209
" />
<path d="M70093 19194
L69166 19194
" />
<path d="M70062 19178
L69197 19178
" />
<path d="M70028 19162
L69231 19162
" />
<path d="M69990 19146
L69269 19146
" />
<path d="M69946 19131
L69313 19131
" />
<path d="M69896 19115
L69363 19115
" />
<path d="M69833 19099
L69426 19099
" />
<path d="M69741 19083
L69518 19083
" />
<path d="M70210 21212
L70210 21015
" />
<path d="M70309 21113
L70112 21113
" />
<circle cx="72636.3" cy="15500" r="1031.5" /> 
<path d="M72636 15909
L72636 16515
" />
<path d="M72636 14484
L72636 15090
" />
<path d="M72620 15909
L72620 16515
" />
<path d="M72620 14484
L72620 15090
" />
<path d="M72604 14484
L72604 15090
" />
<path d="M72604 15909
L72604 16515
" />
<path d="M72589 14485
L72589 15090
" />
<path d="M72589 15909
L72589 16514
" />
<path d="M72573 14485
L72573 15090
" />
<path d="M72573 15909
L72573 16514
" />
<path d="M72557 14487
L72557 15090
" />
<path d="M72557 15909
L72557 16512
" />
<path d="M72541 14488
L72541 15090
" />
<path d="M72541 15909
L72541 16511
" />
<path d="M72526 14490
L72526 15090
" />
<path d="M72526 15909
L72526 16509
" />
<path d="M72510 14491
L72510 15090
" />
<path d="M72510 15909
L72510 16508
" />
<path d="M72494 14493
L72494 15090
" />
<path d="M72494 15909
L72494 16506
" />
<path d="M72478 14496
L72478 15090
" />
<path d="M72478 15909
L72478 16503
" />
<path d="M72463 14498
L72463 15090
" />
<path d="M72463 15909
L72463 16501
" />
<path d="M72447 14501
L72447 15090
" />
<path d="M72447 15909
L72447 16498
" />
<path d="M72431 14504
L72431 15090
" />
<path d="M72431 15909
L72431 16495
" />
<path d="M72415 14507
L72415 15090
" />
<path d="M72415 15909
L72415 16492
" />
<path d="M72400 14511
L72400 15090
" />
<path d="M72400 15909
L72400 16488
" />
<path d="M72384 14515
L72384 15090
" />
<path d="M72384 15909
L72384 16484
" />
<path d="M72368 14519
L72368 15090
" />
<path d="M72368 15909
L72368 16480
" />
<path d="M72352 14523
L72352 15090
" />
<path d="M72352 15909
L72352 16476
" />
<path d="M72336 14528
L72336 15090
" />
<path d="M72336 15909
L72336 16471
" />
<path d="M72320 14533
L72320 15090
" />
<path d="M72320 15909
L72320 16466
" />
<path d="M72305 14538
L72305 15090
" />
<path d="M72305 15909
L72305 16461
" />
<path d="M72289 14544
L72289 15090
" />
<path d="M72289 15909
L72289 16455
" />
<path d="M72273 14549
L72273 15090
" />
<path d="M72273 15909
L72273 16450
" />
<path d="M72257 14555
L72257 15090
" />
<path d="M72257 15909
L72257 16444
" />
<path d="M72242 14562
L72242 15090
" />
<path d="M72242 15909
L72242 16437
" />
<path d="M72226 14568
L72226 15090
" />
<path d="M72226 15909
L72226 16431
" />
<path d="M72210 14575
L72210 15090
" />
<path d="M72210 15909
L72210 16424
" />
<path d="M72194 14583
L72194 15090
" />
<path d="M72194 15909
L72194 16416
" />
<path d="M72179 14590
L72179 15090
" />
<path d="M72179 15909
L72179 16409
" />
<path d="M72163 14598
L72163 15090
" />
<path d="M72163 15909
L72163 16401
" />
<path d="M72147 14607
L72147 15090
" />
<path d="M72147 15909
L72147 16392
" />
<path d="M72131 14615
L72131 15090
" />
<path d="M72131 15909
L72131 16384
" />
<path d="M72116 14624
L72116 15090
" />
<path d="M72116 15909
L72116 16375
" />
<path d="M72100 14633
L72100 15090
" />
<path d="M72100 15909
L72100 16366
" />
<path d="M72084 14643
L72084 15090
" />
<path d="M72084 15909
L72084 16356
" />
<path d="M72068 14653
L72068 15090
" />
<path d="M72068 15909
L72068 16346
" />
<path d="M72053 14664
L72053 15090
" />
<path d="M72053 15909
L72053 16335
" />
<path d="M72037 14675
L72037 15090
" />
<path d="M72037 15909
L72037 16324
" />
<path d="M72021 14687
L72021 15090
" />
<path d="M72021 15909
L72021 16312
" />
<path d="M72005 14698
L72005 15090
" />
<path d="M72005 15909
L72005 16301
" />
<path d="M71990 14711
L71990 15090
" />
<path d="M71990 15909
L71990 16288
" />
<path d="M71974 14724
L71974 15090
" />
<path d="M71974 15909
L71974 16275
" />
<path d="M71958 14737
L71958 15090
" />
<path d="M71958 15909
L71958 16262
" />
<path d="M71942 14751
L71942 15090
" />
<path d="M71942 15909
L71942 16248
" />
<path d="M71927 14766
L71927 15090
" />
<path d="M71927 15909
L71927 16233
" />
<path d="M71911 14781
L71911 15090
" />
<path d="M71911 15909
L71911 16218
" />
<path d="M71895 14797
L71895 15090
" />
<path d="M71895 15909
L71895 16202
" />
<path d="M71880 14813
L71880 15090
" />
<path d="M71880 15909
L71880 16186
" />
<path d="M71864 14831
L71864 15090
" />
<path d="M71864 15909
L71864 16168
" />
<path d="M71848 14849
L71848 15090
" />
<path d="M71848 15909
L71848 16150
" />
<path d="M71832 14868
L71832 16131
" />
<path d="M71817 14888
L71817 16111
" />
<path d="M71801 14909
L71801 16090
" />
<path d="M71785 14931
L71785 16068
" />
<path d="M71769 14955
L71769 16044
" />
<path d="M71754 14980
L71754 16019
" />
<path d="M71738 15007
L71738 15992
" />
<path d="M71722 15036
L71722 15963
" />
<path d="M71706 15067
L71706 15932
" />
<path d="M71691 15101
L71691 15898
" />
<path d="M71675 15139
L71675 15860
" />
<path d="M71659 15183
L71659 15816
" />
<path d="M71643 15233
L71643 15766
" />
<path d="M71628 15296
L71628 15703
" />
<path d="M71612 15388
L71612 15611
" />
<path d="M73740 14919
L73543 14919
" />
<path d="M73642 14820
L73642 15017
" />
<path d="M74730 20029
L74936 20029
" />
<path d="M74730 19470
L74936 19470
" />
<path d="M71909 25693
L71909 25899
" />
<path d="M71350 25693
L71350 25899
" />
<path d="M73009 19497
L73009 19702
" />
<path d="M72450 19497
L72450 19702
" />
<path d="M75509 25700
L75509 25906
" />
<path d="M74950 25700
L74950 25906
" />
<path d="M71830 21220
L72036 21220
" />
<path d="M71830 21779
L72036 21779
" />
<path d="M69909 25000
L69909 25206
" />
<path d="M69350 25000
L69350 25206
" />
<path d="M71830 22579
L72036 22579
" />
<path d="M71830 22020
L72036 22020
" />
<path d="M73309 13299
L73309 13093
" />
<path d="M72750 13299
L72750 13093
" />
<path d="M63707 27371
L63707 28497
" />
<path d="M62952 27371
L63707 27371
" />
<path d="M62952 28497
L62952 27371
" />
<path d="M63752 28497
L63752 27371
" />
<path d="M63752 27371
L64507 27371
" />
<path d="M64507 27371
L64507 28497
" />
<path d="M73009 25899
L73009 25693
" />
<path d="M72450 25899
L72450 25693
" />
<path d="M63609 25893
L63609 26099
" />
<path d="M63050 25893
L63050 26099
" />
<path d="M63850 25893
L63850 26099
" />
<path d="M64409 25893
L64409 26099
" />
<path d="M62277 11220
L62482 11220
" />
<path d="M62277 11779
L62482 11779
" />
<path d="M71830 23529
L72036 23529
" />
<path d="M71830 22970
L72036 22970
" />
<path d="M65150 28199
L65150 27993
" />
<path d="M65709 28199
L65709 27993
" />
<path d="M68329 27320
L68123 27320
" />
<path d="M68329 27879
L68123 27879
" />
<path d="M66682 25803
L66682 29196
" />
<path d="M67777 25803
L67777 29196
" />
<path d="M66682 25803
L67777 25803
" />
<path d="M66682 29196
L67777 29196
" />
<path d="M69909 26593
L69909 26799
" />
<path d="M69350 26593
L69350 26799
" />
<path d="M65950 28000
L65950 28206
" />
<path d="M66509 28000
L66509 28206
" />
<path d="M73435 21330
L73435 23790
" />
<path d="M75424 21330
L75424 23790
" />
<path d="M75424.1 21330.3 A994.094 994.094 0.0 0 0 73435.9 21330.3 " />
<path d="M73435.9 23790.9 A994.094 994.094 0.0 0 0 75424.1 23790.9 " />
<path d="M72409 13299
L72409 13093
" />
<path d="M71850 13299
L71850 13093
" />
<path d="M61811 24173
L62335 24173
" />
<path d="M61811 23650
L61811 24173
" />
<path d="M61811 23150
L62858 23150
" />
<path d="M62858 23150
L62858 22126
" />
<path d="M61811 23150
L61811 22126
" />
<path d="M61811 22126
L62858 22126
" />
<path d="M74056 16126
L75103 16126
" />
<path d="M74056 17150
L74056 16126
" />
<path d="M75103 17150
L75103 16126
" />
<path d="M74056 17150
L75103 17150
" />
<path d="M74056 17650
L74056 18173
" />
<path d="M74056 18173
L74580 18173
" />
<path d="M62853 16223
L61806 16223
" />
<path d="M62853 13200
L62853 16223
" />
<path d="M61806 13200
L61806 16223
" />
<path d="M62853 13200
L61806 13200
" />
<path d="M62853 12700
L62853 12176
" />
<path d="M62853 12176
L62330 12176
" />
<path d="M67989 19519
L67989 19313
" />
<path d="M67430 19519
L67430 19313
" />
<path d="M62853 21173
L61806 21173
" />
<path d="M62853 18150
L62853 21173
" />
<path d="M61806 18150
L61806 21173
" />
<path d="M62853 18150
L61806 18150
" />
<path d="M62853 17650
L62853 17126
" />
<path d="M62853 17126
L62330 17126
" />
<path d="M73466 29203
L73466 28156
" />
<path d="M74490 29203
L73466 29203
" />
<path d="M74490 28156
L73466 28156
" />
<path d="M74490 29203
L74490 28156
" />
<path d="M74990 29203
L75513 29203
" />
<path d="M75513 29203
L75513 28680
" />
</g> 
</svg>
