<?xml version="1.0" standalone="no"?>
 <!DOCTYPE svg PUBLIC "-//W3C//DTD SVG 1.1//EN" 
 "http://www.w3.org/Graphics/SVG/1.1/DTD/svg11.dtd"> 
<svg xmlns="http://www.w3.org/2000/svg" version="1.1" 
    width="29.7002cm" height="21.0007cm" viewBox="0 0 116930 82680 ">
<title>SVG Picture created as placa-B.Cu.svg date 2018/10/02 15:08:25 </title>
  <desc>Picture generated by PCBNEW </desc>
<g style="fill:#000000; fill-opacity:1;stroke:#000000; stroke-opacity:1;
stroke-linecap:round; stroke-linejoin:round; "
 transform="translate(0 0) scale(1 1)">
</g>
<g style="fill:#000000; fill-opacity:0.0; 
stroke:#000000; stroke-width:-0.000393701; stroke-opacity:1; 
stroke-linecap:round; stroke-linejoin:round;">
</g>
<g style="fill:#000000; fill-opacity:1.0; 
stroke:#000000; stroke-width:39.3701; stroke-opacity:1; 
stroke-linecap:round; stroke-linejoin:round;">
<rect x="38802" y="8701.97" width="18996.1" height="41496.1" rx="0" />
</g>
<g style="fill:#FFFFFF; fill-opacity:1.0; 
stroke:#FFFFFF; stroke-width:39.3701; stroke-opacity:1; 
stroke-linecap:round; stroke-linejoin:round;">
</g>
<g style="fill:#FFFFFF; fill-opacity:0.0; 
stroke:#FFFFFF; stroke-width:39.3701; stroke-opacity:1; 
stroke-linecap:round; stroke-linejoin:round;">
</g>
<g style="fill:#FFFFFF; fill-opacity:0.0; 
stroke:#FFFFFF; stroke-width:118.11; stroke-opacity:1; 
stroke-linecap:round; stroke-linejoin:round;">
<path d="M54768 28573
L54628 28967
L54487 28573
" />
<path d="M53503 28967
L53840 28967
" />
<path d="M53671 28967
L53671 28376
L53728 28460
L53784 28517
L53840 28545
" />
<path d="M53250 28910
L53221 28939
L53250 28967
L53278 28939
L53250 28910
L53250 28967
" />
<path d="M52659 28967
L52996 28967
" />
<path d="M52828 28967
L52828 28376
L52884 28460
L52940 28517
L52996 28545
" />
</g>
<g style="fill:#FFFFFF; fill-opacity:1.0; 
stroke:#FFFFFF; stroke-width:3.93701; stroke-opacity:1; 
stroke-linecap:round; stroke-linejoin:round;">
<polyline style="fill-rule:evenodd;"
points="50925,46291
48398,47795
48398,46291
50925,46291
" /> 
<polyline style="fill-rule:evenodd;"
points="47413,47248
48275,47803
48275,46295
45775,46291
47413,47248
" /> 
<polyline style="fill-rule:evenodd;"
points="50976,46157
51996,45567
45193,45555
46220,46146
50976,46157
" /> 
<polyline style="fill-rule:evenodd;"
points="53457,44740
54476,44150
42783,44157
43811,44748
53457,44740
" /> 
<polyline style="fill-rule:evenodd;"
points="51716,45445
52716,44854
43531,44858
44504,45445
51716,45445
" /> 
<polyline style="fill-rule:evenodd;"
points="41803,43827
41803,44024
41807,44027
42004,43909
42000,43827
41803,43827
" /> 
<polyline style="fill-rule:evenodd;"
points="42000,43909
41807,44027
47571,47335
47689,47177
42000,43909
" /> 
<polyline style="fill-rule:evenodd;"
points="54575,44024
54772,44024
49181,47331
49063,47134
54575,44024
" /> 
<polyline style="fill-rule:evenodd;"
points="54579,43323
54579,42732
42122,42732
42122,43323
54579,43323
" /> 
<polyline style="fill-rule:evenodd;"
points="54579,41905
54579,41315
42122,41315
42122,41905
54579,41905
" /> 
<polyline style="fill-rule:evenodd;"
points="54579,40488
54579,39898
42122,39898
42122,40488
54579,40488
" /> 
<polyline style="fill-rule:evenodd;"
points="54579,39067
54579,38476
42122,38476
42122,39067
54579,39067
" /> 
<polyline style="fill-rule:evenodd;"
points="54579,37650
54579,37059
42122,37059
42122,37650
54579,37650
" /> 
<polyline style="fill-rule:evenodd;"
points="54579,36232
54579,35642
42122,35642
42122,36232
54579,36232
" /> 
<polyline style="fill-rule:evenodd;"
points="54579,34815
54579,34224
42122,34224
42122,34815
54579,34815
" /> 
<polyline style="fill-rule:evenodd;"
points="54579,33398
54579,32807
42122,32807
42122,33398
54579,33398
" /> 
<polyline style="fill-rule:evenodd;"
points="54579,31980
54579,31390
42122,31390
42122,31980
54579,31980
" /> 
<polyline style="fill-rule:evenodd;"
points="54327,44024
54327,43433
42000,43437
42000,44027
54327,44024
" /> 
<polyline style="fill-rule:evenodd;"
points="54461,42606
54461,42016
42000,42020
42000,42610
54461,42606
" /> 
<polyline style="fill-rule:evenodd;"
points="54457,41189
54457,40598
42000,40602
42000,41193
54457,41189
" /> 
<polyline style="fill-rule:evenodd;"
points="54461,39775
54461,39185
42000,39185
42000,39775
54461,39775
" /> 
<polyline style="fill-rule:evenodd;"
points="54461,38358
54461,37768
42000,37768
42000,38358
54461,38358
" /> 
<polyline style="fill-rule:evenodd;"
points="54461,36941
54461,36350
42000,36350
42000,36941
54461,36941
" /> 
<polyline style="fill-rule:evenodd;"
points="54461,35524
54461,34933
42000,34933
42000,35524
54461,35524
" /> 
<polyline style="fill-rule:evenodd;"
points="54461,34106
54461,33516
42000,33516
42000,34106
54461,34106
" /> 
<polyline style="fill-rule:evenodd;"
points="54461,32685
54461,32094
42000,32098
42000,32689
54461,32685
" /> 
<polyline style="fill-rule:evenodd;"
points="42000,43827
42000,30563
41803,30563
41803,43827
42000,43827
" /> 
<polyline style="fill-rule:evenodd;"
points="54775,44031
54775,30563
54579,30563
54579,44031
54775,44031
" /> 
<polyline style="fill-rule:evenodd;"
points="54775,30563
54775,29972
49441,29972
49441,30563
54775,30563
" /> 
<polyline style="fill-rule:evenodd;"
points="47098,30563
47098,29972
41803,29972
41803,30563
47098,30563
" /> 
</g>
<g style="fill:#FFFFFF; fill-opacity:0.0; 
stroke:#FFFFFF; stroke-width:150; stroke-opacity:1; 
stroke-linecap:round; stroke-linejoin:round;">
<circle cx="48875" cy="14685" r="591" /> 
<path d="M48875 14094
L48875 15276
" />
<path d="M48284 14685
L49466 14685
" />
</g>
<g style="fill:#FFFFFF; fill-opacity:1.0; 
stroke:#FFFFFF; stroke-width:0; stroke-opacity:1; 
stroke-linecap:round; stroke-linejoin:round;">
<circle cx="49461" cy="30268.1" r="300" /> 
</g>
<g style="fill:#FFFFFF; fill-opacity:1.0; 
stroke:#FFFFFF; stroke-width:39.3701; stroke-opacity:1; 
stroke-linecap:round; stroke-linejoin:round;">
</g>
<g style="fill:#FFFFFF; fill-opacity:1.0; 
stroke:#FFFFFF; stroke-width:0; stroke-opacity:1; 
stroke-linecap:round; stroke-linejoin:round;">
<circle cx="47098.8" cy="30268.1" r="300" /> 
</g>
<g style="fill:#FFFFFF; fill-opacity:1.0; 
stroke:#FFFFFF; stroke-width:39.3701; stroke-opacity:1; 
stroke-linecap:round; stroke-linejoin:round;">
</g>
<g style="fill:#FFFFFF; fill-opacity:1.0; 
stroke:#FFFFFF; stroke-width:0; stroke-opacity:1; 
stroke-linecap:round; stroke-linejoin:round;">
<circle cx="46510" cy="12040" r="300" /> 
</g>
<g style="fill:#FFFFFF; fill-opacity:1.0; 
stroke:#FFFFFF; stroke-width:39.3701; stroke-opacity:1; 
stroke-linecap:round; stroke-linejoin:round;">
</g>
<g style="fill:#FFFFFF; fill-opacity:1.0; 
stroke:#FFFFFF; stroke-width:0; stroke-opacity:1; 
stroke-linecap:round; stroke-linejoin:round;">
<circle cx="46600" cy="22200" r="216.535" /> 
</g>
<g style="fill:#FFFFFF; fill-opacity:1.0; 
stroke:#FFFFFF; stroke-width:39.3701; stroke-opacity:1; 
stroke-linecap:round; stroke-linejoin:round;">
</g>
<g style="fill:#FFFFFF; fill-opacity:1.0; 
stroke:#FFFFFF; stroke-width:0; stroke-opacity:1; 
stroke-linecap:round; stroke-linejoin:round;">
<circle cx="46600" cy="21609.4" r="216.535" /> 
</g>
<g style="fill:#FFFFFF; fill-opacity:1.0; 
stroke:#FFFFFF; stroke-width:39.3701; stroke-opacity:1; 
stroke-linecap:round; stroke-linejoin:round;">
</g>
<g style="fill:#FFFFFF; fill-opacity:1.0; 
stroke:#FFFFFF; stroke-width:0; stroke-opacity:1; 
stroke-linecap:round; stroke-linejoin:round;">
<circle cx="48400" cy="26352" r="275.591" /> 
</g>
<g style="fill:#FFFFFF; fill-opacity:1.0; 
stroke:#FFFFFF; stroke-width:39.3701; stroke-opacity:1; 
stroke-linecap:round; stroke-linejoin:round;">
</g>
<g style="fill:#FFFFFF; fill-opacity:1.0; 
stroke:#FFFFFF; stroke-width:551.181; stroke-opacity:1; 
stroke-linecap:round; stroke-linejoin:round;">
</g>
<g style="fill:#FFFFFF; fill-opacity:0.0; 
stroke:#FFFFFF; stroke-width:551.181; stroke-opacity:1; 
stroke-linecap:round; stroke-linejoin:round;">
<path d="M48400 25603
L48400 25603
" />
</g>
<g style="fill:#FFFFFF; fill-opacity:0.0; 
stroke:#FFFFFF; stroke-width:0; stroke-opacity:1; 
stroke-linecap:round; stroke-linejoin:round;">
</g>
<g style="fill:#FFFFFF; fill-opacity:1.0; 
stroke:#FFFFFF; stroke-width:0; stroke-opacity:1; 
stroke-linecap:round; stroke-linejoin:round;">
<polyline style="fill-rule:evenodd;"
points="47614,20914
46985,20914
46985,20285
47614,20285
47614,20914
" /> 
<circle cx="47300" cy="19615.7" r="314.961" /> 
</g>
<g style="fill:#FFFFFF; fill-opacity:1.0; 
stroke:#FFFFFF; stroke-width:39.3701; stroke-opacity:1; 
stroke-linecap:round; stroke-linejoin:round;">
</g>
<g style="fill:#FFFFFF; fill-opacity:1.0; 
stroke:#FFFFFF; stroke-width:0; stroke-opacity:1; 
stroke-linecap:round; stroke-linejoin:round;">
<polyline style="fill-rule:evenodd;"
points="43585,15814
43585,15185
44214,15185
44214,15814
43585,15814
" /> 
<circle cx="44687.4" cy="15500" r="314.961" /> 
</g>
<g style="fill:#FFFFFF; fill-opacity:1.0; 
stroke:#FFFFFF; stroke-width:39.3701; stroke-opacity:1; 
stroke-linecap:round; stroke-linejoin:round;">
</g>
<g style="fill:#FFFFFF; fill-opacity:1.0; 
stroke:#FFFFFF; stroke-width:0; stroke-opacity:1; 
stroke-linecap:round; stroke-linejoin:round;">
<circle cx="49700" cy="26500" r="314.961" /> 
</g>
<g style="fill:#FFFFFF; fill-opacity:1.0; 
stroke:#FFFFFF; stroke-width:39.3701; stroke-opacity:1; 
stroke-linecap:round; stroke-linejoin:round;">
</g>
<g style="fill:#FFFFFF; fill-opacity:1.0; 
stroke:#FFFFFF; stroke-width:0; stroke-opacity:1; 
stroke-linecap:round; stroke-linejoin:round;">
<circle cx="49700" cy="28500" r="314.961" /> 
</g>
<g style="fill:#FFFFFF; fill-opacity:1.0; 
stroke:#FFFFFF; stroke-width:39.3701; stroke-opacity:1; 
stroke-linecap:round; stroke-linejoin:round;">
</g>
<g style="fill:#FFFFFF; fill-opacity:1.0; 
stroke:#FFFFFF; stroke-width:0; stroke-opacity:1; 
stroke-linecap:round; stroke-linejoin:round;">
<circle cx="42500" cy="21600" r="295.276" /> 
</g>
<g style="fill:#FFFFFF; fill-opacity:1.0; 
stroke:#FFFFFF; stroke-width:39.3701; stroke-opacity:1; 
stroke-linecap:round; stroke-linejoin:round;">
</g>
<g style="fill:#FFFFFF; fill-opacity:1.0; 
stroke:#FFFFFF; stroke-width:0; stroke-opacity:1; 
stroke-linecap:round; stroke-linejoin:round;">
<circle cx="42500" cy="23521.3" r="295.276" /> 
</g>
<g style="fill:#FFFFFF; fill-opacity:1.0; 
stroke:#FFFFFF; stroke-width:39.3701; stroke-opacity:1; 
stroke-linecap:round; stroke-linejoin:round;">
</g>
<g style="fill:#FFFFFF; fill-opacity:1.0; 
stroke:#FFFFFF; stroke-width:669.291; stroke-opacity:1; 
stroke-linecap:round; stroke-linejoin:round;">
</g>
<g style="fill:#FFFFFF; fill-opacity:0.0; 
stroke:#FFFFFF; stroke-width:669.291; stroke-opacity:1; 
stroke-linecap:round; stroke-linejoin:round;">
<path d="M54595 22650
L54595 22650
" />
</g>
<g style="fill:#FFFFFF; fill-opacity:0.0; 
stroke:#FFFFFF; stroke-width:0; stroke-opacity:1; 
stroke-linecap:round; stroke-linejoin:round;">
</g>
<g style="fill:#FFFFFF; fill-opacity:1.0; 
stroke:#FFFFFF; stroke-width:0; stroke-opacity:1; 
stroke-linecap:round; stroke-linejoin:round;">
<polyline style="fill-rule:evenodd;"
points="54929,23315
54929,23984
54260,23984
54260,23315
54929,23315
" /> 
<polyline style="fill-rule:evenodd;"
points="42684,17315
42684,17984
42015,17984
42015,17315
42684,17315
" /> 
</g>
<g style="fill:#FFFFFF; fill-opacity:1.0; 
stroke:#FFFFFF; stroke-width:669.291; stroke-opacity:1; 
stroke-linecap:round; stroke-linejoin:round;">
</g>
<g style="fill:#FFFFFF; fill-opacity:0.0; 
stroke:#FFFFFF; stroke-width:669.291; stroke-opacity:1; 
stroke-linecap:round; stroke-linejoin:round;">
<path d="M42350 16650
L42350 16650
" />
</g>
<g style="fill:#FFFFFF; fill-opacity:0.0; 
stroke:#FFFFFF; stroke-width:0; stroke-opacity:1; 
stroke-linecap:round; stroke-linejoin:round;">
</g>
<g style="fill:#FFFFFF; fill-opacity:1.0; 
stroke:#FFFFFF; stroke-width:0; stroke-opacity:1; 
stroke-linecap:round; stroke-linejoin:round;">
<polyline style="fill-rule:evenodd;"
points="54265,13034
54265,12365
54934,12365
54934,13034
54265,13034
" /> 
</g>
<g style="fill:#FFFFFF; fill-opacity:1.0; 
stroke:#FFFFFF; stroke-width:669.291; stroke-opacity:1; 
stroke-linecap:round; stroke-linejoin:round;">
</g>
<g style="fill:#FFFFFF; fill-opacity:0.0; 
stroke:#FFFFFF; stroke-width:669.291; stroke-opacity:1; 
stroke-linecap:round; stroke-linejoin:round;">
<path d="M54600 13700
L54600 13700
" />
<path d="M54600 14700
L54600 14700
" />
<path d="M54600 15700
L54600 15700
" />
</g>
<g style="fill:#FFFFFF; fill-opacity:0.0; 
stroke:#FFFFFF; stroke-width:0; stroke-opacity:1; 
stroke-linecap:round; stroke-linejoin:round;">
</g>
<g style="fill:#FFFFFF; fill-opacity:1.0; 
stroke:#FFFFFF; stroke-width:0; stroke-opacity:1; 
stroke-linecap:round; stroke-linejoin:round;">
<polyline style="fill-rule:evenodd;"
points="54265,17984
54265,17315
54934,17315
54934,17984
54265,17984
" /> 
</g>
<g style="fill:#FFFFFF; fill-opacity:1.0; 
stroke:#FFFFFF; stroke-width:669.291; stroke-opacity:1; 
stroke-linecap:round; stroke-linejoin:round;">
</g>
<g style="fill:#FFFFFF; fill-opacity:0.0; 
stroke:#FFFFFF; stroke-width:669.291; stroke-opacity:1; 
stroke-linecap:round; stroke-linejoin:round;">
<path d="M54600 18650
L54600 18650
" />
<path d="M54600 19650
L54600 19650
" />
<path d="M54600 20650
L54600 20650
" />
</g>
<g style="fill:#FFFFFF; fill-opacity:0.0; 
stroke:#FFFFFF; stroke-width:0; stroke-opacity:1; 
stroke-linecap:round; stroke-linejoin:round;">
</g>
<g style="fill:#FFFFFF; fill-opacity:1.0; 
stroke:#FFFFFF; stroke-width:0; stroke-opacity:1; 
stroke-linecap:round; stroke-linejoin:round;">
<polyline style="fill-rule:evenodd;"
points="42274,29014
41605,29014
41605,28345
42274,28345
42274,29014
" /> 
</g>
<g style="fill:#FFFFFF; fill-opacity:1.0; 
stroke:#FFFFFF; stroke-width:669.291; stroke-opacity:1; 
stroke-linecap:round; stroke-linejoin:round;">
</g>
<g style="fill:#FFFFFF; fill-opacity:0.0; 
stroke:#FFFFFF; stroke-width:669.291; stroke-opacity:1; 
stroke-linecap:round; stroke-linejoin:round;">
<path d="M42940 28680
L42940 28680
" />
</g>
<g style="fill:#FFFFFF; fill-opacity:1.0; 
stroke:#FFFFFF; stroke-width:0; stroke-opacity:1; 
stroke-linecap:round; stroke-linejoin:round;">
<circle cx="54550" cy="25650" r="216.535" /> 
</g>
<g style="fill:#FFFFFF; fill-opacity:1.0; 
stroke:#FFFFFF; stroke-width:39.3701; stroke-opacity:1; 
stroke-linecap:round; stroke-linejoin:round;">
</g>
<g style="fill:#FFFFFF; fill-opacity:1.0; 
stroke:#FFFFFF; stroke-width:0; stroke-opacity:1; 
stroke-linecap:round; stroke-linejoin:round;">
<circle cx="46615" cy="26030" r="216.535" /> 
</g>
<g style="fill:#FFFFFF; fill-opacity:1.0; 
stroke:#FFFFFF; stroke-width:39.3701; stroke-opacity:1; 
stroke-linecap:round; stroke-linejoin:round;">
</g>
<g style="fill:#FFFFFF; fill-opacity:1.0; 
stroke:#FFFFFF; stroke-width:0; stroke-opacity:1; 
stroke-linecap:round; stroke-linejoin:round;">
<circle cx="45280" cy="27430" r="216.535" /> 
</g>
<g style="fill:#FFFFFF; fill-opacity:1.0; 
stroke:#FFFFFF; stroke-width:39.3701; stroke-opacity:1; 
stroke-linecap:round; stroke-linejoin:round;">
</g>
<g style="fill:#FFFFFF; fill-opacity:1.0; 
stroke:#FFFFFF; stroke-width:0; stroke-opacity:1; 
stroke-linecap:round; stroke-linejoin:round;">
<circle cx="54590" cy="16670" r="216.535" /> 
</g>
<g style="fill:#FFFFFF; fill-opacity:1.0; 
stroke:#FFFFFF; stroke-width:39.3701; stroke-opacity:1; 
stroke-linecap:round; stroke-linejoin:round;">
</g>
<g style="fill:#FFFFFF; fill-opacity:1.0; 
stroke:#FFFFFF; stroke-width:0; stroke-opacity:1; 
stroke-linecap:round; stroke-linejoin:round;">
<circle cx="49830" cy="25610" r="216.535" /> 
</g>
<g style="fill:#FFFFFF; fill-opacity:1.0; 
stroke:#FFFFFF; stroke-width:39.3701; stroke-opacity:1; 
stroke-linecap:round; stroke-linejoin:round;">
</g>
<g style="fill:#FFFFFF; fill-opacity:1.0; 
stroke:#FFFFFF; stroke-width:0; stroke-opacity:1; 
stroke-linecap:round; stroke-linejoin:round;">
<circle cx="51940" cy="24945" r="216.535" /> 
</g>
<g style="fill:#FFFFFF; fill-opacity:1.0; 
stroke:#FFFFFF; stroke-width:39.3701; stroke-opacity:1; 
stroke-linecap:round; stroke-linejoin:round;">
</g>
<g style="fill:#FFFFFF; fill-opacity:1.0; 
stroke:#FFFFFF; stroke-width:0; stroke-opacity:1; 
stroke-linecap:round; stroke-linejoin:round;">
<circle cx="47100" cy="27900" r="216.535" /> 
</g>
<g style="fill:#FFFFFF; fill-opacity:1.0; 
stroke:#FFFFFF; stroke-width:39.3701; stroke-opacity:1; 
stroke-linecap:round; stroke-linejoin:round;">
</g>
<g style="fill:#FFFFFF; fill-opacity:1.0; 
stroke:#FFFFFF; stroke-width:0; stroke-opacity:1; 
stroke-linecap:round; stroke-linejoin:round;">
<circle cx="45400" cy="20600" r="275.591" /> 
</g>
<g style="fill:#FFFFFF; fill-opacity:1.0; 
stroke:#FFFFFF; stroke-width:39.3701; stroke-opacity:1; 
stroke-linecap:round; stroke-linejoin:round;">
</g>
<g style="fill:#FFFFFF; fill-opacity:1.0; 
stroke:#FFFFFF; stroke-width:0; stroke-opacity:1; 
stroke-linecap:round; stroke-linejoin:round;">
<circle cx="45345" cy="18175" r="275.591" /> 
</g>
<g style="fill:#FFFFFF; fill-opacity:1.0; 
stroke:#FFFFFF; stroke-width:39.3701; stroke-opacity:1; 
stroke-linecap:round; stroke-linejoin:round;">
</g>
<g style="fill:#FFFFFF; fill-opacity:1.0; 
stroke:#FFFFFF; stroke-width:98.4252; stroke-opacity:1; 
stroke-linecap:round; stroke-linejoin:round;">
</g>
<g style="fill:#FFFFFF; fill-opacity:0.0; 
stroke:#FFFFFF; stroke-width:98.4252; stroke-opacity:1; 
stroke-linecap:round; stroke-linejoin:round;">
<path d="M46700 23500
L46500 23500
" />
</g>
<g style="fill:#FFFFFF; fill-opacity:0.0; 
stroke:#FFFFFF; stroke-width:250; stroke-opacity:1; 
stroke-linecap:round; stroke-linejoin:round;">
<path d="M49461 30268
L49461 29438
" />
</g>
<g style="fill:#FFFFFF; fill-opacity:0.0; 
stroke:#FFFFFF; stroke-width:200; stroke-opacity:1; 
stroke-linecap:round; stroke-linejoin:round;">
<path d="M47098 27901
L47100 27900
" />
<path d="M47098 30268
L47098 27901
" />
<path d="M45400 20600
L45400 18230
" />
<path d="M45400 18230
L45345 18175
" />
</g>
<g style="fill:#FFFFFF; fill-opacity:1.0; 
stroke:#FFFFFF; stroke-width:118.11; stroke-opacity:1; 
stroke-linecap:round; stroke-linejoin:round;">
<polyline style="fill-rule:evenodd;"
points="55457,29639
47454,29585
47454,28386
49129,28386
49129,28613
49216,28823
49376,28983
49586,29070
49813,29070
50023,28983
50183,28823
50270,28613
50270,28386
50183,28176
50023,28016
49958,27989
52232,27989
52232,29505
55167,29505
55167,27989
52232,27989
49958,27989
49813,27929
49586,27929
49376,28016
49216,28176
49129,28386
47454,28386
47454,28213
47500,28167
47572,27993
47572,27806
47500,27632
47367,27499
47193,27427
47006,27427
46832,27499
46699,27632
46627,27806
46627,27993
46699,28167
46742,28211
46742,29580
41085,29542
41085,28345
41344,28345
41344,29014
41364,29114
41420,29199
41505,29255
41605,29275
42274,29275
42374,29255
42459,29199
42515,29114
42521,29085
42624,29183
42806,29258
42899,29207
42899,28720
42980,28720
42980,29207
43073,29258
43255,29183
43423,29024
43518,28813
43467,28720
42980,28720
42899,28720
42891,28720
42891,28639
42899,28639
42899,28152
42980,28152
42980,28639
43467,28639
43518,28546
43423,28335
43255,28176
43073,28101
42980,28152
42899,28152
42806,28101
42624,28176
42521,28274
42515,28245
42459,28160
42374,28104
42274,28084
41605,28084
41505,28104
41420,28160
41364,28245
41344,28345
41085,28345
41085,25603
47858,25603
47899,25811
48015,25984
47949,26050
47868,26246
47868,26457
47949,26653
48098,26802
48294,26883
48505,26883
48701,26802
48850,26653
48931,26457
48931,26386
49129,26386
49129,26613
49216,26823
49376,26983
49586,27070
49813,27070
50023,26983
50183,26823
50270,26613
50270,26386
50183,26176
50023,26016
49813,25929
49586,25929
49376,26016
49216,26176
49129,26386
48931,26386
48931,26246
48850,26050
48784,25984
48900,25811
48941,25603
48900,25396
48783,25220
48607,25103
48452,25072
48347,25072
48192,25103
48016,25220
47899,25396
47858,25603
41085,25603
41085,23411
41948,23411
41948,23630
42032,23833
42187,23988
42390,24072
42609,24072
42812,23988
42967,23833
43051,23630
43051,23411
42967,23209
42812,23053
42609,22970
42390,22970
42187,23053
42032,23209
41948,23411
41085,23411
41085,21490
41948,21490
41948,21709
42032,21912
42187,22067
42390,22151
42609,22151
42812,22067
42967,21912
43051,21709
43051,21515
46127,21515
46127,21703
46199,21877
46227,21904
46199,21932
46127,22106
46127,22293
46199,22467
46332,22600
46506,22672
46693,22672
46748,22650
53992,22650
54038,22880
54167,23072
54160,23074
54075,23130
54019,23215
53999,23315
53999,23984
54019,24084
54075,24169
54160,24225
54260,24245
54929,24245
55029,24225
55114,24169
55170,24084
55190,23984
55190,23315
55170,23215
55114,23130
55029,23074
55022,23072
55151,22880
55197,22650
55151,22419
55020,22224
54825,22093
54653,22059
54536,22059
54364,22093
54169,22224
54038,22419
53992,22650
46748,22650
46867,22600
47000,22467
47072,22293
47072,22106
47000,21932
46972,21904
47000,21877
47072,21703
47072,21515
47000,21341
46867,21208
46693,21137
46506,21137
46332,21208
46199,21341
46127,21515
43051,21515
43051,21490
42967,21287
42812,21132
42609,21048
42390,21048
42187,21132
42032,21287
41948,21490
41085,21490
41085,17755
41756,17755
41756,18036
41795,18131
41868,18204
41963,18243
42244,18243
42309,18178
42309,17690
42390,17690
42390,18178
42455,18243
42736,18243
42831,18204
42904,18131
42929,18069
44813,18069
44813,18280
44894,18476
45043,18625
45044,18625
45044,20204
44949,20298
44868,20494
44868,20705
44949,20901
45098,21050
45294,21131
45505,21131
45701,21050
45850,20901
45931,20705
45931,20494
45850,20298
45836,20285
46724,20285
46724,20914
46743,21014
46800,21099
46885,21156
46985,21175
47614,21175
47714,21156
47799,21099
47856,21014
47875,20914
47875,20285
47856,20185
47799,20100
47714,20043
47633,20027
47637,20011
47300,19673
46962,20011
46966,20027
46885,20043
46800,20100
46743,20185
46724,20285
45836,20285
45755,20204
45755,19519
46722,19519
46729,19747
46803,19925
46904,19953
47242,19615
47357,19615
47695,19953
47796,19925
47877,19712
47875,19650
53997,19650
54043,19880
54174,20075
54285,20150
54174,20224
54043,20419
53997,20650
54043,20880
54174,21075
54369,21206
54541,21240
54658,21240
54830,21206
55025,21075
55156,20880
55202,20650
55156,20419
55025,20224
54914,20150
55025,20075
55156,19880
55202,19650
55156,19419
55025,19224
54911,19148
54944,19133
55103,18965
55178,18783
55127,18690
54640,18690
54640,18698
54559,18698
54559,18690
54072,18690
54021,18783
54096,18965
54255,19133
54288,19148
54174,19224
54043,19419
53997,19650
47875,19650
47870,19483
47796,19305
47695,19277
47357,19615
47242,19615
46904,19277
46803,19305
46722,19519
45755,19519
45755,19219
46962,19219
47300,19557
47637,19219
47610,19119
47396,19038
47168,19045
46989,19119
46962,19219
45755,19219
45755,18515
45795,18476
45876,18280
45876,18069
45795,17873
45646,17724
45450,17643
45239,17643
45043,17724
44894,17873
44813,18069
42929,18069
42943,18036
42943,17755
42878,17690
42390,17690
42309,17690
41821,17690
41756,17755
41085,17755
41085,16650
41747,16650
41793,16880
41922,17073
41868,17095
41795,17168
41756,17263
41756,17544
41821,17609
42309,17609
42309,17601
42390,17601
42390,17609
42878,17609
42943,17544
42943,17315
54004,17315
54004,17984
54024,18084
54080,18169
54165,18225
54194,18231
54096,18334
54021,18516
54072,18609
54559,18609
54559,18601
54640,18601
54640,18609
55127,18609
55178,18516
55103,18334
55005,18231
55034,18225
55119,18169
55175,18084
55195,17984
55195,17315
55175,17215
55119,17130
55034,17074
54934,17054
54265,17054
54165,17074
54080,17130
54024,17215
54004,17315
42943,17315
42943,17263
42904,17168
42831,17095
42777,17073
42906,16880
42952,16650
42906,16419
42775,16224
42580,16093
42408,16059
42291,16059
42119,16093
41924,16224
41793,16419
41747,16650
41085,16650
41085,15185
43324,15185
43324,15814
43343,15914
43400,15999
43485,16056
43585,16075
44214,16075
44314,16056
44394,16002
44590,16077
44819,16070
44997,15996
45025,15895
44687,15557
44681,15563
44623,15505
44629,15500
44745,15500
45083,15837
45183,15810
45264,15596
45257,15368
45183,15189
45083,15162
44745,15500
44629,15500
44623,15494
44681,15436
44687,15442
45025,15104
44997,15003
44783,14922
44555,14929
44393,14996
44314,14943
44214,14924
43585,14924
43485,14943
43400,15000
43343,15085
43324,15185
41085,15185
41085,14685
47946,14685
47958,14743
47959,14844
48060,15132
48249,15372
48505,15538
48802,15611
48847,15607
48875,15613
48944,15599
49106,15585
49385,15462
49609,15254
49754,14986
49804,14685
49804,14670
49749,14370
49600,14103
49373,13899
49092,13780
48944,13770
48875,13756
48841,13763
48787,13759
48492,13837
48238,14007
48053,14249
47956,14539
47957,14630
47946,14685
41085,14685
41085,13700
53997,13700
54043,13930
54174,14125
54285,14200
54174,14274
54043,14469
53997,14700
54043,14930
54174,15125
54285,15200
54174,15274
54043,15469
53997,15700
54043,15930
54174,16125
54369,16256
54541,16290
54658,16290
54830,16256
55025,16125
55156,15930
55202,15700
55156,15469
55025,15274
54914,15200
55025,15125
55156,14930
55202,14700
55156,14469
55025,14274
54914,14200
55025,14125
55156,13930
55202,13700
55156,13469
55027,13277
55034,13275
55119,13219
55175,13134
55195,13034
55195,12365
55175,12265
55119,12180
55034,12124
54934,12104
54265,12104
54165,12124
54080,12180
54024,12265
54004,12365
54004,13034
54024,13134
54080,13219
54165,13275
54172,13277
54043,13469
53997,13700
41085,13700
41085,11929
45954,11929
45954,12150
46038,12354
46195,12511
46399,12595
46620,12595
46824,12511
46981,12354
47065,12150
47065,11929
46981,11725
46824,11568
46620,11484
46399,11484
46195,11568
46038,11725
45954,11929
41085,11929
41085,11083
55513,10987
55457,29639
" /> 
</g>
<g style="fill:#000000; fill-opacity:1.0; 
stroke:#000000; stroke-width:118.11; stroke-opacity:1; 
stroke-linecap:round; stroke-linejoin:round;">
</g>
<g style="fill:#000000; fill-opacity:1.0; 
stroke:#000000; stroke-width:0; stroke-opacity:1; 
stroke-linecap:round; stroke-linejoin:round;">
<circle cx="54550" cy="25650" r="68.8976" /> 
</g>
<g style="fill:#000000; fill-opacity:1.0; 
stroke:#000000; stroke-width:39.3701; stroke-opacity:1; 
stroke-linecap:round; stroke-linejoin:round;">
</g>
<g style="fill:#000000; fill-opacity:1.0; 
stroke:#000000; stroke-width:0; stroke-opacity:1; 
stroke-linecap:round; stroke-linejoin:round;">
<circle cx="46615" cy="26030" r="68.8976" /> 
</g>
<g style="fill:#000000; fill-opacity:1.0; 
stroke:#000000; stroke-width:39.3701; stroke-opacity:1; 
stroke-linecap:round; stroke-linejoin:round;">
</g>
<g style="fill:#000000; fill-opacity:1.0; 
stroke:#000000; stroke-width:0; stroke-opacity:1; 
stroke-linecap:round; stroke-linejoin:round;">
<circle cx="45280" cy="27430" r="68.8976" /> 
</g>
<g style="fill:#000000; fill-opacity:1.0; 
stroke:#000000; stroke-width:39.3701; stroke-opacity:1; 
stroke-linecap:round; stroke-linejoin:round;">
</g>
<g style="fill:#000000; fill-opacity:1.0; 
stroke:#000000; stroke-width:0; stroke-opacity:1; 
stroke-linecap:round; stroke-linejoin:round;">
<circle cx="54590" cy="16670" r="68.8976" /> 
</g>
<g style="fill:#000000; fill-opacity:1.0; 
stroke:#000000; stroke-width:39.3701; stroke-opacity:1; 
stroke-linecap:round; stroke-linejoin:round;">
</g>
<g style="fill:#000000; fill-opacity:1.0; 
stroke:#000000; stroke-width:0; stroke-opacity:1; 
stroke-linecap:round; stroke-linejoin:round;">
<circle cx="49830" cy="25610" r="68.8976" /> 
</g>
<g style="fill:#000000; fill-opacity:1.0; 
stroke:#000000; stroke-width:39.3701; stroke-opacity:1; 
stroke-linecap:round; stroke-linejoin:round;">
</g>
<g style="fill:#000000; fill-opacity:1.0; 
stroke:#000000; stroke-width:0; stroke-opacity:1; 
stroke-linecap:round; stroke-linejoin:round;">
<circle cx="51940" cy="24945" r="68.8976" /> 
</g>
<g style="fill:#000000; fill-opacity:1.0; 
stroke:#000000; stroke-width:39.3701; stroke-opacity:1; 
stroke-linecap:round; stroke-linejoin:round;">
</g>
<g style="fill:#000000; fill-opacity:1.0; 
stroke:#000000; stroke-width:0; stroke-opacity:1; 
stroke-linecap:round; stroke-linejoin:round;">
<circle cx="47100" cy="27900" r="68.8976" /> 
</g>
<g style="fill:#000000; fill-opacity:1.0; 
stroke:#000000; stroke-width:39.3701; stroke-opacity:1; 
stroke-linecap:round; stroke-linejoin:round;">
</g>
<g style="fill:#000000; fill-opacity:1.0; 
stroke:#000000; stroke-width:0; stroke-opacity:1; 
stroke-linecap:round; stroke-linejoin:round;">
<circle cx="45400" cy="20600" r="68.8976" /> 
</g>
<g style="fill:#000000; fill-opacity:1.0; 
stroke:#000000; stroke-width:39.3701; stroke-opacity:1; 
stroke-linecap:round; stroke-linejoin:round;">
</g>
<g style="fill:#000000; fill-opacity:1.0; 
stroke:#000000; stroke-width:0; stroke-opacity:1; 
stroke-linecap:round; stroke-linejoin:round;">
<circle cx="45345" cy="18175" r="68.8976" /> 
</g>
<g style="fill:#000000; fill-opacity:1.0; 
stroke:#000000; stroke-width:39.3701; stroke-opacity:1; 
stroke-linecap:round; stroke-linejoin:round;">
</g>
<g style="fill:#000000; fill-opacity:1.0; 
stroke:#000000; stroke-width:0; stroke-opacity:1; 
stroke-linecap:round; stroke-linejoin:round;">
<circle cx="49461" cy="30268.1" r="68.8976" /> 
</g>
<g style="fill:#000000; fill-opacity:1.0; 
stroke:#000000; stroke-width:39.3701; stroke-opacity:1; 
stroke-linecap:round; stroke-linejoin:round;">
</g>
<g style="fill:#000000; fill-opacity:1.0; 
stroke:#000000; stroke-width:0; stroke-opacity:1; 
stroke-linecap:round; stroke-linejoin:round;">
<circle cx="47098.8" cy="30268.1" r="68.8976" /> 
</g>
<g style="fill:#000000; fill-opacity:1.0; 
stroke:#000000; stroke-width:39.3701; stroke-opacity:1; 
stroke-linecap:round; stroke-linejoin:round;">
</g>
<g style="fill:#000000; fill-opacity:1.0; 
stroke:#000000; stroke-width:0; stroke-opacity:1; 
stroke-linecap:round; stroke-linejoin:round;">
<circle cx="46510" cy="12040" r="68.8976" /> 
</g>
<g style="fill:#000000; fill-opacity:1.0; 
stroke:#000000; stroke-width:39.3701; stroke-opacity:1; 
stroke-linecap:round; stroke-linejoin:round;">
</g>
<g style="fill:#000000; fill-opacity:1.0; 
stroke:#000000; stroke-width:0; stroke-opacity:1; 
stroke-linecap:round; stroke-linejoin:round;">
<circle cx="46600" cy="22200" r="68.8976" /> 
</g>
<g style="fill:#000000; fill-opacity:1.0; 
stroke:#000000; stroke-width:39.3701; stroke-opacity:1; 
stroke-linecap:round; stroke-linejoin:round;">
</g>
<g style="fill:#000000; fill-opacity:1.0; 
stroke:#000000; stroke-width:0; stroke-opacity:1; 
stroke-linecap:round; stroke-linejoin:round;">
<circle cx="46600" cy="21609.4" r="68.8976" /> 
</g>
<g style="fill:#000000; fill-opacity:1.0; 
stroke:#000000; stroke-width:39.3701; stroke-opacity:1; 
stroke-linecap:round; stroke-linejoin:round;">
</g>
<g style="fill:#000000; fill-opacity:1.0; 
stroke:#000000; stroke-width:0; stroke-opacity:1; 
stroke-linecap:round; stroke-linejoin:round;">
<circle cx="48400" cy="26352" r="68.8976" /> 
</g>
<g style="fill:#000000; fill-opacity:1.0; 
stroke:#000000; stroke-width:39.3701; stroke-opacity:1; 
stroke-linecap:round; stroke-linejoin:round;">
</g>
<g style="fill:#000000; fill-opacity:1.0; 
stroke:#000000; stroke-width:0; stroke-opacity:1; 
stroke-linecap:round; stroke-linejoin:round;">
<circle cx="48400" cy="25603.9" r="68.8976" /> 
</g>
<g style="fill:#000000; fill-opacity:1.0; 
stroke:#000000; stroke-width:39.3701; stroke-opacity:1; 
stroke-linecap:round; stroke-linejoin:round;">
</g>
<g style="fill:#000000; fill-opacity:1.0; 
stroke:#000000; stroke-width:0; stroke-opacity:1; 
stroke-linecap:round; stroke-linejoin:round;">
<circle cx="47300" cy="20600" r="68.8976" /> 
</g>
<g style="fill:#000000; fill-opacity:1.0; 
stroke:#000000; stroke-width:39.3701; stroke-opacity:1; 
stroke-linecap:round; stroke-linejoin:round;">
</g>
<g style="fill:#000000; fill-opacity:1.0; 
stroke:#000000; stroke-width:0; stroke-opacity:1; 
stroke-linecap:round; stroke-linejoin:round;">
<circle cx="47300" cy="19615.7" r="68.8976" /> 
</g>
<g style="fill:#000000; fill-opacity:1.0; 
stroke:#000000; stroke-width:39.3701; stroke-opacity:1; 
stroke-linecap:round; stroke-linejoin:round;">
</g>
<g style="fill:#000000; fill-opacity:1.0; 
stroke:#000000; stroke-width:0; stroke-opacity:1; 
stroke-linecap:round; stroke-linejoin:round;">
<circle cx="43900" cy="15500" r="68.8976" /> 
</g>
<g style="fill:#000000; fill-opacity:1.0; 
stroke:#000000; stroke-width:39.3701; stroke-opacity:1; 
stroke-linecap:round; stroke-linejoin:round;">
</g>
<g style="fill:#000000; fill-opacity:1.0; 
stroke:#000000; stroke-width:0; stroke-opacity:1; 
stroke-linecap:round; stroke-linejoin:round;">
<circle cx="44687.4" cy="15500" r="68.8976" /> 
</g>
<g style="fill:#000000; fill-opacity:1.0; 
stroke:#000000; stroke-width:39.3701; stroke-opacity:1; 
stroke-linecap:round; stroke-linejoin:round;">
</g>
<g style="fill:#000000; fill-opacity:1.0; 
stroke:#000000; stroke-width:0; stroke-opacity:1; 
stroke-linecap:round; stroke-linejoin:round;">
<circle cx="49700" cy="26500" r="68.8976" /> 
</g>
<g style="fill:#000000; fill-opacity:1.0; 
stroke:#000000; stroke-width:39.3701; stroke-opacity:1; 
stroke-linecap:round; stroke-linejoin:round;">
</g>
<g style="fill:#000000; fill-opacity:1.0; 
stroke:#000000; stroke-width:0; stroke-opacity:1; 
stroke-linecap:round; stroke-linejoin:round;">
<circle cx="49700" cy="28500" r="68.8976" /> 
</g>
<g style="fill:#000000; fill-opacity:1.0; 
stroke:#000000; stroke-width:39.3701; stroke-opacity:1; 
stroke-linecap:round; stroke-linejoin:round;">
</g>
<g style="fill:#000000; fill-opacity:1.0; 
stroke:#000000; stroke-width:0; stroke-opacity:1; 
stroke-linecap:round; stroke-linejoin:round;">
<circle cx="42500" cy="21600" r="68.8976" /> 
</g>
<g style="fill:#000000; fill-opacity:1.0; 
stroke:#000000; stroke-width:39.3701; stroke-opacity:1; 
stroke-linecap:round; stroke-linejoin:round;">
</g>
<g style="fill:#000000; fill-opacity:1.0; 
stroke:#000000; stroke-width:0; stroke-opacity:1; 
stroke-linecap:round; stroke-linejoin:round;">
<circle cx="42500" cy="23521.3" r="68.8976" /> 
</g>
<g style="fill:#000000; fill-opacity:1.0; 
stroke:#000000; stroke-width:39.3701; stroke-opacity:1; 
stroke-linecap:round; stroke-linejoin:round;">
</g>
<g style="fill:#000000; fill-opacity:1.0; 
stroke:#000000; stroke-width:0; stroke-opacity:1; 
stroke-linecap:round; stroke-linejoin:round;">
<circle cx="54595" cy="22650" r="68.8976" /> 
</g>
<g style="fill:#000000; fill-opacity:1.0; 
stroke:#000000; stroke-width:39.3701; stroke-opacity:1; 
stroke-linecap:round; stroke-linejoin:round;">
</g>
<g style="fill:#000000; fill-opacity:1.0; 
stroke:#000000; stroke-width:0; stroke-opacity:1; 
stroke-linecap:round; stroke-linejoin:round;">
<circle cx="54595" cy="23650" r="68.8976" /> 
</g>
<g style="fill:#000000; fill-opacity:1.0; 
stroke:#000000; stroke-width:39.3701; stroke-opacity:1; 
stroke-linecap:round; stroke-linejoin:round;">
</g>
<g style="fill:#000000; fill-opacity:1.0; 
stroke:#000000; stroke-width:0; stroke-opacity:1; 
stroke-linecap:round; stroke-linejoin:round;">
<circle cx="42350" cy="17650" r="68.8976" /> 
</g>
<g style="fill:#000000; fill-opacity:1.0; 
stroke:#000000; stroke-width:39.3701; stroke-opacity:1; 
stroke-linecap:round; stroke-linejoin:round;">
</g>
<g style="fill:#000000; fill-opacity:1.0; 
stroke:#000000; stroke-width:0; stroke-opacity:1; 
stroke-linecap:round; stroke-linejoin:round;">
<circle cx="42350" cy="16650" r="68.8976" /> 
</g>
<g style="fill:#000000; fill-opacity:1.0; 
stroke:#000000; stroke-width:39.3701; stroke-opacity:1; 
stroke-linecap:round; stroke-linejoin:round;">
</g>
<g style="fill:#000000; fill-opacity:1.0; 
stroke:#000000; stroke-width:0; stroke-opacity:1; 
stroke-linecap:round; stroke-linejoin:round;">
<circle cx="54600" cy="12700" r="68.8976" /> 
</g>
<g style="fill:#000000; fill-opacity:1.0; 
stroke:#000000; stroke-width:39.3701; stroke-opacity:1; 
stroke-linecap:round; stroke-linejoin:round;">
</g>
<g style="fill:#000000; fill-opacity:1.0; 
stroke:#000000; stroke-width:0; stroke-opacity:1; 
stroke-linecap:round; stroke-linejoin:round;">
<circle cx="54600" cy="13700" r="68.8976" /> 
</g>
<g style="fill:#000000; fill-opacity:1.0; 
stroke:#000000; stroke-width:39.3701; stroke-opacity:1; 
stroke-linecap:round; stroke-linejoin:round;">
</g>
<g style="fill:#000000; fill-opacity:1.0; 
stroke:#000000; stroke-width:0; stroke-opacity:1; 
stroke-linecap:round; stroke-linejoin:round;">
<circle cx="54600" cy="14700" r="68.8976" /> 
</g>
<g style="fill:#000000; fill-opacity:1.0; 
stroke:#000000; stroke-width:39.3701; stroke-opacity:1; 
stroke-linecap:round; stroke-linejoin:round;">
</g>
<g style="fill:#000000; fill-opacity:1.0; 
stroke:#000000; stroke-width:0; stroke-opacity:1; 
stroke-linecap:round; stroke-linejoin:round;">
<circle cx="54600" cy="15700" r="68.8976" /> 
</g>
<g style="fill:#000000; fill-opacity:1.0; 
stroke:#000000; stroke-width:39.3701; stroke-opacity:1; 
stroke-linecap:round; stroke-linejoin:round;">
</g>
<g style="fill:#000000; fill-opacity:1.0; 
stroke:#000000; stroke-width:0; stroke-opacity:1; 
stroke-linecap:round; stroke-linejoin:round;">
<circle cx="54600" cy="17650" r="68.8976" /> 
</g>
<g style="fill:#000000; fill-opacity:1.0; 
stroke:#000000; stroke-width:39.3701; stroke-opacity:1; 
stroke-linecap:round; stroke-linejoin:round;">
</g>
<g style="fill:#000000; fill-opacity:1.0; 
stroke:#000000; stroke-width:0; stroke-opacity:1; 
stroke-linecap:round; stroke-linejoin:round;">
<circle cx="54600" cy="18650" r="68.8976" /> 
</g>
<g style="fill:#000000; fill-opacity:1.0; 
stroke:#000000; stroke-width:39.3701; stroke-opacity:1; 
stroke-linecap:round; stroke-linejoin:round;">
</g>
<g style="fill:#000000; fill-opacity:1.0; 
stroke:#000000; stroke-width:0; stroke-opacity:1; 
stroke-linecap:round; stroke-linejoin:round;">
<circle cx="54600" cy="19650" r="68.8976" /> 
</g>
<g style="fill:#000000; fill-opacity:1.0; 
stroke:#000000; stroke-width:39.3701; stroke-opacity:1; 
stroke-linecap:round; stroke-linejoin:round;">
</g>
<g style="fill:#000000; fill-opacity:1.0; 
stroke:#000000; stroke-width:0; stroke-opacity:1; 
stroke-linecap:round; stroke-linejoin:round;">
<circle cx="54600" cy="20650" r="68.8976" /> 
</g>
<g style="fill:#000000; fill-opacity:1.0; 
stroke:#000000; stroke-width:39.3701; stroke-opacity:1; 
stroke-linecap:round; stroke-linejoin:round;">
</g>
<g style="fill:#000000; fill-opacity:1.0; 
stroke:#000000; stroke-width:0; stroke-opacity:1; 
stroke-linecap:round; stroke-linejoin:round;">
<circle cx="41940" cy="28680" r="68.8976" /> 
</g>
<g style="fill:#000000; fill-opacity:1.0; 
stroke:#000000; stroke-width:39.3701; stroke-opacity:1; 
stroke-linecap:round; stroke-linejoin:round;">
</g>
<g style="fill:#000000; fill-opacity:1.0; 
stroke:#000000; stroke-width:0; stroke-opacity:1; 
stroke-linecap:round; stroke-linejoin:round;">
<circle cx="42940" cy="28680" r="68.8976" /> 
</g>
<g style="fill:#000000; fill-opacity:1.0; 
stroke:#000000; stroke-width:39.3701; stroke-opacity:1; 
stroke-linecap:round; stroke-linejoin:round;">
</g>
<g style="fill:#FFFFFF; fill-opacity:1.0; 
stroke:#FFFFFF; stroke-width:39.3701; stroke-opacity:1; 
stroke-linecap:round; stroke-linejoin:round;">
</g> 
</svg>
