<?xml version="1.0" standalone="no"?>
 <!DOCTYPE svg PUBLIC "-//W3C//DTD SVG 1.1//EN" 
 "http://www.w3.org/Graphics/SVG/1.1/DTD/svg11.dtd"> 
<svg xmlns="http://www.w3.org/2000/svg" version="1.1" 
    width="29.7002cm" height="21.0007cm" viewBox="0 0 116930 82680 ">
<title>SVG Picture created as placa-B.Cu.svg date 2018/09/26 09:49:54 </title>
  <desc>Picture generated by PCBNEW </desc>
<g style="fill:#000000; fill-opacity:1;stroke:#000000; stroke-opacity:1;
stroke-linecap:round; stroke-linejoin:round; "
 transform="translate(0 0) scale(1 1)">
</g>
<g style="fill:#000000; fill-opacity:0.0; 
stroke:#000000; stroke-width:-0.000393701; stroke-opacity:1; 
stroke-linecap:round; stroke-linejoin:round;">
</g>
<g style="fill:#000000; fill-opacity:1.0; 
stroke:#000000; stroke-width:39.3701; stroke-opacity:1; 
stroke-linecap:round; stroke-linejoin:round;">
<rect x="38802" y="8701.97" width="18996.1" height="41496.1" rx="0" />
</g>
<g style="fill:#FFFFFF; fill-opacity:1.0; 
stroke:#FFFFFF; stroke-width:39.3701; stroke-opacity:1; 
stroke-linecap:round; stroke-linejoin:round;">
</g>
<g style="fill:#FFFFFF; fill-opacity:0.0; 
stroke:#FFFFFF; stroke-width:39.3701; stroke-opacity:1; 
stroke-linecap:round; stroke-linejoin:round;">
</g>
<g style="fill:#FFFFFF; fill-opacity:0.0; 
stroke:#FFFFFF; stroke-width:118.11; stroke-opacity:1; 
stroke-linecap:round; stroke-linejoin:round;">
<path d="M55049 28573
L54909 28967
L54768 28573
" />
<path d="M53784 28967
L54121 28967
" />
<path d="M53953 28967
L53953 28376
L54009 28460
L54065 28517
L54121 28545
" />
<path d="M53531 28910
L53503 28939
L53531 28967
L53559 28939
L53531 28910
L53531 28967
" />
<path d="M53137 28376
L53081 28376
L53025 28404
L52996 28432
L52968 28489
L52940 28601
L52940 28742
L52968 28854
L52996 28910
L53025 28939
L53081 28967
L53137 28967
L53193 28939
L53221 28910
L53250 28854
L53278 28742
L53278 28601
L53250 28489
L53221 28432
L53193 28404
L53137 28376
" />
<path d="M52378 28967
L52715 28967
" />
<path d="M52547 28967
L52547 28376
L52603 28460
L52659 28517
L52715 28545
" />
</g>
<g style="fill:#FFFFFF; fill-opacity:1.0; 
stroke:#FFFFFF; stroke-width:3.93701; stroke-opacity:1; 
stroke-linecap:round; stroke-linejoin:round;">
<polyline style="fill-rule:evenodd;"
points="50925,46291
48398,47795
48398,46291
50925,46291
" /> 
<polyline style="fill-rule:evenodd;"
points="47413,47248
48275,47803
48275,46295
45775,46291
47413,47248
" /> 
<polyline style="fill-rule:evenodd;"
points="50976,46157
51996,45567
45193,45555
46220,46146
50976,46157
" /> 
<polyline style="fill-rule:evenodd;"
points="53457,44740
54476,44150
42783,44157
43811,44748
53457,44740
" /> 
<polyline style="fill-rule:evenodd;"
points="51716,45445
52716,44854
43531,44858
44504,45445
51716,45445
" /> 
<polyline style="fill-rule:evenodd;"
points="41803,43827
41803,44024
41807,44027
42004,43909
42000,43827
41803,43827
" /> 
<polyline style="fill-rule:evenodd;"
points="42000,43909
41807,44027
47571,47335
47689,47177
42000,43909
" /> 
<polyline style="fill-rule:evenodd;"
points="54575,44024
54772,44024
49181,47331
49063,47134
54575,44024
" /> 
<polyline style="fill-rule:evenodd;"
points="54579,43323
54579,42732
42122,42732
42122,43323
54579,43323
" /> 
<polyline style="fill-rule:evenodd;"
points="54579,41905
54579,41315
42122,41315
42122,41905
54579,41905
" /> 
<polyline style="fill-rule:evenodd;"
points="54579,40488
54579,39898
42122,39898
42122,40488
54579,40488
" /> 
<polyline style="fill-rule:evenodd;"
points="54579,39067
54579,38476
42122,38476
42122,39067
54579,39067
" /> 
<polyline style="fill-rule:evenodd;"
points="54579,37650
54579,37059
42122,37059
42122,37650
54579,37650
" /> 
<polyline style="fill-rule:evenodd;"
points="54579,36232
54579,35642
42122,35642
42122,36232
54579,36232
" /> 
<polyline style="fill-rule:evenodd;"
points="54579,34815
54579,34224
42122,34224
42122,34815
54579,34815
" /> 
<polyline style="fill-rule:evenodd;"
points="54579,33398
54579,32807
42122,32807
42122,33398
54579,33398
" /> 
<polyline style="fill-rule:evenodd;"
points="54579,31980
54579,31390
42122,31390
42122,31980
54579,31980
" /> 
<polyline style="fill-rule:evenodd;"
points="54327,44024
54327,43433
42000,43437
42000,44027
54327,44024
" /> 
<polyline style="fill-rule:evenodd;"
points="54461,42606
54461,42016
42000,42020
42000,42610
54461,42606
" /> 
<polyline style="fill-rule:evenodd;"
points="54457,41189
54457,40598
42000,40602
42000,41193
54457,41189
" /> 
<polyline style="fill-rule:evenodd;"
points="54461,39775
54461,39185
42000,39185
42000,39775
54461,39775
" /> 
<polyline style="fill-rule:evenodd;"
points="54461,38358
54461,37768
42000,37768
42000,38358
54461,38358
" /> 
<polyline style="fill-rule:evenodd;"
points="54461,36941
54461,36350
42000,36350
42000,36941
54461,36941
" /> 
<polyline style="fill-rule:evenodd;"
points="54461,35524
54461,34933
42000,34933
42000,35524
54461,35524
" /> 
<polyline style="fill-rule:evenodd;"
points="54461,34106
54461,33516
42000,33516
42000,34106
54461,34106
" /> 
<polyline style="fill-rule:evenodd;"
points="54461,32685
54461,32094
42000,32098
42000,32689
54461,32685
" /> 
<polyline style="fill-rule:evenodd;"
points="42000,43827
42000,30563
41803,30563
41803,43827
42000,43827
" /> 
<polyline style="fill-rule:evenodd;"
points="54775,44031
54775,30563
54579,30563
54579,44031
54775,44031
" /> 
<polyline style="fill-rule:evenodd;"
points="54775,30563
54775,29972
49441,29972
49441,30563
54775,30563
" /> 
<polyline style="fill-rule:evenodd;"
points="47098,30563
47098,29972
41803,29972
41803,30563
47098,30563
" /> 
</g>
<g style="fill:#FFFFFF; fill-opacity:0.0; 
stroke:#FFFFFF; stroke-width:150; stroke-opacity:1; 
stroke-linecap:round; stroke-linejoin:round;">
<circle cx="49100" cy="15000" r="591" /> 
<path d="M49100 14409
L49100 15591
" />
<path d="M48509 15000
L49691 15000
" />
</g>
<g style="fill:#FFFFFF; fill-opacity:1.0; 
stroke:#FFFFFF; stroke-width:0; stroke-opacity:1; 
stroke-linecap:round; stroke-linejoin:round;">
<circle cx="49461" cy="30268.1" r="300" /> 
</g>
<g style="fill:#FFFFFF; fill-opacity:1.0; 
stroke:#FFFFFF; stroke-width:39.3701; stroke-opacity:1; 
stroke-linecap:round; stroke-linejoin:round;">
</g>
<g style="fill:#FFFFFF; fill-opacity:1.0; 
stroke:#FFFFFF; stroke-width:0; stroke-opacity:1; 
stroke-linecap:round; stroke-linejoin:round;">
<circle cx="47098.8" cy="30268.1" r="300" /> 
</g>
<g style="fill:#FFFFFF; fill-opacity:1.0; 
stroke:#FFFFFF; stroke-width:39.3701; stroke-opacity:1; 
stroke-linecap:round; stroke-linejoin:round;">
</g>
<g style="fill:#FFFFFF; fill-opacity:1.0; 
stroke:#FFFFFF; stroke-width:0; stroke-opacity:1; 
stroke-linecap:round; stroke-linejoin:round;">
<circle cx="46510" cy="12040" r="300" /> 
</g>
<g style="fill:#FFFFFF; fill-opacity:1.0; 
stroke:#FFFFFF; stroke-width:39.3701; stroke-opacity:1; 
stroke-linecap:round; stroke-linejoin:round;">
</g>
<g style="fill:#FFFFFF; fill-opacity:1.0; 
stroke:#FFFFFF; stroke-width:0; stroke-opacity:1; 
stroke-linecap:round; stroke-linejoin:round;">
<circle cx="46600" cy="22200" r="216.535" /> 
</g>
<g style="fill:#FFFFFF; fill-opacity:1.0; 
stroke:#FFFFFF; stroke-width:39.3701; stroke-opacity:1; 
stroke-linecap:round; stroke-linejoin:round;">
</g>
<g style="fill:#FFFFFF; fill-opacity:1.0; 
stroke:#FFFFFF; stroke-width:0; stroke-opacity:1; 
stroke-linecap:round; stroke-linejoin:round;">
<circle cx="46600" cy="21609.4" r="216.535" /> 
</g>
<g style="fill:#FFFFFF; fill-opacity:1.0; 
stroke:#FFFFFF; stroke-width:39.3701; stroke-opacity:1; 
stroke-linecap:round; stroke-linejoin:round;">
</g>
<g style="fill:#FFFFFF; fill-opacity:1.0; 
stroke:#FFFFFF; stroke-width:0; stroke-opacity:1; 
stroke-linecap:round; stroke-linejoin:round;">
<circle cx="48400" cy="26352" r="275.591" /> 
</g>
<g style="fill:#FFFFFF; fill-opacity:1.0; 
stroke:#FFFFFF; stroke-width:39.3701; stroke-opacity:1; 
stroke-linecap:round; stroke-linejoin:round;">
</g>
<g style="fill:#FFFFFF; fill-opacity:1.0; 
stroke:#FFFFFF; stroke-width:551.181; stroke-opacity:1; 
stroke-linecap:round; stroke-linejoin:round;">
</g>
<g style="fill:#FFFFFF; fill-opacity:0.0; 
stroke:#FFFFFF; stroke-width:551.181; stroke-opacity:1; 
stroke-linecap:round; stroke-linejoin:round;">
<path d="M48400 25603
L48400 25603
" />
</g>
<g style="fill:#FFFFFF; fill-opacity:0.0; 
stroke:#FFFFFF; stroke-width:0; stroke-opacity:1; 
stroke-linecap:round; stroke-linejoin:round;">
</g>
<g style="fill:#FFFFFF; fill-opacity:1.0; 
stroke:#FFFFFF; stroke-width:0; stroke-opacity:1; 
stroke-linecap:round; stroke-linejoin:round;">
<polyline style="fill-rule:evenodd;"
points="47614,20914
46985,20914
46985,20285
47614,20285
47614,20914
" /> 
<circle cx="47300" cy="19615.7" r="314.961" /> 
</g>
<g style="fill:#FFFFFF; fill-opacity:1.0; 
stroke:#FFFFFF; stroke-width:39.3701; stroke-opacity:1; 
stroke-linecap:round; stroke-linejoin:round;">
</g>
<g style="fill:#FFFFFF; fill-opacity:1.0; 
stroke:#FFFFFF; stroke-width:0; stroke-opacity:1; 
stroke-linecap:round; stroke-linejoin:round;">
<polyline style="fill-rule:evenodd;"
points="43585,15814
43585,15185
44214,15185
44214,15814
43585,15814
" /> 
<circle cx="44687.4" cy="15500" r="314.961" /> 
</g>
<g style="fill:#FFFFFF; fill-opacity:1.0; 
stroke:#FFFFFF; stroke-width:39.3701; stroke-opacity:1; 
stroke-linecap:round; stroke-linejoin:round;">
</g>
<g style="fill:#FFFFFF; fill-opacity:1.0; 
stroke:#FFFFFF; stroke-width:0; stroke-opacity:1; 
stroke-linecap:round; stroke-linejoin:round;">
<polyline style="fill-rule:evenodd;"
points="54934,20865
54934,21534
54265,21534
54265,20865
54934,20865
" /> 
</g>
<g style="fill:#FFFFFF; fill-opacity:1.0; 
stroke:#FFFFFF; stroke-width:669.291; stroke-opacity:1; 
stroke-linecap:round; stroke-linejoin:round;">
</g>
<g style="fill:#FFFFFF; fill-opacity:0.0; 
stroke:#FFFFFF; stroke-width:669.291; stroke-opacity:1; 
stroke-linecap:round; stroke-linejoin:round;">
<path d="M54600 20200
L54600 20200
" />
<path d="M54600 19200
L54600 19200
" />
<path d="M54600 18200
L54600 18200
" />
<path d="M54600 17200
L54600 17200
" />
</g>
<g style="fill:#FFFFFF; fill-opacity:1.0; 
stroke:#FFFFFF; stroke-width:0; stroke-opacity:1; 
stroke-linecap:round; stroke-linejoin:round;">
<circle cx="49700" cy="26500" r="314.961" /> 
</g>
<g style="fill:#FFFFFF; fill-opacity:1.0; 
stroke:#FFFFFF; stroke-width:39.3701; stroke-opacity:1; 
stroke-linecap:round; stroke-linejoin:round;">
</g>
<g style="fill:#FFFFFF; fill-opacity:1.0; 
stroke:#FFFFFF; stroke-width:0; stroke-opacity:1; 
stroke-linecap:round; stroke-linejoin:round;">
<circle cx="49700" cy="28500" r="314.961" /> 
</g>
<g style="fill:#FFFFFF; fill-opacity:1.0; 
stroke:#FFFFFF; stroke-width:39.3701; stroke-opacity:1; 
stroke-linecap:round; stroke-linejoin:round;">
</g>
<g style="fill:#FFFFFF; fill-opacity:1.0; 
stroke:#FFFFFF; stroke-width:0; stroke-opacity:1; 
stroke-linecap:round; stroke-linejoin:round;">
<circle cx="44868.5" cy="28000" r="300" /> 
</g>
<g style="fill:#FFFFFF; fill-opacity:1.0; 
stroke:#FFFFFF; stroke-width:39.3701; stroke-opacity:1; 
stroke-linecap:round; stroke-linejoin:round;">
</g>
<g style="fill:#FFFFFF; fill-opacity:1.0; 
stroke:#FFFFFF; stroke-width:0; stroke-opacity:1; 
stroke-linecap:round; stroke-linejoin:round;">
<circle cx="42900" cy="28000" r="300" /> 
</g>
<g style="fill:#FFFFFF; fill-opacity:1.0; 
stroke:#FFFFFF; stroke-width:39.3701; stroke-opacity:1; 
stroke-linecap:round; stroke-linejoin:round;">
</g>
<g style="fill:#FFFFFF; fill-opacity:1.0; 
stroke:#FFFFFF; stroke-width:0; stroke-opacity:1; 
stroke-linecap:round; stroke-linejoin:round;">
<circle cx="42500" cy="21600" r="295.276" /> 
</g>
<g style="fill:#FFFFFF; fill-opacity:1.0; 
stroke:#FFFFFF; stroke-width:39.3701; stroke-opacity:1; 
stroke-linecap:round; stroke-linejoin:round;">
</g>
<g style="fill:#FFFFFF; fill-opacity:1.0; 
stroke:#FFFFFF; stroke-width:0; stroke-opacity:1; 
stroke-linecap:round; stroke-linejoin:round;">
<circle cx="42500" cy="23521.3" r="295.276" /> 
</g>
<g style="fill:#FFFFFF; fill-opacity:1.0; 
stroke:#FFFFFF; stroke-width:39.3701; stroke-opacity:1; 
stroke-linecap:round; stroke-linejoin:round;">
</g>
<g style="fill:#FFFFFF; fill-opacity:1.0; 
stroke:#FFFFFF; stroke-width:669.291; stroke-opacity:1; 
stroke-linecap:round; stroke-linejoin:round;">
</g>
<g style="fill:#FFFFFF; fill-opacity:0.0; 
stroke:#FFFFFF; stroke-width:669.291; stroke-opacity:1; 
stroke-linecap:round; stroke-linejoin:round;">
<path d="M54600 23500
L54600 23500
" />
</g>
<g style="fill:#FFFFFF; fill-opacity:0.0; 
stroke:#FFFFFF; stroke-width:0; stroke-opacity:1; 
stroke-linecap:round; stroke-linejoin:round;">
</g>
<g style="fill:#FFFFFF; fill-opacity:1.0; 
stroke:#FFFFFF; stroke-width:0; stroke-opacity:1; 
stroke-linecap:round; stroke-linejoin:round;">
<polyline style="fill-rule:evenodd;"
points="54934,24165
54934,24834
54265,24834
54265,24165
54934,24165
" /> 
<polyline style="fill-rule:evenodd;"
points="42684,17315
42684,17984
42015,17984
42015,17315
42684,17315
" /> 
</g>
<g style="fill:#FFFFFF; fill-opacity:1.0; 
stroke:#FFFFFF; stroke-width:669.291; stroke-opacity:1; 
stroke-linecap:round; stroke-linejoin:round;">
</g>
<g style="fill:#FFFFFF; fill-opacity:0.0; 
stroke:#FFFFFF; stroke-width:669.291; stroke-opacity:1; 
stroke-linecap:round; stroke-linejoin:round;">
<path d="M42350 16650
L42350 16650
" />
</g>
<g style="fill:#FFFFFF; fill-opacity:0.0; 
stroke:#FFFFFF; stroke-width:0; stroke-opacity:1; 
stroke-linecap:round; stroke-linejoin:round;">
</g>
<g style="fill:#FFFFFF; fill-opacity:1.0; 
stroke:#FFFFFF; stroke-width:0; stroke-opacity:1; 
stroke-linecap:round; stroke-linejoin:round;">
<polyline style="fill-rule:evenodd;"
points="54265,13034
54265,12365
54934,12365
54934,13034
54265,13034
" /> 
</g>
<g style="fill:#FFFFFF; fill-opacity:1.0; 
stroke:#FFFFFF; stroke-width:669.291; stroke-opacity:1; 
stroke-linecap:round; stroke-linejoin:round;">
</g>
<g style="fill:#FFFFFF; fill-opacity:0.0; 
stroke:#FFFFFF; stroke-width:669.291; stroke-opacity:1; 
stroke-linecap:round; stroke-linejoin:round;">
<path d="M54600 13700
L54600 13700
" />
<path d="M54600 14700
L54600 14700
" />
<path d="M54600 15700
L54600 15700
" />
</g>
<g style="fill:#FFFFFF; fill-opacity:1.0; 
stroke:#FFFFFF; stroke-width:0; stroke-opacity:1; 
stroke-linecap:round; stroke-linejoin:round;">
<circle cx="49750" cy="25500" r="216.535" /> 
</g>
<g style="fill:#FFFFFF; fill-opacity:1.0; 
stroke:#FFFFFF; stroke-width:39.3701; stroke-opacity:1; 
stroke-linecap:round; stroke-linejoin:round;">
</g>
<g style="fill:#FFFFFF; fill-opacity:1.0; 
stroke:#FFFFFF; stroke-width:0; stroke-opacity:1; 
stroke-linecap:round; stroke-linejoin:round;">
<circle cx="54550" cy="25650" r="216.535" /> 
</g>
<g style="fill:#FFFFFF; fill-opacity:1.0; 
stroke:#FFFFFF; stroke-width:39.3701; stroke-opacity:1; 
stroke-linecap:round; stroke-linejoin:round;">
</g>
<g style="fill:#FFFFFF; fill-opacity:1.0; 
stroke:#FFFFFF; stroke-width:0; stroke-opacity:1; 
stroke-linecap:round; stroke-linejoin:round;">
<circle cx="54550" cy="22500" r="216.535" /> 
</g>
<g style="fill:#FFFFFF; fill-opacity:1.0; 
stroke:#FFFFFF; stroke-width:39.3701; stroke-opacity:1; 
stroke-linecap:round; stroke-linejoin:round;">
</g>
<g style="fill:#FFFFFF; fill-opacity:1.0; 
stroke:#FFFFFF; stroke-width:0; stroke-opacity:1; 
stroke-linecap:round; stroke-linejoin:round;">
<circle cx="42850" cy="12800" r="216.535" /> 
</g>
<g style="fill:#FFFFFF; fill-opacity:1.0; 
stroke:#FFFFFF; stroke-width:39.3701; stroke-opacity:1; 
stroke-linecap:round; stroke-linejoin:round;">
</g>
<g style="fill:#FFFFFF; fill-opacity:1.0; 
stroke:#FFFFFF; stroke-width:0; stroke-opacity:1; 
stroke-linecap:round; stroke-linejoin:round;">
<circle cx="41800" cy="28550" r="216.535" /> 
</g>
<g style="fill:#FFFFFF; fill-opacity:1.0; 
stroke:#FFFFFF; stroke-width:39.3701; stroke-opacity:1; 
stroke-linecap:round; stroke-linejoin:round;">
</g>
<g style="fill:#FFFFFF; fill-opacity:1.0; 
stroke:#FFFFFF; stroke-width:0; stroke-opacity:1; 
stroke-linecap:round; stroke-linejoin:round;">
<circle cx="52150" cy="25050" r="216.535" /> 
</g>
<g style="fill:#FFFFFF; fill-opacity:1.0; 
stroke:#FFFFFF; stroke-width:39.3701; stroke-opacity:1; 
stroke-linecap:round; stroke-linejoin:round;">
</g>
<g style="fill:#FFFFFF; fill-opacity:1.0; 
stroke:#FFFFFF; stroke-width:0; stroke-opacity:1; 
stroke-linecap:round; stroke-linejoin:round;">
<circle cx="48837" cy="20168.8" r="216.535" /> 
</g>
<g style="fill:#FFFFFF; fill-opacity:1.0; 
stroke:#FFFFFF; stroke-width:39.3701; stroke-opacity:1; 
stroke-linecap:round; stroke-linejoin:round;">
</g>
<g style="fill:#FFFFFF; fill-opacity:1.0; 
stroke:#FFFFFF; stroke-width:0; stroke-opacity:1; 
stroke-linecap:round; stroke-linejoin:round;">
<circle cx="46700" cy="26300" r="216.535" /> 
</g>
<g style="fill:#FFFFFF; fill-opacity:1.0; 
stroke:#FFFFFF; stroke-width:39.3701; stroke-opacity:1; 
stroke-linecap:round; stroke-linejoin:round;">
</g>
<g style="fill:#FFFFFF; fill-opacity:1.0; 
stroke:#FFFFFF; stroke-width:0; stroke-opacity:1; 
stroke-linecap:round; stroke-linejoin:round;">
<circle cx="46500" cy="23500" r="216.535" /> 
</g>
<g style="fill:#FFFFFF; fill-opacity:1.0; 
stroke:#FFFFFF; stroke-width:39.3701; stroke-opacity:1; 
stroke-linecap:round; stroke-linejoin:round;">
</g>
<g style="fill:#FFFFFF; fill-opacity:1.0; 
stroke:#FFFFFF; stroke-width:0; stroke-opacity:1; 
stroke-linecap:round; stroke-linejoin:round;">
<circle cx="53000" cy="21200" r="275.591" /> 
</g>
<g style="fill:#FFFFFF; fill-opacity:1.0; 
stroke:#FFFFFF; stroke-width:39.3701; stroke-opacity:1; 
stroke-linecap:round; stroke-linejoin:round;">
</g>
<g style="fill:#FFFFFF; fill-opacity:1.0; 
stroke:#FFFFFF; stroke-width:0; stroke-opacity:1; 
stroke-linecap:round; stroke-linejoin:round;">
<circle cx="48400" cy="28500" r="275.591" /> 
</g>
<g style="fill:#FFFFFF; fill-opacity:1.0; 
stroke:#FFFFFF; stroke-width:39.3701; stroke-opacity:1; 
stroke-linecap:round; stroke-linejoin:round;">
</g>
<g style="fill:#FFFFFF; fill-opacity:1.0; 
stroke:#FFFFFF; stroke-width:0; stroke-opacity:1; 
stroke-linecap:round; stroke-linejoin:round;">
<circle cx="45400" cy="20600" r="275.591" /> 
</g>
<g style="fill:#FFFFFF; fill-opacity:1.0; 
stroke:#FFFFFF; stroke-width:39.3701; stroke-opacity:1; 
stroke-linecap:round; stroke-linejoin:round;">
</g>
<g style="fill:#FFFFFF; fill-opacity:1.0; 
stroke:#FFFFFF; stroke-width:0; stroke-opacity:1; 
stroke-linecap:round; stroke-linejoin:round;">
<circle cx="45600" cy="18900" r="275.591" /> 
</g>
<g style="fill:#FFFFFF; fill-opacity:1.0; 
stroke:#FFFFFF; stroke-width:39.3701; stroke-opacity:1; 
stroke-linecap:round; stroke-linejoin:round;">
</g>
<g style="fill:#FFFFFF; fill-opacity:1.0; 
stroke:#FFFFFF; stroke-width:200; stroke-opacity:1; 
stroke-linecap:round; stroke-linejoin:round;">
</g>
<g style="fill:#FFFFFF; fill-opacity:0.0; 
stroke:#FFFFFF; stroke-width:200; stroke-opacity:1; 
stroke-linecap:round; stroke-linejoin:round;">
<path d="M49461 30268
L49461 29438
" />
</g>
<g style="fill:#FFFFFF; fill-opacity:0.0; 
stroke:#FFFFFF; stroke-width:98.4252; stroke-opacity:1; 
stroke-linecap:round; stroke-linejoin:round;">
<path d="M46700 23500
L46500 23500
" />
</g>
<g style="fill:#FFFFFF; fill-opacity:0.0; 
stroke:#FFFFFF; stroke-width:200; stroke-opacity:1; 
stroke-linecap:round; stroke-linejoin:round;">
<path d="M54600 21200
L53000 21200
" />
<path d="M48400 28966
L47098 30268
" />
<path d="M48400 28500
L48400 28966
" />
</g>
<g style="fill:#FFFFFF; fill-opacity:0.0; 
stroke:#FFFFFF; stroke-width:120; stroke-opacity:1; 
stroke-linecap:round; stroke-linejoin:round;">
<path d="M45400 19099
L45600 18900
" />
<path d="M45400 20600
L45400 19099
" />
</g>
<g style="fill:#FFFFFF; fill-opacity:1.0; 
stroke:#FFFFFF; stroke-width:94.4882; stroke-opacity:1; 
stroke-linecap:round; stroke-linejoin:round;">
<polyline style="fill-rule:evenodd;"
points="55571,29652
48107,29601
48554,29154
48574,29141
48627,29061
48641,28990
48646,28966
48641,28943
48641,28848
48753,28736
48817,28583
48817,28416
48814,28409
49243,28409
49243,28590
49312,28758
49441,28887
49609,28956
49790,28956
49958,28887
50087,28758
50156,28590
50156,28409
50087,28241
49958,28112
49936,28103
52065,28103
52065,29390
55334,29390
55334,28103
52065,28103
49936,28103
49790,28043
49609,28043
49441,28112
49312,28241
49243,28409
48814,28409
48753,28263
48636,28146
48483,28082
48316,28082
48163,28146
48046,28263
47982,28416
47982,28583
48046,28736
48158,28848
48158,28866
47428,29597
40971,29553
40971,27912
42458,27912
42458,28087
42525,28250
42649,28374
42812,28441
42987,28441
43122,28386
44556,28386
44584,28480
44790,28552
45007,28540
45152,28480
45180,28386
44868,28074
44556,28386
43122,28386
43150,28374
43274,28250
43341,28087
43341,27921
44316,27921
44328,28139
44388,28283
44482,28311
44793,28000
44943,28000
45254,28311
45348,28283
45420,28078
45408,27860
45348,27716
45254,27688
44943,28000
44793,28000
44482,27688
44388,27716
44316,27921
43341,27921
43341,27912
43274,27749
43150,27625
43122,27613
44556,27613
44868,27925
45180,27613
45152,27519
44946,27447
44729,27459
44584,27519
44556,27613
43122,27613
42987,27558
42812,27558
42649,27625
42525,27749
42458,27912
40971,27912
40971,25603
47974,25603
48006,25766
48099,25904
48210,25978
48163,25998
48046,26115
47982,26268
47982,26434
48046,26588
48163,26705
48316,26769
48483,26769
48636,26705
48753,26588
48817,26434
48817,26409
49243,26409
49243,26590
49312,26758
49441,26887
49609,26956
49790,26956
49958,26887
50087,26758
50156,26590
50156,26409
50087,26241
49958,26112
49790,26043
49609,26043
49441,26112
49312,26241
49243,26409
48817,26409
48817,26268
48753,26115
48636,25998
48589,25978
48700,25904
48793,25766
48825,25603
48793,25441
48700,25303
48562,25210
48441,25186
48358,25186
48237,25210
48099,25303
48006,25441
47974,25603
40971,25603
40971,24165
54120,24165
54120,24834
54131,24889
54163,24936
54210,24968
54265,24979
54934,24979
54989,24968
55036,24936
55068,24889
55079,24834
55079,24165
55068,24110
55036,24063
54989,24031
54934,24020
54265,24020
54210,24031
54163,24063
54131,24110
54120,24165
40971,24165
40971,23434
42062,23434
42062,23608
42129,23768
42252,23891
42413,23958
42586,23958
42747,23891
42870,23768
42937,23608
42937,23500
54114,23500
54151,23685
54256,23843
54414,23948
54553,23976
54646,23976
54785,23948
54943,23843
55048,23685
55085,23500
55048,23314
54943,23156
54785,23051
54646,23023
54553,23023
54414,23051
54256,23156
54151,23314
54114,23500
42937,23500
42937,23434
42870,23273
42747,23150
42586,23084
42413,23084
42252,23150
42129,23273
42062,23434
40971,23434
40971,21513
42062,21513
42062,21686
42129,21847
42252,21970
42413,22037
42586,22037
42747,21970
42870,21847
42937,21686
42937,21538
46241,21538
46241,21680
46296,21812
46388,21904
46296,21997
46241,22128
46241,22271
46296,22402
46397,22503
46528,22558
46671,22558
46802,22503
46903,22402
46958,22271
46958,22128
46903,21997
46811,21904
46903,21812
46958,21680
46958,21538
46903,21406
46802,21305
46671,21251
46528,21251
46397,21305
46296,21406
46241,21538
42937,21538
42937,21513
42870,21352
42747,21229
42586,21162
42413,21162
42252,21229
42129,21352
42062,21513
40971,21513
40971,21116
52582,21116
52582,21283
52646,21436
52763,21553
52917,21617
53083,21617
53236,21553
53348,21441
54120,21441
54120,21534
54131,21589
54163,21636
54210,21668
54265,21679
54934,21679
54989,21668
55036,21636
55068,21589
55079,21534
55079,20865
55068,20810
55036,20763
54989,20731
54934,20720
54265,20720
54210,20731
54163,20763
54131,20810
54120,20865
54120,20958
53348,20958
53236,20846
53083,20782
52917,20782
52763,20846
52646,20963
52582,21116
40971,21116
40971,20516
44982,20516
44982,20683
45046,20836
45163,20953
45316,21017
45483,21017
45636,20953
45753,20836
45817,20683
45817,20516
45753,20363
45675,20285
46840,20285
46840,20914
46851,20970
46882,21017
46929,21048
46985,21059
47614,21059
47670,21048
47717,21017
47748,20970
47759,20914
47759,20285
47748,20229
47728,20200
54114,20200
54151,20385
54256,20543
54414,20648
54553,20676
54646,20676
54785,20648
54943,20543
55048,20385
55085,20200
55048,20014
54943,19856
54785,19751
54646,19723
54553,19723
54414,19751
54256,19856
54151,20014
54114,20200
47728,20200
47717,20182
47670,20151
47614,20140
47515,20140
47592,20108
47622,20012
47300,19690
46977,20012
47007,20108
47097,20140
46985,20140
46929,20151
46882,20182
46851,20229
46840,20285
45675,20285
45636,20246
45601,20231
45601,19533
46732,19533
46744,19757
46807,19908
46903,19938
47225,19615
47374,19615
47696,19938
47792,19908
47867,19697
47855,19474
47792,19322
47696,19293
47374,19615
47225,19615
46903,19293
46807,19322
46732,19533
45601,19533
45601,19317
45683,19317
45836,19253
45871,19218
46977,19218
47300,19541
47622,19218
47616,19200
54114,19200
54151,19385
54256,19543
54414,19648
54553,19676
54646,19676
54785,19648
54943,19543
55048,19385
55085,19200
55048,19014
54943,18856
54785,18751
54646,18723
54553,18723
54414,18751
54256,18856
54151,19014
54114,19200
47616,19200
47592,19122
47381,19048
47158,19060
47007,19122
46977,19218
45871,19218
45953,19136
46017,18983
46017,18816
45953,18663
45836,18546
45683,18482
45516,18482
45363,18546
45246,18663
45182,18816
45182,18983
45206,19039
45194,19099
45198,19119
45198,20231
45163,20246
45046,20363
44982,20516
40971,20516
40971,17764
41768,17764
41768,18033
41805,18124
41875,18194
41966,18231
42235,18231
42297,18170
42297,17702
42402,17702
42402,18170
42464,18231
42733,18231
42824,18194
42894,18124
42931,18033
42931,17764
42870,17702
42402,17702
42297,17702
41829,17702
41768,17764
40971,17764
40971,17266
41768,17266
41768,17535
41829,17597
42297,17597
42297,17589
42402,17589
42402,17597
42870,17597
42931,17535
42931,17342
54035,17342
54100,17497
54252,17666
54425,17749
54414,17751
54256,17856
54151,18014
54114,18200
54151,18385
54256,18543
54414,18648
54553,18676
54646,18676
54785,18648
54943,18543
55048,18385
55085,18200
55048,18014
54943,17856
54785,17751
54774,17749
54947,17666
55099,17497
55164,17342
55117,17252
54652,17252
54652,17260
54547,17260
54547,17252
54082,17252
54035,17342
42931,17342
42931,17266
42894,17175
42824,17105
42733,17068
42581,17068
42597,17057
54035,17057
54082,17147
54547,17147
54547,16682
54652,16682
54652,17147
55117,17147
55164,17057
55099,16902
54947,16733
54742,16635
54652,16682
54547,16682
54457,16635
54252,16733
54100,16902
54035,17057
42597,17057
42693,16993
42798,16835
42835,16650
42798,16464
42693,16306
42535,16201
42396,16173
42303,16173
42164,16201
42006,16306
41901,16464
41864,16650
41901,16835
42006,16993
42118,17068
41966,17068
41875,17105
41805,17175
41768,17266
40971,17266
40971,15185
43440,15185
43440,15814
43451,15870
43482,15917
43529,15948
43585,15959
44214,15959
44270,15948
44303,15925
44320,15941
44365,15896
44394,15992
44605,16067
44828,16055
44980,15992
45009,15896
44687,15574
44681,15580
44607,15505
44612,15500
44762,15500
45084,15822
45180,15792
45254,15581
45242,15358
45180,15207
45084,15177
44762,15500
44612,15500
44607,15494
44681,15419
44687,15425
45009,15103
44980,15007
44959,15000
48288,15000
48295,15038
48296,15140
48385,15392
48551,15603
48776,15748
49036,15813
49084,15808
49100,15811
49139,15804
49302,15789
49506,15700
54114,15700
54151,15885
54256,16043
54414,16148
54553,16176
54646,16176
54785,16148
54943,16043
55048,15885
55085,15700
55048,15514
54943,15356
54785,15251
54646,15223
54553,15223
54414,15251
54256,15356
54151,15514
54114,15700
49506,15700
49547,15681
49744,15499
49871,15264
49915,15000
49915,14987
49867,14723
49854,14700
54114,14700
54151,14885
54256,15043
54414,15148
54553,15176
54646,15176
54785,15148
54943,15043
55048,14885
55085,14700
55048,14514
54943,14356
54785,14251
54646,14223
54553,14223
54414,14251
54256,14356
54151,14514
54114,14700
49854,14700
49736,14490
49537,14311
49290,14206
49142,14196
49100,14188
49079,14192
49023,14188
48764,14256
48541,14405
48379,14618
48294,14872
48295,14964
48288,15000
44959,15000
44769,14932
44546,14944
44394,15007
44365,15103
44320,15058
44303,15074
44270,15051
44214,15040
43585,15040
43529,15051
43482,15082
43451,15129
43440,15185
40971,15185
40971,13700
54114,13700
54151,13885
54256,14043
54414,14148
54553,14176
54646,14176
54785,14148
54943,14043
55048,13885
55085,13700
55048,13514
54943,13356
54785,13251
54646,13223
54553,13223
54414,13251
54256,13356
54151,13514
54114,13700
40971,13700
40971,11952
46068,11952
46068,12127
46135,12290
46259,12414
46422,12481
46597,12481
46760,12414
46809,12365
54120,12365
54120,13034
54131,13089
54163,13136
54210,13168
54265,13179
54934,13179
54989,13168
55036,13136
55068,13089
55079,13034
55079,12365
55068,12310
55036,12263
54989,12231
54934,12220
54265,12220
54210,12231
54163,12263
54131,12310
54120,12365
46809,12365
46884,12290
46951,12127
46951,11952
46884,11789
46760,11665
46597,11598
46422,11598
46259,11665
46135,11789
46068,11952
40971,11952
40971,10970
55628,10872
55571,29652
" /> 
</g>
<g style="fill:#000000; fill-opacity:1.0; 
stroke:#000000; stroke-width:94.4882; stroke-opacity:1; 
stroke-linecap:round; stroke-linejoin:round;">
</g>
<g style="fill:#000000; fill-opacity:1.0; 
stroke:#000000; stroke-width:0; stroke-opacity:1; 
stroke-linecap:round; stroke-linejoin:round;">
<circle cx="49750" cy="25500" r="68.8976" /> 
</g>
<g style="fill:#000000; fill-opacity:1.0; 
stroke:#000000; stroke-width:39.3701; stroke-opacity:1; 
stroke-linecap:round; stroke-linejoin:round;">
</g>
<g style="fill:#000000; fill-opacity:1.0; 
stroke:#000000; stroke-width:0; stroke-opacity:1; 
stroke-linecap:round; stroke-linejoin:round;">
<circle cx="54550" cy="25650" r="68.8976" /> 
</g>
<g style="fill:#000000; fill-opacity:1.0; 
stroke:#000000; stroke-width:39.3701; stroke-opacity:1; 
stroke-linecap:round; stroke-linejoin:round;">
</g>
<g style="fill:#000000; fill-opacity:1.0; 
stroke:#000000; stroke-width:0; stroke-opacity:1; 
stroke-linecap:round; stroke-linejoin:round;">
<circle cx="54550" cy="22500" r="68.8976" /> 
</g>
<g style="fill:#000000; fill-opacity:1.0; 
stroke:#000000; stroke-width:39.3701; stroke-opacity:1; 
stroke-linecap:round; stroke-linejoin:round;">
</g>
<g style="fill:#000000; fill-opacity:1.0; 
stroke:#000000; stroke-width:0; stroke-opacity:1; 
stroke-linecap:round; stroke-linejoin:round;">
<circle cx="42850" cy="12800" r="68.8976" /> 
</g>
<g style="fill:#000000; fill-opacity:1.0; 
stroke:#000000; stroke-width:39.3701; stroke-opacity:1; 
stroke-linecap:round; stroke-linejoin:round;">
</g>
<g style="fill:#000000; fill-opacity:1.0; 
stroke:#000000; stroke-width:0; stroke-opacity:1; 
stroke-linecap:round; stroke-linejoin:round;">
<circle cx="41800" cy="28550" r="68.8976" /> 
</g>
<g style="fill:#000000; fill-opacity:1.0; 
stroke:#000000; stroke-width:39.3701; stroke-opacity:1; 
stroke-linecap:round; stroke-linejoin:round;">
</g>
<g style="fill:#000000; fill-opacity:1.0; 
stroke:#000000; stroke-width:0; stroke-opacity:1; 
stroke-linecap:round; stroke-linejoin:round;">
<circle cx="52150" cy="25050" r="68.8976" /> 
</g>
<g style="fill:#000000; fill-opacity:1.0; 
stroke:#000000; stroke-width:39.3701; stroke-opacity:1; 
stroke-linecap:round; stroke-linejoin:round;">
</g>
<g style="fill:#000000; fill-opacity:1.0; 
stroke:#000000; stroke-width:0; stroke-opacity:1; 
stroke-linecap:round; stroke-linejoin:round;">
<circle cx="48837" cy="20168.8" r="68.8976" /> 
</g>
<g style="fill:#000000; fill-opacity:1.0; 
stroke:#000000; stroke-width:39.3701; stroke-opacity:1; 
stroke-linecap:round; stroke-linejoin:round;">
</g>
<g style="fill:#000000; fill-opacity:1.0; 
stroke:#000000; stroke-width:0; stroke-opacity:1; 
stroke-linecap:round; stroke-linejoin:round;">
<circle cx="46700" cy="26300" r="68.8976" /> 
</g>
<g style="fill:#000000; fill-opacity:1.0; 
stroke:#000000; stroke-width:39.3701; stroke-opacity:1; 
stroke-linecap:round; stroke-linejoin:round;">
</g>
<g style="fill:#000000; fill-opacity:1.0; 
stroke:#000000; stroke-width:0; stroke-opacity:1; 
stroke-linecap:round; stroke-linejoin:round;">
<circle cx="46500" cy="23500" r="68.8976" /> 
</g>
<g style="fill:#000000; fill-opacity:1.0; 
stroke:#000000; stroke-width:39.3701; stroke-opacity:1; 
stroke-linecap:round; stroke-linejoin:round;">
</g>
<g style="fill:#000000; fill-opacity:1.0; 
stroke:#000000; stroke-width:0; stroke-opacity:1; 
stroke-linecap:round; stroke-linejoin:round;">
<circle cx="53000" cy="21200" r="68.8976" /> 
</g>
<g style="fill:#000000; fill-opacity:1.0; 
stroke:#000000; stroke-width:39.3701; stroke-opacity:1; 
stroke-linecap:round; stroke-linejoin:round;">
</g>
<g style="fill:#000000; fill-opacity:1.0; 
stroke:#000000; stroke-width:0; stroke-opacity:1; 
stroke-linecap:round; stroke-linejoin:round;">
<circle cx="48400" cy="28500" r="68.8976" /> 
</g>
<g style="fill:#000000; fill-opacity:1.0; 
stroke:#000000; stroke-width:39.3701; stroke-opacity:1; 
stroke-linecap:round; stroke-linejoin:round;">
</g>
<g style="fill:#000000; fill-opacity:1.0; 
stroke:#000000; stroke-width:0; stroke-opacity:1; 
stroke-linecap:round; stroke-linejoin:round;">
<circle cx="45400" cy="20600" r="68.8976" /> 
</g>
<g style="fill:#000000; fill-opacity:1.0; 
stroke:#000000; stroke-width:39.3701; stroke-opacity:1; 
stroke-linecap:round; stroke-linejoin:round;">
</g>
<g style="fill:#000000; fill-opacity:1.0; 
stroke:#000000; stroke-width:0; stroke-opacity:1; 
stroke-linecap:round; stroke-linejoin:round;">
<circle cx="45600" cy="18900" r="68.8976" /> 
</g>
<g style="fill:#000000; fill-opacity:1.0; 
stroke:#000000; stroke-width:39.3701; stroke-opacity:1; 
stroke-linecap:round; stroke-linejoin:round;">
</g>
<g style="fill:#000000; fill-opacity:1.0; 
stroke:#000000; stroke-width:0; stroke-opacity:1; 
stroke-linecap:round; stroke-linejoin:round;">
<circle cx="49461" cy="30268.1" r="68.8976" /> 
</g>
<g style="fill:#000000; fill-opacity:1.0; 
stroke:#000000; stroke-width:39.3701; stroke-opacity:1; 
stroke-linecap:round; stroke-linejoin:round;">
</g>
<g style="fill:#000000; fill-opacity:1.0; 
stroke:#000000; stroke-width:0; stroke-opacity:1; 
stroke-linecap:round; stroke-linejoin:round;">
<circle cx="47098.8" cy="30268.1" r="68.8976" /> 
</g>
<g style="fill:#000000; fill-opacity:1.0; 
stroke:#000000; stroke-width:39.3701; stroke-opacity:1; 
stroke-linecap:round; stroke-linejoin:round;">
</g>
<g style="fill:#000000; fill-opacity:1.0; 
stroke:#000000; stroke-width:0; stroke-opacity:1; 
stroke-linecap:round; stroke-linejoin:round;">
<circle cx="46510" cy="12040" r="68.8976" /> 
</g>
<g style="fill:#000000; fill-opacity:1.0; 
stroke:#000000; stroke-width:39.3701; stroke-opacity:1; 
stroke-linecap:round; stroke-linejoin:round;">
</g>
<g style="fill:#000000; fill-opacity:1.0; 
stroke:#000000; stroke-width:0; stroke-opacity:1; 
stroke-linecap:round; stroke-linejoin:round;">
<circle cx="46600" cy="22200" r="68.8976" /> 
</g>
<g style="fill:#000000; fill-opacity:1.0; 
stroke:#000000; stroke-width:39.3701; stroke-opacity:1; 
stroke-linecap:round; stroke-linejoin:round;">
</g>
<g style="fill:#000000; fill-opacity:1.0; 
stroke:#000000; stroke-width:0; stroke-opacity:1; 
stroke-linecap:round; stroke-linejoin:round;">
<circle cx="46600" cy="21609.4" r="68.8976" /> 
</g>
<g style="fill:#000000; fill-opacity:1.0; 
stroke:#000000; stroke-width:39.3701; stroke-opacity:1; 
stroke-linecap:round; stroke-linejoin:round;">
</g>
<g style="fill:#000000; fill-opacity:1.0; 
stroke:#000000; stroke-width:0; stroke-opacity:1; 
stroke-linecap:round; stroke-linejoin:round;">
<circle cx="48400" cy="26352" r="68.8976" /> 
</g>
<g style="fill:#000000; fill-opacity:1.0; 
stroke:#000000; stroke-width:39.3701; stroke-opacity:1; 
stroke-linecap:round; stroke-linejoin:round;">
</g>
<g style="fill:#000000; fill-opacity:1.0; 
stroke:#000000; stroke-width:0; stroke-opacity:1; 
stroke-linecap:round; stroke-linejoin:round;">
<circle cx="48400" cy="25603.9" r="68.8976" /> 
</g>
<g style="fill:#000000; fill-opacity:1.0; 
stroke:#000000; stroke-width:39.3701; stroke-opacity:1; 
stroke-linecap:round; stroke-linejoin:round;">
</g>
<g style="fill:#000000; fill-opacity:1.0; 
stroke:#000000; stroke-width:0; stroke-opacity:1; 
stroke-linecap:round; stroke-linejoin:round;">
<circle cx="47300" cy="20600" r="68.8976" /> 
</g>
<g style="fill:#000000; fill-opacity:1.0; 
stroke:#000000; stroke-width:39.3701; stroke-opacity:1; 
stroke-linecap:round; stroke-linejoin:round;">
</g>
<g style="fill:#000000; fill-opacity:1.0; 
stroke:#000000; stroke-width:0; stroke-opacity:1; 
stroke-linecap:round; stroke-linejoin:round;">
<circle cx="47300" cy="19615.7" r="68.8976" /> 
</g>
<g style="fill:#000000; fill-opacity:1.0; 
stroke:#000000; stroke-width:39.3701; stroke-opacity:1; 
stroke-linecap:round; stroke-linejoin:round;">
</g>
<g style="fill:#000000; fill-opacity:1.0; 
stroke:#000000; stroke-width:0; stroke-opacity:1; 
stroke-linecap:round; stroke-linejoin:round;">
<circle cx="43900" cy="15500" r="68.8976" /> 
</g>
<g style="fill:#000000; fill-opacity:1.0; 
stroke:#000000; stroke-width:39.3701; stroke-opacity:1; 
stroke-linecap:round; stroke-linejoin:round;">
</g>
<g style="fill:#000000; fill-opacity:1.0; 
stroke:#000000; stroke-width:0; stroke-opacity:1; 
stroke-linecap:round; stroke-linejoin:round;">
<circle cx="44687.4" cy="15500" r="68.8976" /> 
</g>
<g style="fill:#000000; fill-opacity:1.0; 
stroke:#000000; stroke-width:39.3701; stroke-opacity:1; 
stroke-linecap:round; stroke-linejoin:round;">
</g>
<g style="fill:#000000; fill-opacity:1.0; 
stroke:#000000; stroke-width:0; stroke-opacity:1; 
stroke-linecap:round; stroke-linejoin:round;">
<circle cx="54600" cy="21200" r="68.8976" /> 
</g>
<g style="fill:#000000; fill-opacity:1.0; 
stroke:#000000; stroke-width:39.3701; stroke-opacity:1; 
stroke-linecap:round; stroke-linejoin:round;">
</g>
<g style="fill:#000000; fill-opacity:1.0; 
stroke:#000000; stroke-width:0; stroke-opacity:1; 
stroke-linecap:round; stroke-linejoin:round;">
<circle cx="54600" cy="20200" r="68.8976" /> 
</g>
<g style="fill:#000000; fill-opacity:1.0; 
stroke:#000000; stroke-width:39.3701; stroke-opacity:1; 
stroke-linecap:round; stroke-linejoin:round;">
</g>
<g style="fill:#000000; fill-opacity:1.0; 
stroke:#000000; stroke-width:0; stroke-opacity:1; 
stroke-linecap:round; stroke-linejoin:round;">
<circle cx="54600" cy="19200" r="68.8976" /> 
</g>
<g style="fill:#000000; fill-opacity:1.0; 
stroke:#000000; stroke-width:39.3701; stroke-opacity:1; 
stroke-linecap:round; stroke-linejoin:round;">
</g>
<g style="fill:#000000; fill-opacity:1.0; 
stroke:#000000; stroke-width:0; stroke-opacity:1; 
stroke-linecap:round; stroke-linejoin:round;">
<circle cx="54600" cy="18200" r="68.8976" /> 
</g>
<g style="fill:#000000; fill-opacity:1.0; 
stroke:#000000; stroke-width:39.3701; stroke-opacity:1; 
stroke-linecap:round; stroke-linejoin:round;">
</g>
<g style="fill:#000000; fill-opacity:1.0; 
stroke:#000000; stroke-width:0; stroke-opacity:1; 
stroke-linecap:round; stroke-linejoin:round;">
<circle cx="54600" cy="17200" r="68.8976" /> 
</g>
<g style="fill:#000000; fill-opacity:1.0; 
stroke:#000000; stroke-width:39.3701; stroke-opacity:1; 
stroke-linecap:round; stroke-linejoin:round;">
</g>
<g style="fill:#000000; fill-opacity:1.0; 
stroke:#000000; stroke-width:0; stroke-opacity:1; 
stroke-linecap:round; stroke-linejoin:round;">
<circle cx="49700" cy="26500" r="68.8976" /> 
</g>
<g style="fill:#000000; fill-opacity:1.0; 
stroke:#000000; stroke-width:39.3701; stroke-opacity:1; 
stroke-linecap:round; stroke-linejoin:round;">
</g>
<g style="fill:#000000; fill-opacity:1.0; 
stroke:#000000; stroke-width:0; stroke-opacity:1; 
stroke-linecap:round; stroke-linejoin:round;">
<circle cx="49700" cy="28500" r="68.8976" /> 
</g>
<g style="fill:#000000; fill-opacity:1.0; 
stroke:#000000; stroke-width:39.3701; stroke-opacity:1; 
stroke-linecap:round; stroke-linejoin:round;">
</g>
<g style="fill:#000000; fill-opacity:1.0; 
stroke:#000000; stroke-width:0; stroke-opacity:1; 
stroke-linecap:round; stroke-linejoin:round;">
<circle cx="44868.5" cy="28000" r="68.8976" /> 
</g>
<g style="fill:#000000; fill-opacity:1.0; 
stroke:#000000; stroke-width:39.3701; stroke-opacity:1; 
stroke-linecap:round; stroke-linejoin:round;">
</g>
<g style="fill:#000000; fill-opacity:1.0; 
stroke:#000000; stroke-width:0; stroke-opacity:1; 
stroke-linecap:round; stroke-linejoin:round;">
<circle cx="42900" cy="28000" r="68.8976" /> 
</g>
<g style="fill:#000000; fill-opacity:1.0; 
stroke:#000000; stroke-width:39.3701; stroke-opacity:1; 
stroke-linecap:round; stroke-linejoin:round;">
</g>
<g style="fill:#000000; fill-opacity:1.0; 
stroke:#000000; stroke-width:0; stroke-opacity:1; 
stroke-linecap:round; stroke-linejoin:round;">
<circle cx="42500" cy="21600" r="68.8976" /> 
</g>
<g style="fill:#000000; fill-opacity:1.0; 
stroke:#000000; stroke-width:39.3701; stroke-opacity:1; 
stroke-linecap:round; stroke-linejoin:round;">
</g>
<g style="fill:#000000; fill-opacity:1.0; 
stroke:#000000; stroke-width:0; stroke-opacity:1; 
stroke-linecap:round; stroke-linejoin:round;">
<circle cx="42500" cy="23521.3" r="68.8976" /> 
</g>
<g style="fill:#000000; fill-opacity:1.0; 
stroke:#000000; stroke-width:39.3701; stroke-opacity:1; 
stroke-linecap:round; stroke-linejoin:round;">
</g>
<g style="fill:#000000; fill-opacity:1.0; 
stroke:#000000; stroke-width:0; stroke-opacity:1; 
stroke-linecap:round; stroke-linejoin:round;">
<circle cx="54600" cy="23500" r="68.8976" /> 
</g>
<g style="fill:#000000; fill-opacity:1.0; 
stroke:#000000; stroke-width:39.3701; stroke-opacity:1; 
stroke-linecap:round; stroke-linejoin:round;">
</g>
<g style="fill:#000000; fill-opacity:1.0; 
stroke:#000000; stroke-width:0; stroke-opacity:1; 
stroke-linecap:round; stroke-linejoin:round;">
<circle cx="54600" cy="24500" r="68.8976" /> 
</g>
<g style="fill:#000000; fill-opacity:1.0; 
stroke:#000000; stroke-width:39.3701; stroke-opacity:1; 
stroke-linecap:round; stroke-linejoin:round;">
</g>
<g style="fill:#000000; fill-opacity:1.0; 
stroke:#000000; stroke-width:0; stroke-opacity:1; 
stroke-linecap:round; stroke-linejoin:round;">
<circle cx="42350" cy="17650" r="68.8976" /> 
</g>
<g style="fill:#000000; fill-opacity:1.0; 
stroke:#000000; stroke-width:39.3701; stroke-opacity:1; 
stroke-linecap:round; stroke-linejoin:round;">
</g>
<g style="fill:#000000; fill-opacity:1.0; 
stroke:#000000; stroke-width:0; stroke-opacity:1; 
stroke-linecap:round; stroke-linejoin:round;">
<circle cx="42350" cy="16650" r="68.8976" /> 
</g>
<g style="fill:#000000; fill-opacity:1.0; 
stroke:#000000; stroke-width:39.3701; stroke-opacity:1; 
stroke-linecap:round; stroke-linejoin:round;">
</g>
<g style="fill:#000000; fill-opacity:1.0; 
stroke:#000000; stroke-width:0; stroke-opacity:1; 
stroke-linecap:round; stroke-linejoin:round;">
<circle cx="54600" cy="12700" r="68.8976" /> 
</g>
<g style="fill:#000000; fill-opacity:1.0; 
stroke:#000000; stroke-width:39.3701; stroke-opacity:1; 
stroke-linecap:round; stroke-linejoin:round;">
</g>
<g style="fill:#000000; fill-opacity:1.0; 
stroke:#000000; stroke-width:0; stroke-opacity:1; 
stroke-linecap:round; stroke-linejoin:round;">
<circle cx="54600" cy="13700" r="68.8976" /> 
</g>
<g style="fill:#000000; fill-opacity:1.0; 
stroke:#000000; stroke-width:39.3701; stroke-opacity:1; 
stroke-linecap:round; stroke-linejoin:round;">
</g>
<g style="fill:#000000; fill-opacity:1.0; 
stroke:#000000; stroke-width:0; stroke-opacity:1; 
stroke-linecap:round; stroke-linejoin:round;">
<circle cx="54600" cy="14700" r="68.8976" /> 
</g>
<g style="fill:#000000; fill-opacity:1.0; 
stroke:#000000; stroke-width:39.3701; stroke-opacity:1; 
stroke-linecap:round; stroke-linejoin:round;">
</g>
<g style="fill:#000000; fill-opacity:1.0; 
stroke:#000000; stroke-width:0; stroke-opacity:1; 
stroke-linecap:round; stroke-linejoin:round;">
<circle cx="54600" cy="15700" r="68.8976" /> 
</g>
<g style="fill:#000000; fill-opacity:1.0; 
stroke:#000000; stroke-width:39.3701; stroke-opacity:1; 
stroke-linecap:round; stroke-linejoin:round;">
</g>
<g style="fill:#FFFFFF; fill-opacity:1.0; 
stroke:#FFFFFF; stroke-width:39.3701; stroke-opacity:1; 
stroke-linecap:round; stroke-linejoin:round;">
</g> 
</svg>
