<?xml version="1.0" standalone="no"?>
 <!DOCTYPE svg PUBLIC "-//W3C//DTD SVG 1.1//EN" 
 "http://www.w3.org/Graphics/SVG/1.1/DTD/svg11.dtd"> 
<svg xmlns="http://www.w3.org/2000/svg" version="1.1" 
    width="29.7002cm" height="21.0007cm" viewBox="0 0 116930 82680 ">
<title>SVG Picture created as placa-B.Mask.svg date 2018/10/19 11:45:12 </title>
  <desc>Picture generated by PCBNEW </desc>
<g style="fill:#000000; fill-opacity:1;stroke:#000000; stroke-opacity:1;
stroke-linecap:round; stroke-linejoin:round; "
 transform="translate(0 0) scale(1 1)">
</g>
<g style="fill:#000000; fill-opacity:0.0; 
stroke:#000000; stroke-width:-0.000393701; stroke-opacity:1; 
stroke-linecap:round; stroke-linejoin:round;">
</g>
<g style="fill:#000000; fill-opacity:1.0; 
stroke:#000000; stroke-width:39.3701; stroke-opacity:1; 
stroke-linecap:round; stroke-linejoin:round;">
<rect x="38802" y="8701.97" width="18996.1" height="41496.1" rx="0" />
</g>
<g style="fill:#FFFFFF; fill-opacity:1.0; 
stroke:#FFFFFF; stroke-width:39.3701; stroke-opacity:1; 
stroke-linecap:round; stroke-linejoin:round;">
</g>
<g style="fill:#FFFFFF; fill-opacity:1.0; 
stroke:#FFFFFF; stroke-width:0; stroke-opacity:1; 
stroke-linecap:round; stroke-linejoin:round;">
<polyline style="fill-rule:evenodd;"
points="49571,29903
49571,29903
49571,29903
49640,29932
49640,29932
49702,29973
49755,30026
49755,30026
49796,30088
49818,30142
49825,30157
49839,30230
49839,30305
49825,30378
49825,30378
49796,30447
49796,30447
49755,30509
49702,30562
49671,30583
49640,30603
49587,30625
49571,30632
49498,30646
49423,30646
49350,30632
49334,30625
49281,30603
49250,30583
49219,30562
49166,30509
49125,30447
49125,30447
49096,30378
49096,30378
49082,30305
49082,30230
49096,30157
49103,30142
49125,30088
49166,30026
49166,30026
49219,29973
49281,29932
49281,29932
49350,29903
49350,29903
49350,29903
49423,29889
49498,29889
49571,29903
" /> 
<polyline style="fill-rule:evenodd;"
points="47209,29903
47209,29903
47209,29903
47278,29932
47278,29932
47340,29973
47393,30026
47393,30026
47434,30088
47456,30142
47463,30157
47477,30230
47477,30305
47463,30378
47463,30378
47434,30447
47434,30447
47393,30509
47340,30562
47309,30583
47278,30603
47224,30625
47209,30632
47136,30646
47061,30646
46988,30632
46972,30625
46919,30603
46888,30583
46857,30562
46804,30509
46763,30447
46763,30447
46734,30378
46734,30378
46720,30305
46720,30230
46734,30157
46741,30142
46763,30088
46804,30026
46804,30026
46857,29973
46919,29932
46919,29932
46988,29903
46988,29903
46988,29903
47061,29889
47136,29889
47209,29903
" /> 
<polyline style="fill-rule:evenodd;"
points="42353,29093
41526,29093
41526,28266
42353,28266
42353,29093
" /> 
<polyline style="fill-rule:evenodd;"
points="42990,28269
43021,28272
43072,28288
43098,28296
43170,28334
43233,28386
43285,28449
43323,28521
43323,28521
43347,28598
43355,28680
43347,28761
43331,28812
43323,28838
43285,28910
43233,28973
43170,29025
43098,29063
43072,29071
43021,29087
42990,29090
42960,29093
42919,29093
42889,29090
42858,29087
42807,29071
42781,29063
42709,29025
42646,28973
42594,28910
42556,28838
42548,28812
42532,28761
42524,28680
42532,28598
42556,28521
42556,28521
42594,28449
42646,28386
42709,28334
42781,28296
42807,28288
42858,28272
42889,28269
42919,28266
42960,28266
42990,28269
" /> 
<polyline style="fill-rule:evenodd;"
points="48877,25811
48877,25811
48877,25811
48951,25834
48951,25834
49019,25871
49079,25920
49128,25980
49131,25984
49136,25992
49143,25999
49151,26004
49160,26008
49169,26010
49179,26010
49189,26008
49197,26004
49205,25999
49212,25992
49215,25988
49242,25949
49297,25894
49361,25851
49433,25821
49478,25812
49509,25806
49586,25806
49617,25812
49662,25821
49734,25851
49799,25894
49853,25949
49896,26013
49926,26085
49941,26161
49941,26238
49926,26314
49896,26386
49853,26450
49799,26505
49734,26548
49662,26578
49617,26587
49586,26593
49509,26593
49478,26587
49433,26578
49361,26548
49297,26505
49242,26450
49215,26411
49209,26403
49202,26397
49193,26393
49184,26390
49174,26389
49165,26390
49155,26393
49147,26397
49139,26403
49133,26411
49131,26415
49128,26419
49079,26479
49019,26528
49019,26528
48951,26565
48877,26588
48877,26588
48877,26588
48819,26593
48780,26593
48722,26588
48722,26588
48722,26588
48648,26565
48580,26528
48580,26528
48520,26479
48471,26419
48434,26351
48411,26277
48404,26200
48411,26122
48434,26048
48471,25980
48520,25920
48580,25871
48648,25834
48648,25834
48722,25811
48722,25811
48722,25811
48780,25806
48819,25806
48877,25811
" /> 
<polyline style="fill-rule:evenodd;"
points="52969,24912
53014,24921
53086,24951
53150,24994
53205,25049
53248,25113
53278,25185
53293,25261
53293,25338
53278,25414
53248,25486
53205,25550
53150,25605
53111,25632
53103,25638
53097,25645
53093,25654
53090,25663
53089,25673
53090,25682
53093,25692
53097,25700
53103,25708
53111,25714
53115,25716
53119,25719
53179,25768
53228,25828
53265,25896
53288,25970
53295,26048
53288,26125
53265,26199
53228,26267
53179,26327
53119,26376
53089,26393
53051,26413
52977,26436
52977,26436
52977,26436
52919,26441
52880,26441
52822,26436
52822,26436
52822,26436
52748,26413
52710,26393
52680,26376
52620,26327
52571,26267
52534,26199
52511,26125
52504,26048
52511,25970
52534,25896
52571,25828
52620,25768
52680,25719
52684,25716
52692,25711
52699,25704
52704,25696
52708,25687
52710,25678
52710,25668
52708,25659
52704,25650
52699,25642
52692,25635
52688,25632
52649,25605
52594,25550
52551,25486
52521,25414
52506,25338
52506,25261
52521,25185
52551,25113
52594,25049
52649,24994
52713,24951
52785,24921
52830,24912
52861,24906
52938,24906
52969,24912
" /> 
<polyline style="fill-rule:evenodd;"
points="55008,24063
54181,24063
54181,23236
55008,23236
55008,24063
" /> 
<polyline style="fill-rule:evenodd;"
points="42554,23150
42609,23161
42677,23189
42738,23230
42790,23282
42831,23344
42859,23412
42874,23484
42874,23558
42859,23630
42831,23698
42790,23759
42738,23811
42677,23852
42609,23880
42554,23891
42536,23895
42463,23895
42445,23891
42390,23880
42322,23852
42261,23811
42209,23759
42168,23698
42140,23630
42125,23558
42125,23484
42140,23412
42168,23344
42209,23282
42261,23230
42322,23189
42390,23161
42445,23150
42463,23147
42536,23147
42554,23150
" /> 
<polyline style="fill-rule:evenodd;"
points="54645,22239
54676,22242
54727,22258
54753,22266
54825,22304
54888,22356
54940,22419
54978,22491
54978,22491
55002,22568
55010,22650
55002,22731
54986,22782
54978,22808
54940,22880
54888,22943
54825,22995
54753,23033
54727,23041
54676,23057
54645,23060
54615,23063
54574,23063
54544,23060
54513,23057
54462,23041
54436,23033
54364,22995
54301,22943
54249,22880
54211,22808
54203,22782
54187,22731
54179,22650
54187,22568
54211,22491
54211,22491
54249,22419
54301,22356
54364,22304
54436,22266
54462,22258
54513,22242
54544,22239
54574,22236
54615,22236
54645,22239
" /> 
<polyline style="fill-rule:evenodd;"
points="46691,21306
46749,21330
46800,21364
46844,21408
46879,21460
46902,21517
46914,21578
46914,21640
46902,21701
46879,21758
46844,21810
46800,21854
46786,21863
46778,21869
46772,21877
46768,21885
46765,21895
46764,21904
46765,21914
46768,21923
46772,21932
46778,21939
46786,21945
46800,21955
46844,21999
46879,22050
46902,22108
46914,22168
46914,22231
46902,22291
46879,22349
46844,22400
46800,22444
46749,22479
46691,22502
46631,22514
46568,22514
46508,22502
46450,22479
46399,22444
46355,22400
46320,22349
46297,22291
46285,22231
46285,22168
46297,22108
46320,22050
46355,21999
46399,21955
46413,21945
46421,21939
46427,21932
46431,21923
46434,21914
46435,21904
46434,21895
46431,21885
46427,21877
46421,21869
46413,21863
46399,21854
46355,21810
46320,21758
46297,21701
46285,21640
46285,21578
46297,21517
46320,21460
46355,21408
46399,21364
46450,21330
46508,21306
46568,21294
46631,21294
46691,21306
" /> 
<polyline style="fill-rule:evenodd;"
points="42554,21229
42609,21240
42677,21268
42738,21309
42790,21361
42831,21422
42859,21490
42864,21517
42874,21563
42874,21636
42870,21654
42859,21709
42831,21777
42790,21838
42738,21890
42677,21931
42609,21959
42554,21970
42536,21974
42463,21974
42445,21970
42390,21959
42322,21931
42261,21890
42209,21838
42168,21777
42140,21709
42129,21654
42125,21636
42125,21563
42135,21517
42140,21490
42168,21422
42209,21361
42261,21309
42322,21268
42390,21240
42445,21229
42463,21225
42536,21225
42554,21229
" /> 
<polyline style="fill-rule:evenodd;"
points="54650,20239
54681,20242
54732,20258
54758,20266
54830,20304
54893,20356
54945,20419
54983,20491
54983,20491
55007,20568
55015,20650
55007,20731
54991,20782
54983,20808
54945,20880
54893,20943
54830,20995
54758,21033
54732,21041
54681,21057
54650,21060
54620,21063
54579,21063
54549,21060
54518,21057
54467,21041
54441,21033
54369,20995
54306,20943
54254,20880
54216,20808
54208,20782
54192,20731
54184,20650
54192,20568
54216,20491
54216,20491
54254,20419
54306,20356
54369,20304
54441,20266
54467,20258
54518,20242
54549,20239
54579,20236
54620,20236
54650,20239
" /> 
<polyline style="fill-rule:evenodd;"
points="47693,20993
46906,20993
46906,20206
47693,20206
47693,20993
" /> 
<polyline style="fill-rule:evenodd;"
points="54650,19239
54681,19242
54732,19258
54758,19266
54830,19304
54893,19356
54945,19419
54983,19491
54983,19491
55007,19568
55015,19650
55007,19731
54991,19782
54983,19808
54945,19880
54893,19943
54830,19995
54758,20033
54732,20041
54681,20057
54650,20060
54620,20063
54579,20063
54549,20060
54518,20057
54467,20041
54441,20033
54369,19995
54306,19943
54254,19880
54216,19808
54208,19782
54192,19731
54184,19650
54192,19568
54216,19491
54216,19491
54254,19419
54306,19356
54369,19304
54441,19266
54467,19258
54518,19242
54549,19239
54579,19236
54620,19236
54650,19239
" /> 
<polyline style="fill-rule:evenodd;"
points="47369,19228
47414,19237
47486,19266
47550,19309
47605,19364
47648,19429
47678,19500
47693,19576
47693,19654
47678,19730
47648,19802
47605,19866
47550,19921
47486,19964
47414,19994
47369,20003
47338,20009
47261,20009
47230,20003
47185,19994
47113,19964
47049,19921
46994,19866
46951,19802
46921,19730
46906,19654
46906,19576
46921,19500
46951,19429
46994,19364
47049,19309
47113,19266
47185,19237
47230,19228
47261,19222
47338,19222
47369,19228
" /> 
<polyline style="fill-rule:evenodd;"
points="54650,18239
54681,18242
54732,18258
54758,18266
54830,18304
54893,18356
54945,18419
54983,18491
54983,18491
55007,18568
55015,18650
55007,18731
54991,18782
54983,18808
54945,18880
54893,18943
54830,18995
54758,19033
54732,19041
54681,19057
54650,19060
54620,19063
54579,19063
54549,19060
54518,19057
54467,19041
54441,19033
54369,18995
54306,18943
54254,18880
54216,18808
54208,18782
54192,18731
54184,18650
54192,18568
54216,18491
54216,18491
54254,18419
54306,18356
54369,18304
54441,18266
54467,18258
54518,18242
54549,18239
54579,18236
54620,18236
54650,18239
" /> 
<polyline style="fill-rule:evenodd;"
points="55013,18063
54186,18063
54186,17236
55013,17236
55013,18063
" /> 
<polyline style="fill-rule:evenodd;"
points="42763,18063
41936,18063
41936,17236
42763,17236
42763,18063
" /> 
<polyline style="fill-rule:evenodd;"
points="42400,16239
42431,16242
42482,16258
42508,16266
42580,16304
42643,16356
42695,16419
42733,16491
42733,16491
42757,16568
42765,16650
42757,16731
42741,16782
42733,16808
42695,16880
42643,16943
42580,16995
42508,17033
42482,17041
42431,17057
42400,17060
42370,17063
42329,17063
42299,17060
42268,17057
42217,17041
42191,17033
42119,16995
42056,16943
42004,16880
41966,16808
41958,16782
41942,16731
41934,16650
41942,16568
41966,16491
41966,16491
42004,16419
42056,16356
42119,16304
42191,16266
42217,16258
42268,16242
42299,16239
42329,16236
42370,16236
42400,16239
" /> 
<polyline style="fill-rule:evenodd;"
points="54650,15289
54681,15292
54732,15308
54758,15316
54830,15354
54893,15406
54945,15469
54983,15541
54983,15541
55007,15618
55015,15700
55007,15781
54999,15805
54983,15858
54945,15930
54893,15993
54830,16045
54758,16083
54732,16091
54681,16107
54650,16110
54620,16113
54579,16113
54549,16110
54518,16107
54467,16091
54441,16083
54369,16045
54306,15993
54254,15930
54216,15858
54200,15805
54192,15781
54184,15700
54192,15618
54216,15541
54216,15541
54254,15469
54306,15406
54369,15354
54441,15316
54467,15308
54518,15292
54549,15289
54579,15286
54620,15286
54650,15289
" /> 
<polyline style="fill-rule:evenodd;"
points="44293,15218
44294,15227
44297,15237
44301,15245
44308,15253
44315,15259
44324,15263
44333,15266
44342,15267
44352,15266
44361,15263
44370,15259
44377,15253
44378,15251
44381,15249
44381,15249
44436,15194
44500,15151
44572,15121
44618,15112
44648,15106
44726,15106
44756,15112
44802,15121
44873,15151
44938,15194
44993,15249
45036,15313
45065,15385
45081,15461
45081,15538
45065,15614
45036,15686
44993,15750
44938,15805
44873,15848
44802,15878
44756,15887
44726,15893
44648,15893
44618,15887
44572,15878
44500,15848
44436,15805
44381,15750
44381,15750
44378,15748
44377,15746
44370,15740
44361,15736
44352,15733
44342,15732
44333,15733
44324,15736
44315,15740
44308,15746
44301,15754
44297,15762
44294,15772
44293,15781
44293,15893
43506,15893
43506,15106
44293,15106
44293,15218
" /> 
<polyline style="fill-rule:evenodd;"
points="54650,14289
54681,14292
54732,14308
54758,14316
54830,14354
54893,14406
54945,14469
54983,14541
54983,14541
55007,14618
55015,14700
55007,14781
54991,14832
54983,14858
54945,14930
54893,14993
54830,15045
54758,15083
54732,15091
54681,15107
54650,15110
54620,15113
54579,15113
54549,15110
54518,15107
54467,15091
54441,15083
54369,15045
54306,14993
54254,14930
54216,14858
54208,14832
54192,14781
54184,14700
54192,14618
54216,14541
54216,14541
54254,14469
54306,14406
54369,14354
54441,14316
54467,14308
54518,14292
54549,14289
54579,14286
54620,14286
54650,14289
" /> 
<polyline style="fill-rule:evenodd;"
points="54650,13289
54681,13292
54732,13308
54758,13316
54830,13354
54893,13406
54945,13469
54983,13541
54983,13541
55007,13618
55015,13700
55007,13781
54991,13832
54983,13858
54945,13930
54893,13993
54830,14045
54758,14083
54732,14091
54681,14107
54650,14110
54620,14113
54579,14113
54549,14110
54518,14107
54467,14091
54441,14083
54369,14045
54306,13993
54254,13930
54216,13858
54208,13832
54192,13781
54184,13700
54192,13618
54216,13541
54216,13541
54254,13469
54306,13406
54369,13354
54441,13316
54467,13308
54518,13292
54549,13289
54579,13286
54620,13286
54650,13289
" /> 
<polyline style="fill-rule:evenodd;"
points="55013,13113
54186,13113
54186,12286
55013,12286
55013,13113
" /> 
<polyline style="fill-rule:evenodd;"
points="46620,11675
46620,11675
46620,11675
46689,11704
46689,11704
46751,11745
46804,11798
46804,11798
46845,11860
46867,11913
46874,11929
46888,12002
46888,12077
46874,12150
46874,12150
46845,12219
46845,12219
46804,12281
46751,12334
46720,12355
46689,12375
46636,12397
46620,12404
46547,12418
46472,12418
46399,12404
46383,12397
46330,12375
46299,12355
46268,12334
46215,12281
46174,12219
46174,12219
46145,12150
46145,12150
46131,12077
46131,12002
46145,11929
46152,11913
46174,11860
46215,11798
46215,11798
46268,11745
46330,11704
46330,11704
46399,11675
46399,11675
46399,11675
46472,11661
46547,11661
46620,11675
" /> 
</g> 
</svg>
