<?xml version="1.0" standalone="no"?>
 <!DOCTYPE svg PUBLIC "-//W3C//DTD SVG 1.1//EN" 
 "http://www.w3.org/Graphics/SVG/1.1/DTD/svg11.dtd"> 
<svg xmlns="http://www.w3.org/2000/svg" version="1.1" 
    width="29.7002cm" height="21.0007cm" viewBox="0 0 116930 82680 ">
<title>SVG Picture created as placa-F.Mask.svg date 2018/10/19 11:45:02 </title>
  <desc>Picture generated by PCBNEW </desc>
<g style="fill:#000000; fill-opacity:1;stroke:#000000; stroke-opacity:1;
stroke-linecap:round; stroke-linejoin:round; "
 transform="translate(0 0) scale(1 1)">
</g>
<g style="fill:#000000; fill-opacity:0.0; 
stroke:#000000; stroke-width:-0.000393701; stroke-opacity:1; 
stroke-linecap:round; stroke-linejoin:round;">
</g>
<g style="fill:#000000; fill-opacity:1.0; 
stroke:#000000; stroke-width:39.3701; stroke-opacity:1; 
stroke-linecap:round; stroke-linejoin:round;">
<rect x="38802" y="8701.97" width="18996.1" height="41496.1" rx="0" />
</g>
<g style="fill:#FFFFFF; fill-opacity:1.0; 
stroke:#FFFFFF; stroke-width:39.3701; stroke-opacity:1; 
stroke-linecap:round; stroke-linejoin:round;">
</g>
<g style="fill:#FFFFFF; fill-opacity:1.0; 
stroke:#FFFFFF; stroke-width:0; stroke-opacity:1; 
stroke-linecap:round; stroke-linejoin:round;">
<polyline style="fill-rule:evenodd;"
points="49571,29903
49571,29903
49571,29903
49640,29932
49640,29932
49702,29973
49755,30026
49755,30026
49796,30088
49818,30142
49825,30157
49839,30230
49839,30305
49825,30378
49825,30378
49796,30447
49796,30447
49755,30509
49702,30562
49671,30583
49640,30603
49587,30625
49571,30632
49498,30646
49423,30646
49350,30632
49334,30625
49281,30603
49250,30583
49219,30562
49166,30509
49125,30447
49125,30447
49096,30378
49096,30378
49082,30305
49082,30230
49096,30157
49103,30142
49125,30088
49166,30026
49166,30026
49219,29973
49281,29932
49281,29932
49350,29903
49350,29903
49350,29903
49423,29889
49498,29889
49571,29903
" /> 
<polyline style="fill-rule:evenodd;"
points="47209,29903
47209,29903
47209,29903
47278,29932
47278,29932
47340,29973
47393,30026
47393,30026
47434,30088
47456,30142
47463,30157
47477,30230
47477,30305
47463,30378
47463,30378
47434,30447
47434,30447
47393,30509
47340,30562
47309,30583
47278,30603
47224,30625
47209,30632
47136,30646
47061,30646
46988,30632
46972,30625
46919,30603
46888,30583
46857,30562
46804,30509
46763,30447
46763,30447
46734,30378
46734,30378
46720,30305
46720,30230
46734,30157
46741,30142
46763,30088
46804,30026
46804,30026
46857,29973
46919,29932
46919,29932
46988,29903
46988,29903
46988,29903
47061,29889
47136,29889
47209,29903
" /> 
<polyline style="fill-rule:evenodd;"
points="51117,27147
51136,27153
51154,27163
51170,27176
51183,27192
51193,27210
51199,27230
51201,27252
51201,27747
51199,27769
51193,27789
51183,27807
51170,27823
51154,27836
51136,27846
51116,27852
51107,27856
51099,27861
51092,27868
51087,27876
51083,27885
51081,27894
51081,27904
51083,27913
51087,27922
51092,27930
51099,27937
51107,27942
51116,27946
51140,27953
51158,27963
51174,27976
51187,27992
51196,28010
51202,28030
51205,28052
51205,28547
51202,28569
51196,28589
51187,28607
51174,28623
51158,28636
51140,28646
51118,28652
51113,28653
51104,28657
51096,28662
51089,28669
51084,28677
51080,28686
51078,28695
51078,28705
51080,28715
51084,28724
51089,28732
51096,28738
51104,28744
51113,28747
51133,28753
51151,28763
51167,28776
51180,28792
51189,28810
51195,28830
51198,28852
51198,29347
51195,29369
51189,29389
51180,29407
51167,29423
51151,29436
51133,29446
51113,29452
51090,29454
50695,29454
50672,29452
50652,29446
50634,29436
50618,29423
50605,29407
50595,29389
50590,29369
50587,29347
50587,28852
50590,28830
50595,28810
50605,28792
50618,28776
50634,28763
50652,28753
50674,28747
50679,28746
50688,28742
50696,28737
50703,28730
50708,28722
50712,28713
50714,28704
50714,28694
50712,28684
50708,28675
50703,28667
50696,28661
50688,28655
50679,28652
50659,28646
50641,28636
50625,28623
50612,28607
50603,28589
50597,28569
50594,28547
50594,28052
50597,28030
50603,28010
50612,27992
50625,27976
50641,27963
50659,27953
50680,27947
50689,27943
50697,27938
50704,27931
50709,27923
50713,27914
50714,27905
50714,27895
50713,27886
50709,27877
50704,27869
50697,27862
50689,27857
50680,27853
50656,27846
50638,27836
50622,27823
50609,27807
50599,27789
50593,27769
50591,27747
50591,27252
50593,27230
50599,27210
50609,27192
50622,27176
50638,27163
50656,27153
50675,27147
50698,27145
51094,27145
51117,27147
" /> 
<polyline style="fill-rule:evenodd;"
points="51924,27147
51943,27153
51961,27163
51977,27176
51990,27192
52000,27210
52006,27230
52008,27252
52008,27747
52006,27769
52000,27789
51990,27807
51977,27823
51961,27836
51943,27846
51923,27852
51914,27856
51906,27861
51899,27868
51894,27876
51890,27885
51888,27894
51888,27904
51890,27913
51894,27922
51899,27930
51906,27937
51914,27942
51923,27946
51947,27953
51965,27963
51981,27976
51994,27992
52004,28010
52009,28030
52012,28052
52012,28547
52009,28569
52004,28589
51994,28607
51981,28623
51965,28636
51947,28646
51925,28652
51920,28653
51911,28657
51903,28662
51896,28669
51891,28677
51887,28686
51885,28695
51885,28705
51887,28715
51891,28724
51896,28732
51903,28738
51911,28744
51920,28747
51940,28753
51958,28763
51974,28776
51987,28792
51996,28810
52002,28830
52005,28852
52005,29347
52002,29369
51996,29389
51987,29407
51974,29423
51958,29436
51940,29446
51920,29452
51897,29454
51502,29454
51479,29452
51459,29446
51441,29436
51425,29423
51412,29407
51403,29389
51397,29369
51394,29347
51394,28852
51397,28830
51403,28810
51412,28792
51425,28776
51441,28763
51459,28753
51481,28747
51486,28746
51495,28742
51503,28737
51510,28730
51515,28722
51519,28713
51521,28704
51521,28694
51519,28684
51515,28675
51510,28667
51503,28661
51495,28655
51486,28652
51466,28646
51448,28636
51432,28623
51419,28607
51410,28589
51404,28569
51401,28547
51401,28052
51404,28030
51410,28010
51419,27992
51432,27976
51448,27963
51466,27953
51487,27947
51496,27943
51504,27938
51511,27931
51516,27923
51520,27914
51522,27905
51522,27895
51520,27886
51516,27877
51511,27869
51504,27862
51496,27857
51487,27853
51463,27846
51445,27836
51429,27823
51416,27807
51406,27789
51400,27769
51398,27747
51398,27252
51400,27230
51406,27210
51416,27192
51429,27176
51445,27163
51463,27153
51482,27147
51505,27145
51901,27145
51924,27147
" /> 
<polyline style="fill-rule:evenodd;"
points="42353,29093
41526,29093
41526,28266
42353,28266
42353,29093
" /> 
<polyline style="fill-rule:evenodd;"
points="42990,28269
43021,28272
43072,28288
43098,28296
43170,28334
43233,28386
43285,28449
43323,28521
43323,28521
43347,28598
43355,28680
43347,28761
43334,28804
43323,28838
43285,28910
43233,28973
43170,29025
43098,29063
43072,29071
43021,29087
42990,29090
42960,29093
42919,29093
42889,29090
42858,29087
42807,29071
42781,29063
42709,29025
42646,28973
42594,28910
42556,28838
42545,28804
42532,28761
42524,28680
42532,28598
42556,28521
42556,28521
42594,28449
42646,28386
42709,28334
42781,28296
42807,28288
42858,28272
42889,28269
42919,28266
42960,28266
42990,28269
" /> 
<polyline style="fill-rule:evenodd;"
points="54469,27604
54489,27610
54507,27619
54523,27632
54536,27648
54546,27666
54552,27689
54556,27698
54561,27706
54568,27712
54576,27718
54585,27721
54595,27723
54604,27723
54614,27721
54623,27718
54631,27712
54638,27706
54643,27698
54647,27689
54653,27666
54663,27648
54676,27632
54692,27619
54710,27610
54730,27604
54752,27601
55247,27601
55269,27604
55289,27610
55307,27619
55323,27632
55336,27648
55346,27666
55352,27686
55354,27709
55354,28104
55352,28127
55346,28147
55336,28165
55323,28181
55307,28194
55289,28204
55269,28209
55247,28212
54752,28212
54730,28209
54710,28204
54692,28194
54676,28181
54663,28165
54653,28147
54647,28125
54643,28116
54638,28108
54631,28101
54623,28095
54614,28092
54604,28090
54595,28090
54585,28092
54576,28095
54568,28101
54561,28108
54556,28116
54552,28125
54546,28147
54536,28165
54523,28181
54507,28194
54489,28204
54469,28209
54447,28212
53952,28212
53930,28209
53910,28204
53892,28194
53876,28181
53863,28165
53853,28147
53847,28127
53845,28104
53845,27709
53847,27686
53853,27666
53863,27648
53876,27632
53892,27619
53910,27610
53930,27604
53952,27601
54447,27601
54469,27604
" /> 
<polyline style="fill-rule:evenodd;"
points="48069,27504
48089,27510
48107,27519
48123,27532
48136,27548
48146,27566
48152,27586
48154,27609
48154,28004
48152,28027
48146,28047
48136,28065
48123,28081
48107,28094
48089,28104
48069,28109
48047,28112
47552,28112
47530,28109
47510,28104
47492,28094
47476,28081
47463,28065
47453,28047
47447,28027
47445,28004
47445,27609
47447,27586
47453,27566
47463,27548
47476,27532
47492,27519
47510,27510
47530,27504
47552,27501
48047,27501
48069,27504
" /> 
<polyline style="fill-rule:evenodd;"
points="49869,27497
49889,27503
49907,27512
49923,27525
49936,27541
49946,27559
49952,27579
49954,27602
49954,27997
49952,28020
49946,28040
49936,28058
49923,28074
49907,28087
49889,28096
49869,28102
49847,28105
49352,28105
49330,28102
49310,28096
49292,28087
49276,28074
49263,28058
49253,28040
49247,28020
49244,28011
49238,28003
49232,27996
49224,27991
49215,27987
49205,27985
49196,27985
49186,27987
49177,27991
49169,27996
49162,28003
49157,28011
49153,28020
49152,28025
49146,28047
49136,28065
49123,28081
49107,28094
49089,28104
49069,28109
49047,28112
48552,28112
48530,28109
48510,28104
48492,28094
48476,28081
48463,28065
48453,28047
48447,28027
48445,28004
48445,27609
48447,27586
48453,27566
48463,27548
48476,27532
48492,27519
48510,27510
48530,27504
48552,27501
49047,27501
49069,27504
49089,27510
49107,27519
49123,27532
49136,27548
49146,27566
49152,27586
49155,27595
49161,27603
49167,27610
49175,27615
49184,27619
49194,27621
49203,27621
49213,27619
49222,27615
49230,27610
49237,27603
49242,27595
49246,27586
49247,27581
49253,27559
49263,27541
49276,27525
49292,27512
49310,27503
49330,27497
49352,27494
49847,27494
49869,27497
" /> 
<polyline style="fill-rule:evenodd;"
points="46519,27500
46539,27506
46557,27516
46573,27529
46586,27545
46596,27563
46602,27582
46604,27605
46604,28001
46602,28024
46596,28043
46586,28061
46573,28077
46557,28090
46539,28100
46519,28106
46497,28108
46002,28108
45980,28106
45960,28100
45942,28090
45926,28077
45913,28061
45903,28043
45897,28024
45895,28001
45895,27605
45897,27582
45903,27563
45913,27545
45926,27529
45942,27516
45960,27506
45980,27500
46002,27498
46497,27498
46519,27500
" /> 
<polyline style="fill-rule:evenodd;"
points="54469,26797
54489,26803
54507,26812
54523,26825
54536,26841
54546,26859
54552,26882
54556,26890
54561,26898
54568,26905
54576,26911
54585,26914
54595,26916
54604,26916
54614,26914
54623,26911
54631,26905
54638,26898
54643,26890
54647,26882
54653,26859
54663,26841
54676,26825
54692,26812
54710,26803
54730,26797
54752,26794
55247,26794
55269,26797
55289,26803
55307,26812
55323,26825
55336,26841
55346,26859
55352,26879
55354,26902
55354,27297
55352,27320
55346,27340
55336,27358
55323,27374
55307,27387
55289,27396
55269,27402
55247,27405
54752,27405
54730,27402
54710,27396
54692,27387
54676,27374
54663,27358
54653,27340
54647,27317
54643,27309
54638,27301
54631,27294
54623,27288
54614,27285
54604,27283
54595,27283
54585,27285
54576,27288
54568,27294
54561,27301
54556,27309
54552,27317
54546,27340
54536,27358
54523,27374
54507,27387
54489,27396
54469,27402
54447,27405
53952,27405
53930,27402
53910,27396
53892,27387
53876,27374
53863,27358
53853,27340
53847,27320
53845,27297
53845,26902
53847,26879
53853,26859
53863,26841
53876,26825
53892,26812
53910,26803
53930,26797
53952,26794
54447,26794
54469,26797
" /> 
<polyline style="fill-rule:evenodd;"
points="48069,26697
48089,26703
48107,26712
48123,26725
48136,26741
48146,26759
48152,26779
48154,26802
48154,27197
48152,27220
48146,27240
48136,27258
48123,27274
48107,27287
48089,27296
48069,27302
48047,27305
47552,27305
47530,27302
47510,27296
47492,27287
47476,27274
47463,27258
47453,27240
47447,27220
47445,27197
47445,26802
47447,26779
47453,26759
47463,26741
47476,26725
47492,26712
47510,26703
47530,26697
47552,26694
48047,26694
48069,26697
" /> 
<polyline style="fill-rule:evenodd;"
points="48877,25811
48877,25811
48877,25811
48951,25834
48951,25834
49019,25871
49079,25920
49128,25980
49131,25984
49136,25992
49143,25999
49151,26004
49160,26008
49169,26010
49179,26010
49189,26008
49197,26004
49205,25999
49212,25992
49215,25988
49242,25949
49297,25894
49361,25851
49433,25821
49478,25812
49509,25806
49586,25806
49617,25812
49662,25821
49734,25851
49799,25894
49853,25949
49896,26013
49926,26085
49941,26161
49941,26238
49926,26314
49896,26386
49853,26450
49799,26505
49734,26548
49662,26578
49622,26586
49603,26590
49594,26593
49586,26597
49578,26603
49572,26611
49567,26619
49565,26628
49564,26638
49565,26648
49567,26657
49572,26665
49578,26673
49586,26679
49594,26684
49603,26686
49613,26687
49847,26687
49869,26690
49889,26695
49907,26705
49923,26718
49936,26734
49946,26752
49952,26772
49954,26795
49954,27190
49952,27213
49946,27233
49936,27251
49923,27267
49907,27280
49889,27289
49869,27295
49847,27298
49352,27298
49330,27295
49310,27289
49292,27280
49276,27267
49263,27251
49253,27233
49247,27213
49244,27204
49238,27196
49232,27189
49224,27184
49215,27180
49205,27178
49196,27178
49186,27180
49177,27184
49169,27189
49162,27196
49157,27204
49153,27213
49152,27218
49146,27240
49136,27258
49123,27274
49107,27287
49089,27296
49069,27302
49047,27305
48552,27305
48530,27302
48510,27296
48492,27287
48476,27274
48463,27258
48453,27240
48447,27220
48445,27197
48445,26802
48447,26779
48453,26759
48463,26741
48476,26725
48492,26712
48510,26703
48530,26697
48552,26694
49047,26694
49069,26697
49089,26703
49107,26712
49123,26725
49136,26741
49146,26759
49152,26779
49155,26788
49161,26796
49167,26803
49175,26808
49184,26812
49194,26814
49203,26814
49213,26812
49222,26808
49230,26803
49237,26796
49242,26788
49246,26779
49247,26774
49253,26752
49263,26734
49276,26718
49292,26705
49310,26695
49330,26690
49352,26687
49482,26687
49492,26686
49501,26684
49509,26679
49517,26673
49523,26665
49528,26657
49530,26648
49531,26638
49530,26628
49528,26619
49523,26611
49517,26603
49509,26597
49501,26593
49492,26590
49473,26586
49433,26578
49361,26548
49297,26505
49242,26450
49215,26411
49209,26403
49202,26397
49193,26393
49184,26390
49174,26389
49165,26390
49155,26393
49147,26397
49139,26403
49133,26411
49131,26415
49128,26419
49079,26479
49019,26528
48984,26547
48951,26565
48877,26588
48877,26588
48877,26588
48819,26593
48780,26593
48722,26588
48722,26588
48722,26588
48648,26565
48615,26547
48580,26528
48520,26479
48471,26419
48434,26351
48411,26277
48404,26200
48411,26122
48433,26052
48434,26048
48453,26013
48471,25980
48520,25920
48580,25871
48648,25834
48648,25834
48722,25811
48722,25811
48722,25811
48780,25806
48819,25806
48877,25811
" /> 
<polyline style="fill-rule:evenodd;"
points="46519,26693
46539,26699
46557,26709
46573,26722
46586,26738
46596,26756
46602,26775
46604,26798
46604,27194
46602,27217
46596,27236
46586,27254
46573,27270
46557,27283
46539,27293
46519,27299
46497,27301
46002,27301
45980,27299
45960,27293
45942,27283
45926,27270
45913,27254
45903,27236
45897,27217
45895,27194
45895,26798
45897,26775
45903,26756
45913,26738
45926,26722
45942,26709
45960,26699
45980,26693
46002,26691
46497,26691
46519,26693
" /> 
<polyline style="fill-rule:evenodd;"
points="51924,25147
51943,25153
51961,25163
51977,25176
51990,25192
52000,25210
52006,25230
52008,25252
52008,25747
52006,25769
52000,25789
51990,25807
51977,25823
51961,25836
51943,25846
51921,25852
51912,25856
51904,25861
51897,25868
51892,25876
51888,25885
51886,25895
51886,25904
51888,25914
51892,25923
51897,25931
51904,25938
51912,25943
51921,25947
51943,25953
51961,25963
51977,25976
51990,25992
52000,26010
52006,26030
52008,26052
52008,26547
52006,26569
52000,26589
51990,26607
51977,26623
51961,26636
51943,26646
51924,26652
51901,26654
51505,26654
51482,26652
51463,26646
51445,26636
51429,26623
51416,26607
51406,26589
51400,26569
51398,26547
51398,26052
51400,26030
51406,26010
51416,25992
51429,25976
51445,25963
51463,25953
51485,25947
51494,25943
51502,25938
51509,25931
51514,25923
51518,25914
51520,25904
51520,25895
51518,25885
51514,25876
51509,25868
51502,25861
51494,25856
51485,25852
51463,25846
51445,25836
51429,25823
51416,25807
51406,25789
51400,25769
51398,25747
51398,25252
51400,25230
51406,25210
51416,25192
51429,25176
51445,25163
51463,25153
51482,25147
51505,25145
51901,25145
51924,25147
" /> 
<polyline style="fill-rule:evenodd;"
points="51117,25147
51136,25153
51154,25163
51170,25176
51183,25192
51193,25210
51199,25230
51201,25252
51201,25747
51199,25769
51193,25789
51183,25807
51170,25823
51154,25836
51136,25846
51114,25852
51105,25856
51097,25861
51090,25868
51085,25876
51081,25885
51079,25895
51079,25904
51081,25914
51085,25923
51090,25931
51097,25938
51105,25943
51114,25947
51136,25953
51154,25963
51170,25976
51183,25992
51193,26010
51199,26030
51201,26052
51201,26547
51199,26569
51193,26589
51183,26607
51170,26623
51154,26636
51136,26646
51117,26652
51094,26654
50698,26654
50675,26652
50656,26646
50638,26636
50622,26623
50609,26607
50599,26589
50593,26569
50591,26547
50591,26052
50593,26030
50599,26010
50609,25992
50622,25976
50638,25963
50656,25953
50678,25947
50687,25943
50695,25938
50702,25931
50707,25923
50711,25914
50713,25904
50713,25895
50711,25885
50707,25876
50702,25868
50695,25861
50687,25856
50678,25852
50656,25846
50638,25836
50622,25823
50609,25807
50599,25789
50593,25769
50591,25747
50591,25252
50593,25230
50599,25210
50609,25192
50622,25176
50638,25163
50656,25153
50675,25147
50698,25145
51094,25145
51117,25147
" /> 
<polyline style="fill-rule:evenodd;"
points="41969,25904
41989,25910
42007,25919
42023,25932
42036,25948
42046,25966
42052,25986
42054,26009
42054,26404
42052,26427
42046,26447
42036,26465
42023,26481
42007,26494
41989,26504
41969,26509
41947,26512
41452,26512
41430,26509
41410,26504
41392,26494
41376,26481
41363,26465
41353,26447
41347,26427
41345,26404
41345,26009
41347,25986
41353,25966
41363,25948
41376,25932
41392,25919
41410,25910
41430,25904
41452,25901
41947,25901
41969,25904
" /> 
<polyline style="fill-rule:evenodd;"
points="48069,25900
48089,25906
48107,25916
48123,25929
48136,25945
48146,25963
48152,25982
48154,26005
48154,26401
48152,26424
48146,26443
48136,26461
48123,26477
48107,26490
48089,26500
48069,26506
48047,26508
47552,26508
47530,26506
47510,26500
47492,26490
47476,26477
47463,26461
47453,26443
47447,26424
47445,26401
47445,26005
47447,25982
47453,25963
47463,25945
47476,25929
47492,25916
47510,25906
47530,25900
47552,25898
48047,25898
48069,25900
" /> 
<polyline style="fill-rule:evenodd;"
points="43069,25897
43089,25903
43107,25912
43123,25925
43136,25941
43146,25959
43152,25979
43154,26002
43154,26397
43152,26420
43146,26440
43136,26458
43123,26474
43107,26487
43089,26496
43069,26502
43047,26505
42552,26505
42530,26502
42510,26496
42492,26487
42476,26474
42463,26458
42453,26440
42447,26420
42445,26397
42445,26002
42447,25979
42453,25959
42463,25941
42476,25925
42492,25912
42510,25903
42530,25897
42552,25894
43047,25894
43069,25897
" /> 
<polyline style="fill-rule:evenodd;"
points="54469,25897
54489,25903
54507,25912
54523,25925
54536,25941
54546,25959
54552,25982
54556,25990
54561,25998
54568,26005
54576,26011
54585,26014
54595,26016
54604,26016
54614,26014
54623,26011
54631,26005
54638,25998
54643,25990
54647,25982
54653,25959
54663,25941
54676,25925
54692,25912
54710,25903
54730,25897
54752,25894
55247,25894
55269,25897
55289,25903
55307,25912
55323,25925
55336,25941
55346,25959
55352,25979
55354,26002
55354,26397
55352,26420
55346,26440
55336,26458
55323,26474
55307,26487
55289,26496
55269,26502
55247,26505
54752,26505
54730,26502
54710,26496
54692,26487
54676,26474
54663,26458
54653,26440
54647,26417
54643,26409
54638,26401
54631,26394
54623,26388
54614,26385
54604,26383
54595,26383
54585,26385
54576,26388
54568,26394
54561,26401
54556,26409
54552,26417
54546,26440
54536,26458
54523,26474
54507,26487
54489,26496
54469,26502
54447,26505
53952,26505
53930,26502
53910,26496
53892,26487
53876,26474
53863,26458
53853,26440
53847,26420
53845,26397
53845,26002
53847,25979
53853,25959
53863,25941
53876,25925
53892,25912
53910,25903
53930,25897
53952,25894
54447,25894
54469,25897
" /> 
<polyline style="fill-rule:evenodd;"
points="43969,25897
43989,25903
44007,25912
44023,25925
44036,25941
44046,25959
44052,25979
44054,26002
44054,26397
44052,26420
44046,26440
44036,26458
44023,26474
44007,26487
43989,26496
43969,26502
43947,26505
43452,26505
43430,26502
43410,26496
43392,26487
43376,26474
43363,26458
43353,26440
43347,26420
43345,26397
43345,26002
43347,25979
43353,25959
43363,25941
43376,25925
43392,25912
43410,25903
43430,25897
43452,25894
43947,25894
43969,25897
" /> 
<polyline style="fill-rule:evenodd;"
points="52969,24912
53014,24921
53086,24951
53150,24994
53205,25049
53248,25113
53278,25185
53283,25207
53293,25258
53293,25261
53293,25338
53278,25414
53248,25486
53205,25550
53150,25605
53111,25632
53103,25638
53097,25645
53093,25654
53090,25663
53089,25673
53090,25682
53093,25692
53097,25700
53103,25708
53111,25714
53115,25716
53119,25719
53179,25768
53228,25828
53264,25894
53265,25896
53286,25966
53288,25970
53295,26048
53288,26125
53265,26199
53228,26267
53179,26327
53119,26376
53074,26401
53051,26413
52977,26436
52977,26436
52977,26436
52919,26441
52880,26441
52822,26436
52822,26436
52822,26436
52748,26413
52725,26401
52680,26376
52620,26327
52571,26267
52534,26199
52511,26125
52504,26048
52511,25970
52513,25966
52534,25896
52535,25894
52571,25828
52620,25768
52680,25719
52684,25716
52692,25711
52699,25704
52704,25696
52708,25687
52710,25678
52710,25668
52708,25659
52704,25650
52699,25642
52692,25635
52688,25632
52649,25605
52594,25550
52551,25486
52521,25414
52506,25338
52506,25261
52506,25258
52516,25207
52521,25185
52551,25113
52594,25049
52649,24994
52713,24951
52785,24921
52830,24912
52861,24906
52938,24906
52969,24912
" /> 
<polyline style="fill-rule:evenodd;"
points="41969,25097
41989,25103
42007,25112
42023,25125
42036,25141
42046,25159
42052,25179
42054,25202
42054,25597
42052,25620
42046,25640
42036,25658
42023,25674
42007,25687
41989,25696
41969,25702
41947,25705
41452,25705
41430,25702
41410,25696
41392,25687
41376,25674
41363,25658
41353,25640
41347,25620
41345,25597
41345,25202
41347,25179
41353,25159
41363,25141
41376,25125
41392,25112
41410,25103
41430,25097
41452,25094
41947,25094
41969,25097
" /> 
<polyline style="fill-rule:evenodd;"
points="48069,25093
48089,25099
48107,25109
48123,25122
48136,25138
48146,25156
48152,25175
48154,25198
48154,25594
48152,25617
48146,25636
48136,25654
48123,25670
48107,25683
48089,25693
48069,25699
48047,25701
47552,25701
47530,25699
47510,25693
47492,25683
47476,25670
47463,25654
47453,25636
47447,25617
47445,25594
47445,25198
47447,25175
47453,25156
47463,25138
47476,25122
47492,25109
47510,25099
47530,25093
47552,25091
48047,25091
48069,25093
" /> 
<polyline style="fill-rule:evenodd;"
points="43969,25090
43989,25095
44007,25105
44023,25118
44036,25134
44046,25152
44052,25172
44054,25195
44054,25590
44052,25613
44046,25633
44036,25651
44023,25667
44007,25680
43989,25689
43969,25695
43947,25698
43452,25698
43430,25695
43410,25689
43392,25680
43376,25667
43363,25651
43353,25633
43347,25613
43345,25590
43345,25195
43347,25172
43353,25152
43363,25134
43376,25118
43392,25105
43410,25095
43430,25090
43452,25087
43947,25087
43969,25090
" /> 
<polyline style="fill-rule:evenodd;"
points="43069,25090
43089,25095
43107,25105
43123,25118
43136,25134
43146,25152
43152,25172
43154,25195
43154,25590
43152,25613
43146,25633
43136,25651
43123,25667
43107,25680
43089,25689
43069,25695
43047,25698
42552,25698
42530,25695
42510,25689
42492,25680
42476,25667
42463,25651
42453,25633
42447,25613
42445,25590
42445,25195
42447,25172
42453,25152
42463,25134
42476,25118
42492,25105
42510,25095
42530,25090
42552,25087
43047,25087
43069,25090
" /> 
<polyline style="fill-rule:evenodd;"
points="54469,25090
54489,25095
54507,25105
54523,25118
54536,25134
54546,25152
54552,25174
54556,25183
54561,25191
54568,25198
54576,25204
54585,25207
54595,25209
54604,25209
54614,25207
54623,25204
54631,25198
54638,25191
54643,25183
54647,25174
54653,25152
54663,25134
54676,25118
54692,25105
54710,25095
54730,25090
54752,25087
55247,25087
55269,25090
55289,25095
55307,25105
55323,25118
55336,25134
55346,25152
55352,25172
55354,25195
55354,25590
55352,25613
55346,25633
55336,25651
55323,25667
55307,25680
55289,25689
55269,25695
55247,25698
54752,25698
54730,25695
54710,25689
54692,25680
54676,25667
54663,25651
54653,25633
54647,25610
54643,25601
54638,25593
54631,25587
54623,25581
54614,25578
54604,25576
54595,25576
54585,25578
54576,25581
54568,25587
54561,25593
54556,25601
54552,25610
54546,25633
54536,25651
54523,25667
54507,25680
54489,25689
54469,25695
54447,25698
53952,25698
53930,25695
53910,25689
53892,25680
53876,25667
53863,25651
53853,25633
53847,25613
53845,25590
53845,25195
53847,25172
53853,25152
53863,25134
53876,25118
53892,25105
53910,25095
53930,25090
53952,25087
54447,25087
54469,25090
" /> 
<polyline style="fill-rule:evenodd;"
points="45969,24697
45989,24703
46007,24712
46023,24725
46036,24741
46046,24759
46052,24779
46054,24802
46054,25197
46052,25220
46046,25240
46036,25258
46023,25274
46007,25287
45989,25296
45969,25302
45947,25305
45452,25305
45430,25302
45410,25296
45392,25287
45376,25274
45363,25258
45353,25240
45347,25220
45345,25197
45345,24802
45347,24779
45353,24759
45363,24741
45376,24725
45392,24712
45410,24703
45430,24697
45452,24694
45947,24694
45969,24697
" /> 
<polyline style="fill-rule:evenodd;"
points="51010,24947
48589,24947
48589,24277
51010,24277
51010,24947
" /> 
<polyline style="fill-rule:evenodd;"
points="45969,23890
45989,23895
46007,23905
46023,23918
46036,23934
46046,23952
46052,23972
46054,23995
46054,24390
46052,24413
46046,24433
46036,24451
46023,24467
46007,24480
45989,24489
45969,24495
45947,24498
45452,24498
45430,24495
45410,24489
45392,24480
45376,24467
45363,24451
45353,24433
45347,24413
45345,24390
45345,23995
45347,23972
45353,23952
45363,23934
45376,23918
45392,23905
45410,23895
45430,23890
45452,23887
45947,23887
45969,23890
" /> 
<polyline style="fill-rule:evenodd;"
points="48422,24110
47752,24110
47752,21689
48422,21689
48422,24110
" /> 
<polyline style="fill-rule:evenodd;"
points="51847,24110
51177,24110
51177,21689
51847,21689
51847,24110
" /> 
<polyline style="fill-rule:evenodd;"
points="55008,24063
54181,24063
54181,23236
55008,23236
55008,24063
" /> 
<polyline style="fill-rule:evenodd;"
points="42541,23148
42609,23161
42677,23189
42738,23230
42790,23282
42831,23344
42859,23412
42874,23484
42874,23558
42859,23630
42831,23698
42790,23759
42738,23811
42677,23852
42609,23880
42563,23890
42536,23895
42463,23895
42436,23890
42390,23880
42322,23852
42261,23811
42209,23759
42168,23698
42140,23630
42125,23558
42125,23484
42140,23412
42168,23344
42209,23282
42261,23230
42322,23189
42390,23161
42458,23148
42463,23147
42536,23147
42541,23148
" /> 
<polyline style="fill-rule:evenodd;"
points="44313,23147
44333,23153
44351,23163
44367,23176
44380,23192
44389,23210
44395,23230
44398,23252
44398,23747
44395,23769
44389,23789
44380,23807
44367,23823
44351,23836
44333,23846
44313,23852
44290,23854
43895,23854
43872,23852
43852,23846
43834,23836
43818,23823
43805,23807
43795,23789
43790,23769
43787,23747
43787,23252
43790,23230
43795,23210
43805,23192
43818,23176
43834,23163
43852,23153
43872,23147
43895,23145
44290,23145
44313,23147
" /> 
<polyline style="fill-rule:evenodd;"
points="45120,23147
45140,23153
45158,23163
45174,23176
45187,23192
45196,23210
45202,23230
45205,23252
45205,23747
45202,23769
45196,23789
45187,23807
45174,23823
45158,23836
45140,23846
45120,23852
45097,23854
44702,23854
44679,23852
44659,23846
44641,23836
44625,23823
44612,23807
44603,23789
44597,23769
44594,23747
44594,23252
44597,23230
44603,23210
44612,23192
44625,23176
44641,23163
44659,23153
44679,23147
44702,23145
45097,23145
45120,23147
" /> 
<polyline style="fill-rule:evenodd;"
points="54645,22239
54676,22242
54727,22258
54753,22266
54825,22304
54888,22356
54940,22419
54978,22491
54978,22491
55002,22568
55010,22650
55002,22731
54986,22782
54978,22808
54940,22880
54888,22943
54825,22995
54753,23033
54727,23041
54676,23057
54645,23060
54615,23063
54574,23063
54544,23060
54513,23057
54462,23041
54436,23033
54364,22995
54301,22943
54249,22880
54211,22808
54203,22782
54187,22731
54179,22650
54187,22568
54211,22491
54211,22491
54249,22419
54301,22356
54364,22304
54436,22266
54462,22258
54513,22242
54544,22239
54574,22236
54615,22236
54645,22239
" /> 
<polyline style="fill-rule:evenodd;"
points="44813,21147
44833,21153
44851,21163
44867,21176
44880,21192
44889,21210
44895,21230
44898,21252
44898,21747
44895,21769
44889,21789
44880,21807
44867,21823
44851,21836
44833,21846
44810,21852
44801,21856
44793,21861
44787,21868
44781,21876
44778,21885
44776,21895
44776,21904
44778,21914
44781,21923
44787,21931
44793,21938
44801,21943
44810,21947
44833,21953
44851,21963
44867,21976
44880,21992
44889,22010
44895,22030
44898,22052
44898,22547
44895,22569
44889,22589
44880,22607
44867,22623
44851,22636
44833,22646
44813,22652
44790,22654
44395,22654
44372,22652
44352,22646
44334,22636
44318,22623
44305,22607
44295,22589
44290,22569
44287,22547
44287,22052
44290,22030
44295,22010
44305,21992
44318,21976
44334,21963
44352,21953
44374,21947
44383,21943
44391,21938
44398,21931
44404,21923
44407,21914
44409,21904
44409,21895
44407,21885
44404,21876
44398,21868
44391,21861
44383,21856
44374,21852
44352,21846
44334,21836
44318,21823
44305,21807
44295,21789
44290,21769
44287,21747
44287,21252
44290,21230
44295,21210
44305,21192
44318,21176
44334,21163
44352,21153
44372,21147
44395,21145
44790,21145
44813,21147
" /> 
<polyline style="fill-rule:evenodd;"
points="45620,21147
45640,21153
45658,21163
45674,21176
45687,21192
45696,21210
45702,21230
45705,21252
45705,21747
45702,21769
45696,21789
45687,21807
45674,21823
45658,21836
45640,21846
45617,21852
45609,21856
45601,21861
45594,21868
45588,21876
45585,21885
45583,21895
45583,21904
45585,21914
45588,21923
45594,21931
45601,21938
45609,21943
45617,21947
45640,21953
45658,21963
45674,21976
45687,21992
45696,22010
45702,22030
45705,22052
45705,22547
45702,22569
45696,22589
45687,22607
45674,22623
45658,22636
45640,22646
45620,22652
45597,22654
45202,22654
45179,22652
45159,22646
45141,22636
45125,22623
45112,22607
45103,22589
45097,22569
45094,22547
45094,22052
45097,22030
45103,22010
45112,21992
45125,21976
45141,21963
45159,21953
45182,21947
45190,21943
45198,21938
45205,21931
45211,21923
45214,21914
45216,21904
45216,21895
45214,21885
45211,21876
45205,21868
45198,21861
45190,21856
45182,21852
45159,21846
45141,21836
45125,21823
45112,21807
45103,21789
45097,21769
45094,21747
45094,21252
45097,21230
45103,21210
45112,21192
45125,21176
45141,21163
45159,21153
45179,21147
45202,21145
45597,21145
45620,21147
" /> 
<polyline style="fill-rule:evenodd;"
points="46691,21306
46749,21330
46800,21364
46844,21408
46879,21460
46902,21517
46914,21578
46914,21640
46902,21701
46879,21758
46844,21810
46800,21854
46786,21863
46778,21869
46772,21877
46768,21885
46765,21895
46764,21904
46765,21914
46768,21923
46772,21932
46778,21939
46786,21945
46800,21955
46844,21999
46879,22050
46902,22108
46914,22168
46914,22231
46902,22291
46879,22349
46844,22400
46800,22444
46749,22479
46691,22502
46631,22514
46568,22514
46508,22502
46450,22479
46399,22444
46355,22400
46320,22349
46297,22291
46285,22231
46285,22168
46297,22108
46320,22050
46355,21999
46399,21955
46413,21945
46421,21939
46427,21932
46431,21923
46434,21914
46435,21904
46434,21895
46431,21885
46427,21877
46421,21869
46413,21863
46399,21854
46355,21810
46320,21758
46297,21701
46285,21640
46285,21578
46297,21517
46320,21460
46355,21408
46399,21364
46450,21330
46508,21306
46568,21294
46631,21294
46691,21306
" /> 
<polyline style="fill-rule:evenodd;"
points="42544,21227
42609,21240
42677,21268
42738,21309
42790,21361
42831,21422
42859,21490
42864,21517
42874,21563
42874,21636
42870,21654
42859,21709
42831,21777
42790,21838
42738,21890
42677,21931
42609,21959
42554,21970
42536,21974
42463,21974
42445,21970
42390,21959
42322,21931
42261,21890
42209,21838
42168,21777
42140,21709
42129,21654
42125,21636
42125,21563
42135,21517
42140,21490
42168,21422
42209,21361
42261,21309
42322,21268
42390,21240
42455,21227
42463,21225
42536,21225
42544,21227
" /> 
<polyline style="fill-rule:evenodd;"
points="51010,21522
48589,21522
48589,20852
51010,20852
51010,21522
" /> 
<polyline style="fill-rule:evenodd;"
points="52213,20607
52233,20613
52251,20623
52267,20636
52280,20652
52289,20670
52295,20690
52298,20712
52298,21207
52295,21229
52289,21249
52280,21267
52267,21283
52251,21296
52233,21306
52213,21312
52190,21314
51795,21314
51772,21312
51752,21306
51734,21296
51718,21283
51705,21267
51695,21249
51690,21229
51687,21207
51687,20712
51690,20690
51695,20670
51705,20652
51718,20636
51734,20623
51752,20613
51772,20607
51795,20605
52190,20605
52213,20607
" /> 
<polyline style="fill-rule:evenodd;"
points="53020,20607
53040,20613
53058,20623
53074,20636
53087,20652
53096,20670
53102,20690
53105,20712
53105,21207
53102,21229
53096,21249
53087,21267
53074,21283
53058,21296
53040,21306
53020,21312
52997,21314
52602,21314
52579,21312
52559,21306
52541,21296
52525,21283
52512,21267
52503,21249
52497,21229
52494,21207
52494,20712
52497,20690
52503,20670
52512,20652
52525,20636
52541,20623
52559,20613
52579,20607
52602,20605
52997,20605
53020,20607
" /> 
<polyline style="fill-rule:evenodd;"
points="54650,20239
54681,20242
54732,20258
54758,20266
54830,20304
54893,20356
54945,20419
54983,20491
54983,20491
55007,20568
55015,20650
55007,20731
55005,20738
54983,20808
54945,20880
54893,20943
54830,20995
54758,21033
54732,21041
54681,21057
54650,21060
54620,21063
54579,21063
54549,21060
54518,21057
54467,21041
54441,21033
54369,20995
54306,20943
54254,20880
54216,20808
54194,20738
54192,20731
54184,20650
54192,20568
54216,20491
54216,20491
54254,20419
54306,20356
54369,20304
54441,20266
54467,20258
54518,20242
54549,20239
54579,20236
54620,20236
54650,20239
" /> 
<polyline style="fill-rule:evenodd;"
points="47693,20993
46906,20993
46906,20206
47693,20206
47693,20993
" /> 
<polyline style="fill-rule:evenodd;"
points="44469,19700
44489,19706
44507,19716
44523,19729
44536,19745
44546,19763
44552,19782
44554,19805
44554,20201
44552,20224
44546,20243
44536,20261
44523,20277
44507,20290
44489,20300
44469,20306
44447,20308
43952,20308
43930,20306
43910,20300
43892,20290
43876,20277
43863,20261
43853,20243
43847,20224
43845,20201
43845,19805
43847,19782
43853,19763
43863,19745
43876,19729
43892,19716
43910,19706
43930,19700
43952,19698
44447,19698
44469,19700
" /> 
<polyline style="fill-rule:evenodd;"
points="42720,19397
42740,19403
42758,19413
42774,19426
42787,19442
42796,19460
42802,19480
42805,19502
42805,19997
42802,20019
42796,20039
42787,20057
42774,20073
42758,20086
42740,20096
42720,20102
42697,20104
42302,20104
42279,20102
42259,20096
42241,20086
42225,20073
42212,20057
42203,20039
42197,20019
42194,19997
42194,19502
42197,19480
42203,19460
42212,19442
42225,19426
42241,19413
42259,19403
42279,19397
42302,19395
42697,19395
42720,19397
" /> 
<polyline style="fill-rule:evenodd;"
points="41913,19397
41933,19403
41951,19413
41967,19426
41980,19442
41989,19460
41995,19480
41998,19502
41998,19997
41995,20019
41989,20039
41980,20057
41967,20073
41951,20086
41933,20096
41913,20102
41890,20104
41495,20104
41472,20102
41452,20096
41434,20086
41418,20073
41405,20057
41395,20039
41390,20019
41387,19997
41387,19502
41390,19480
41395,19460
41405,19442
41418,19426
41434,19413
41452,19403
41472,19397
41495,19395
41890,19395
41913,19397
" /> 
<polyline style="fill-rule:evenodd;"
points="54650,19239
54681,19242
54732,19258
54758,19266
54830,19304
54893,19356
54945,19419
54983,19491
54983,19491
55007,19568
55015,19650
55007,19731
54992,19780
54983,19808
54945,19880
54893,19943
54830,19995
54758,20033
54739,20039
54681,20057
54650,20060
54620,20063
54579,20063
54549,20060
54518,20057
54460,20039
54441,20033
54369,19995
54306,19943
54254,19880
54216,19808
54207,19780
54192,19731
54184,19650
54192,19568
54216,19491
54216,19491
54254,19419
54306,19356
54369,19304
54441,19266
54467,19258
54518,19242
54549,19239
54579,19236
54620,19236
54650,19239
" /> 
<polyline style="fill-rule:evenodd;"
points="47369,19228
47414,19237
47486,19266
47550,19309
47605,19364
47648,19429
47678,19500
47693,19576
47693,19654
47678,19730
47648,19802
47605,19866
47550,19921
47486,19964
47414,19994
47369,20003
47338,20009
47261,20009
47230,20003
47185,19994
47113,19964
47049,19921
46994,19866
46951,19802
46921,19730
46906,19654
46906,19576
46921,19500
46951,19429
46994,19364
47049,19309
47113,19266
47185,19237
47230,19228
47261,19222
47338,19222
47369,19228
" /> 
<polyline style="fill-rule:evenodd;"
points="49469,19297
49489,19303
49507,19312
49523,19325
49536,19341
49546,19359
49552,19379
49554,19402
49554,19797
49552,19820
49546,19840
49536,19858
49523,19874
49507,19887
49489,19896
49469,19902
49447,19905
48952,19905
48930,19902
48910,19896
48892,19887
48876,19874
48863,19858
48853,19840
48847,19820
48845,19797
48845,19402
48847,19379
48853,19359
48863,19341
48876,19325
48892,19312
48910,19303
48930,19297
48952,19294
49447,19294
49469,19297
" /> 
<polyline style="fill-rule:evenodd;"
points="44469,18893
44489,18899
44507,18909
44523,18922
44536,18938
44546,18956
44552,18975
44554,18998
44554,19394
44552,19417
44546,19436
44536,19454
44523,19470
44507,19483
44489,19493
44469,19499
44447,19501
43952,19501
43930,19499
43910,19493
43892,19483
43876,19470
43863,19454
43853,19436
43847,19417
43845,19394
43845,18998
43847,18975
43853,18956
43863,18938
43876,18922
43892,18909
43910,18899
43930,18893
43952,18891
44447,18891
44469,18893
" /> 
<polyline style="fill-rule:evenodd;"
points="49469,18490
49489,18495
49507,18505
49523,18518
49536,18534
49546,18552
49552,18572
49554,18595
49554,18990
49552,19013
49546,19033
49536,19051
49523,19067
49507,19080
49489,19089
49469,19095
49447,19098
48952,19098
48930,19095
48910,19089
48892,19080
48876,19067
48863,19051
48853,19033
48847,19013
48845,18990
48845,18595
48847,18572
48853,18552
48863,18534
48876,18518
48892,18505
48910,18495
48930,18490
48952,18487
49447,18487
49469,18490
" /> 
<polyline style="fill-rule:evenodd;"
points="54650,18239
54681,18242
54732,18258
54758,18266
54830,18304
54893,18356
54945,18419
54983,18491
54989,18510
55007,18568
55015,18650
55007,18731
54991,18782
54983,18808
54945,18880
54893,18943
54830,18995
54758,19033
54732,19041
54681,19057
54663,19059
54620,19063
54579,19063
54536,19059
54518,19057
54467,19041
54441,19033
54369,18995
54306,18943
54254,18880
54216,18808
54208,18782
54192,18731
54184,18650
54192,18568
54210,18510
54216,18491
54254,18419
54306,18356
54369,18304
54441,18266
54467,18258
54518,18242
54549,18239
54579,18236
54620,18236
54650,18239
" /> 
<polyline style="fill-rule:evenodd;"
points="42763,18063
41936,18063
41936,17236
42763,17236
42763,18063
" /> 
<polyline style="fill-rule:evenodd;"
points="55013,18063
54186,18063
54186,17236
55013,17236
55013,18063
" /> 
<polyline style="fill-rule:evenodd;"
points="53022,17929
52077,17929
52077,11670
53022,11670
53022,17929
" /> 
<polyline style="fill-rule:evenodd;"
points="46586,11669
46596,11670
46722,11670
46722,11700
46723,11709
46726,11718
46730,11727
46736,11734
46744,11741
46751,11745
46804,11798
46804,11798
46845,11860
46867,11913
46874,11929
46888,12002
46888,12077
46874,12150
46874,12150
46845,12219
46845,12219
46804,12281
46751,12334
46744,12338
46736,12345
46730,12352
46726,12361
46723,12370
46722,12379
46722,12408
46722,12412
46722,17929
45777,17929
45777,12467
45777,12463
45777,11670
46423,11670
46433,11669
46472,11661
46547,11661
46586,11669
" /> 
<polyline style="fill-rule:evenodd;"
points="42400,16239
42431,16242
42482,16258
42508,16266
42580,16304
42643,16356
42695,16419
42733,16491
42733,16491
42757,16568
42765,16650
42757,16731
42741,16782
42733,16808
42695,16880
42643,16943
42580,16995
42508,17033
42482,17041
42431,17057
42400,17060
42370,17063
42329,17063
42299,17060
42268,17057
42217,17041
42191,17033
42119,16995
42056,16943
42004,16880
41966,16808
41958,16782
41942,16731
41934,16650
41942,16568
41966,16491
41966,16491
42004,16419
42056,16356
42119,16304
42191,16266
42217,16258
42268,16242
42299,16239
42329,16236
42370,16236
42400,16239
" /> 
<polyline style="fill-rule:evenodd;"
points="54650,15289
54681,15292
54732,15308
54758,15316
54830,15354
54893,15406
54945,15469
54983,15541
54983,15541
55007,15618
55015,15700
55007,15781
54999,15805
54983,15858
54945,15930
54893,15993
54830,16045
54758,16083
54732,16091
54681,16107
54650,16110
54620,16113
54579,16113
54549,16110
54518,16107
54467,16091
54441,16083
54369,16045
54306,15993
54254,15930
54216,15858
54200,15805
54192,15781
54184,15700
54192,15618
54216,15541
54216,15541
54254,15469
54306,15406
54369,15354
54441,15316
54467,15308
54518,15292
54549,15289
54579,15286
54620,15286
54650,15289
" /> 
<polyline style="fill-rule:evenodd;"
points="44293,15218
44294,15227
44297,15237
44301,15245
44308,15253
44315,15259
44324,15263
44333,15266
44342,15267
44352,15266
44361,15263
44370,15259
44377,15253
44378,15251
44381,15249
44381,15249
44436,15194
44500,15151
44572,15121
44618,15112
44648,15106
44726,15106
44756,15112
44802,15121
44873,15151
44938,15194
44993,15249
45036,15313
45065,15385
45081,15461
45081,15538
45065,15614
45036,15686
44993,15750
44938,15805
44873,15848
44802,15878
44756,15887
44726,15893
44648,15893
44618,15887
44572,15878
44500,15848
44436,15805
44381,15750
44381,15750
44378,15748
44377,15746
44370,15740
44361,15736
44352,15733
44342,15732
44333,15733
44324,15736
44315,15740
44308,15746
44301,15754
44297,15762
44294,15772
44293,15781
44293,15893
43506,15893
43506,15106
44293,15106
44293,15218
" /> 
<polyline style="fill-rule:evenodd;"
points="54650,14289
54681,14292
54732,14308
54758,14316
54830,14354
54893,14406
54945,14469
54983,14541
54983,14541
55007,14618
55015,14700
55007,14781
54995,14819
54983,14858
54945,14930
54893,14993
54830,15045
54758,15083
54732,15091
54681,15107
54650,15110
54620,15113
54579,15113
54549,15110
54518,15107
54467,15091
54441,15083
54369,15045
54306,14993
54254,14930
54216,14858
54204,14819
54192,14781
54184,14700
54192,14618
54216,14541
54216,14541
54254,14469
54306,14406
54369,14354
54441,14316
54467,14308
54518,14292
54549,14289
54579,14286
54620,14286
54650,14289
" /> 
<polyline style="fill-rule:evenodd;"
points="54650,13289
54681,13292
54732,13308
54758,13316
54830,13354
54893,13406
54945,13469
54983,13541
54983,13541
55007,13618
55015,13700
55007,13781
55002,13797
54983,13858
54945,13930
54893,13993
54830,14045
54758,14083
54732,14091
54681,14107
54650,14110
54620,14113
54579,14113
54549,14110
54518,14107
54467,14091
54441,14083
54369,14045
54306,13993
54254,13930
54216,13858
54197,13797
54192,13781
54184,13700
54192,13618
54216,13541
54216,13541
54254,13469
54306,13406
54369,13354
54441,13316
54467,13308
54518,13292
54549,13289
54579,13286
54620,13286
54650,13289
" /> 
<polyline style="fill-rule:evenodd;"
points="45069,13297
45089,13303
45107,13312
45123,13325
45136,13341
45146,13359
45152,13379
45154,13402
45154,13797
45152,13820
45146,13840
45136,13858
45123,13874
45107,13887
45089,13896
45069,13902
45047,13905
44552,13905
44530,13902
44510,13896
44492,13887
44476,13874
44463,13858
44453,13840
44447,13820
44445,13797
44445,13402
44447,13379
44453,13359
44463,13341
44476,13325
44492,13312
44510,13303
44530,13297
44552,13294
45047,13294
45069,13297
" /> 
<polyline style="fill-rule:evenodd;"
points="44169,13297
44189,13303
44207,13312
44223,13325
44236,13341
44246,13359
44252,13379
44254,13402
44254,13797
44252,13820
44246,13840
44236,13858
44223,13874
44207,13887
44189,13896
44169,13902
44147,13905
43652,13905
43630,13902
43610,13896
43592,13887
43576,13874
43563,13858
43553,13840
43547,13820
43545,13797
43545,13402
43547,13379
43553,13359
43563,13341
43576,13325
43592,13312
43610,13303
43630,13297
43652,13294
44147,13294
44169,13297
" /> 
<polyline style="fill-rule:evenodd;"
points="55013,13113
54186,13113
54186,12286
55013,12286
55013,13113
" /> 
<polyline style="fill-rule:evenodd;"
points="44169,12490
44189,12495
44207,12505
44223,12518
44236,12534
44246,12552
44252,12572
44254,12595
44254,12990
44252,13013
44246,13033
44236,13051
44223,13067
44207,13080
44189,13089
44169,13095
44147,13098
43652,13098
43630,13095
43610,13089
43592,13080
43576,13067
43563,13051
43553,13033
43547,13013
43545,12990
43545,12595
43547,12572
43553,12552
43563,12534
43576,12518
43592,12505
43610,12495
43630,12490
43652,12487
44147,12487
44169,12490
" /> 
<polyline style="fill-rule:evenodd;"
points="45069,12490
45089,12495
45107,12505
45123,12518
45136,12534
45146,12552
45152,12572
45154,12595
45154,12990
45152,13013
45146,13033
45136,13051
45123,13067
45107,13080
45089,13089
45069,13095
45047,13098
44552,13098
44530,13095
44510,13089
44492,13080
44476,13067
44463,13051
44453,13033
44447,13013
44445,12990
44445,12595
44447,12572
44453,12552
44463,12534
44476,12518
44492,12505
44510,12495
44530,12490
44552,12487
45047,12487
45069,12490
" /> 
</g> 
</svg>
