<?xml version="1.0" standalone="no"?>
 <!DOCTYPE svg PUBLIC "-//W3C//DTD SVG 1.1//EN" 
 "http://www.w3.org/Graphics/SVG/1.1/DTD/svg11.dtd"> 
<svg xmlns="http://www.w3.org/2000/svg" version="1.1" 
    width="29.7002cm" height="21.0007cm" viewBox="0 0 116930 82680 ">
<title>SVG Picture created as placa-F.Mask.svg date 2018/10/02 15:08:29 </title>
  <desc>Picture generated by PCBNEW </desc>
<g style="fill:#000000; fill-opacity:1;stroke:#000000; stroke-opacity:1;
stroke-linecap:round; stroke-linejoin:round; "
 transform="translate(0 0) scale(1 1)">
</g>
<g style="fill:#000000; fill-opacity:0.0; 
stroke:#000000; stroke-width:-0.000393701; stroke-opacity:1; 
stroke-linecap:round; stroke-linejoin:round;">
</g>
<g style="fill:#000000; fill-opacity:1.0; 
stroke:#000000; stroke-width:39.3701; stroke-opacity:1; 
stroke-linecap:round; stroke-linejoin:round;">
<rect x="38802" y="8701.97" width="18996.1" height="41496.1" rx="0" />
</g>
<g style="fill:#FFFFFF; fill-opacity:1.0; 
stroke:#FFFFFF; stroke-width:39.3701; stroke-opacity:1; 
stroke-linecap:round; stroke-linejoin:round;">
</g>
<g style="fill:#FFFFFF; fill-opacity:1.0; 
stroke:#FFFFFF; stroke-width:0; stroke-opacity:1; 
stroke-linecap:round; stroke-linejoin:round;">
<circle cx="49461" cy="30268.1" r="378.74" /> 
</g>
<g style="fill:#FFFFFF; fill-opacity:1.0; 
stroke:#FFFFFF; stroke-width:39.3701; stroke-opacity:1; 
stroke-linecap:round; stroke-linejoin:round;">
</g>
<g style="fill:#FFFFFF; fill-opacity:1.0; 
stroke:#FFFFFF; stroke-width:0; stroke-opacity:1; 
stroke-linecap:round; stroke-linejoin:round;">
<circle cx="47098.8" cy="30268.1" r="378.74" /> 
</g>
<g style="fill:#FFFFFF; fill-opacity:1.0; 
stroke:#FFFFFF; stroke-width:39.3701; stroke-opacity:1; 
stroke-linecap:round; stroke-linejoin:round;">
</g>
<g style="fill:#FFFFFF; fill-opacity:1.0; 
stroke:#FFFFFF; stroke-width:0; stroke-opacity:1; 
stroke-linecap:round; stroke-linejoin:round;">
<circle cx="46510" cy="12040" r="378.74" /> 
</g>
<g style="fill:#FFFFFF; fill-opacity:1.0; 
stroke:#FFFFFF; stroke-width:39.3701; stroke-opacity:1; 
stroke-linecap:round; stroke-linejoin:round;">
</g>
<g style="fill:#FFFFFF; fill-opacity:1.0; 
stroke:#FFFFFF; stroke-width:0; stroke-opacity:1; 
stroke-linecap:round; stroke-linejoin:round;">
<polyline style="fill-rule:evenodd;"
points="45777,12418
45777,11670
46722,11670
46722,12418
45777,12418
" /> 
<polyline style="fill-rule:evenodd;"
points="45777,13205
45777,12457
46722,12457
46722,13205
45777,13205
" /> 
<polyline style="fill-rule:evenodd;"
points="45777,13992
45777,13244
46722,13244
46722,13992
45777,13992
" /> 
<polyline style="fill-rule:evenodd;"
points="45777,14780
45777,14032
46722,14032
46722,14780
45777,14780
" /> 
<polyline style="fill-rule:evenodd;"
points="45777,15567
45777,14819
46722,14819
46722,15567
45777,15567
" /> 
<polyline style="fill-rule:evenodd;"
points="45777,16355
45777,15607
46722,15607
46722,16355
45777,16355
" /> 
<polyline style="fill-rule:evenodd;"
points="45777,17142
45777,16394
46722,16394
46722,17142
45777,17142
" /> 
<polyline style="fill-rule:evenodd;"
points="45777,17929
45777,17181
46722,17181
46722,17929
45777,17929
" /> 
<polyline style="fill-rule:evenodd;"
points="52077,17929
52077,17181
53022,17181
53022,17929
52077,17929
" /> 
<polyline style="fill-rule:evenodd;"
points="52077,17142
52077,16394
53022,16394
53022,17142
52077,17142
" /> 
<polyline style="fill-rule:evenodd;"
points="52077,16355
52077,15607
53022,15607
53022,16355
52077,16355
" /> 
<polyline style="fill-rule:evenodd;"
points="52077,15567
52077,14819
53022,14819
53022,15567
52077,15567
" /> 
<polyline style="fill-rule:evenodd;"
points="52077,14780
52077,14032
53022,14032
53022,14780
52077,14780
" /> 
<polyline style="fill-rule:evenodd;"
points="52077,13992
52077,13244
53022,13244
53022,13992
52077,13992
" /> 
<polyline style="fill-rule:evenodd;"
points="52077,13205
52077,12457
53022,12457
53022,13205
52077,13205
" /> 
<polyline style="fill-rule:evenodd;"
points="52077,12418
52077,11670
53022,11670
53022,12418
52077,12418
" /> 
<polyline style="fill-rule:evenodd;"
points="47752,21945
47752,21689
48422,21689
48422,21945
47752,21945
" /> 
<polyline style="fill-rule:evenodd;"
points="47752,22142
47752,21886
48422,21886
48422,22142
47752,22142
" /> 
<polyline style="fill-rule:evenodd;"
points="47752,22338
47752,22083
48422,22083
48422,22338
47752,22338
" /> 
<polyline style="fill-rule:evenodd;"
points="47752,22535
47752,22279
48422,22279
48422,22535
47752,22535
" /> 
<polyline style="fill-rule:evenodd;"
points="47752,22732
47752,22476
48422,22476
48422,22732
47752,22732
" /> 
<polyline style="fill-rule:evenodd;"
points="47752,22929
47752,22673
48422,22673
48422,22929
47752,22929
" /> 
<polyline style="fill-rule:evenodd;"
points="47752,23126
47752,22870
48422,22870
48422,23126
47752,23126
" /> 
<polyline style="fill-rule:evenodd;"
points="47752,23323
47752,23067
48422,23067
48422,23323
47752,23323
" /> 
<polyline style="fill-rule:evenodd;"
points="47752,23520
47752,23264
48422,23264
48422,23520
47752,23520
" /> 
<polyline style="fill-rule:evenodd;"
points="47752,23716
47752,23461
48422,23461
48422,23716
47752,23716
" /> 
<polyline style="fill-rule:evenodd;"
points="47752,23913
47752,23657
48422,23657
48422,23913
47752,23913
" /> 
<polyline style="fill-rule:evenodd;"
points="47752,24110
47752,23854
48422,23854
48422,24110
47752,24110
" /> 
<polyline style="fill-rule:evenodd;"
points="48845,24947
48589,24947
48589,24277
48845,24277
48845,24947
" /> 
<polyline style="fill-rule:evenodd;"
points="49042,24947
48786,24947
48786,24277
49042,24277
49042,24947
" /> 
<polyline style="fill-rule:evenodd;"
points="49238,24947
48983,24947
48983,24277
49238,24277
49238,24947
" /> 
<polyline style="fill-rule:evenodd;"
points="49435,24947
49179,24947
49179,24277
49435,24277
49435,24947
" /> 
<polyline style="fill-rule:evenodd;"
points="49632,24947
49376,24947
49376,24277
49632,24277
49632,24947
" /> 
<polyline style="fill-rule:evenodd;"
points="49829,24947
49573,24947
49573,24277
49829,24277
49829,24947
" /> 
<polyline style="fill-rule:evenodd;"
points="50026,24947
49770,24947
49770,24277
50026,24277
50026,24947
" /> 
<polyline style="fill-rule:evenodd;"
points="50223,24947
49967,24947
49967,24277
50223,24277
50223,24947
" /> 
<polyline style="fill-rule:evenodd;"
points="50420,24947
50164,24947
50164,24277
50420,24277
50420,24947
" /> 
<polyline style="fill-rule:evenodd;"
points="50616,24947
50361,24947
50361,24277
50616,24277
50616,24947
" /> 
<polyline style="fill-rule:evenodd;"
points="50813,24947
50557,24947
50557,24277
50813,24277
50813,24947
" /> 
<polyline style="fill-rule:evenodd;"
points="51010,24947
50754,24947
50754,24277
51010,24277
51010,24947
" /> 
<polyline style="fill-rule:evenodd;"
points="51177,24110
51177,23854
51847,23854
51847,24110
51177,24110
" /> 
<polyline style="fill-rule:evenodd;"
points="51177,23913
51177,23657
51847,23657
51847,23913
51177,23913
" /> 
<polyline style="fill-rule:evenodd;"
points="51177,23716
51177,23461
51847,23461
51847,23716
51177,23716
" /> 
<polyline style="fill-rule:evenodd;"
points="51177,23520
51177,23264
51847,23264
51847,23520
51177,23520
" /> 
<polyline style="fill-rule:evenodd;"
points="51177,23323
51177,23067
51847,23067
51847,23323
51177,23323
" /> 
<polyline style="fill-rule:evenodd;"
points="51177,23126
51177,22870
51847,22870
51847,23126
51177,23126
" /> 
<polyline style="fill-rule:evenodd;"
points="51177,22929
51177,22673
51847,22673
51847,22929
51177,22929
" /> 
<polyline style="fill-rule:evenodd;"
points="51177,22732
51177,22476
51847,22476
51847,22732
51177,22732
" /> 
<polyline style="fill-rule:evenodd;"
points="51177,22535
51177,22279
51847,22279
51847,22535
51177,22535
" /> 
<polyline style="fill-rule:evenodd;"
points="51177,22338
51177,22083
51847,22083
51847,22338
51177,22338
" /> 
<polyline style="fill-rule:evenodd;"
points="51177,22142
51177,21886
51847,21886
51847,22142
51177,22142
" /> 
<polyline style="fill-rule:evenodd;"
points="51177,21945
51177,21689
51847,21689
51847,21945
51177,21945
" /> 
<polyline style="fill-rule:evenodd;"
points="51010,21522
50754,21522
50754,20852
51010,20852
51010,21522
" /> 
<polyline style="fill-rule:evenodd;"
points="50813,21522
50557,21522
50557,20852
50813,20852
50813,21522
" /> 
<polyline style="fill-rule:evenodd;"
points="50616,21522
50361,21522
50361,20852
50616,20852
50616,21522
" /> 
<polyline style="fill-rule:evenodd;"
points="50420,21522
50164,21522
50164,20852
50420,20852
50420,21522
" /> 
<polyline style="fill-rule:evenodd;"
points="50223,21522
49967,21522
49967,20852
50223,20852
50223,21522
" /> 
<polyline style="fill-rule:evenodd;"
points="50026,21522
49770,21522
49770,20852
50026,20852
50026,21522
" /> 
<polyline style="fill-rule:evenodd;"
points="49829,21522
49573,21522
49573,20852
49829,20852
49829,21522
" /> 
<polyline style="fill-rule:evenodd;"
points="49632,21522
49376,21522
49376,20852
49632,20852
49632,21522
" /> 
<polyline style="fill-rule:evenodd;"
points="49435,21522
49179,21522
49179,20852
49435,20852
49435,21522
" /> 
<polyline style="fill-rule:evenodd;"
points="49238,21522
48983,21522
48983,20852
49238,20852
49238,21522
" /> 
<polyline style="fill-rule:evenodd;"
points="49042,21522
48786,21522
48786,20852
49042,20852
49042,21522
" /> 
<polyline style="fill-rule:evenodd;"
points="48845,21522
48589,21522
48589,20852
48845,20852
48845,21522
" /> 
<polyline style="fill-rule:evenodd;"
points="51892,26146
51905,26148
51918,26151
51930,26155
51942,26161
51953,26168
51963,26175
51973,26184
51982,26194
51989,26204
51996,26215
52002,26227
52006,26239
52009,26252
52011,26265
52012,26278
52012,26721
52011,26734
52009,26747
52006,26760
52002,26772
51996,26784
51989,26795
51982,26805
51973,26815
51963,26824
51953,26831
51942,26838
51930,26844
51918,26848
51905,26851
51892,26853
51879,26854
51534,26854
51521,26853
51508,26851
51496,26848
51483,26844
51472,26838
51460,26831
51450,26824
51440,26815
51432,26805
51424,26795
51417,26784
51412,26772
51407,26760
51404,26747
51402,26734
51401,26721
51401,26278
51402,26265
51404,26252
51407,26239
51412,26227
51417,26215
51424,26204
51432,26194
51440,26184
51450,26175
51460,26168
51472,26161
51483,26155
51496,26151
51508,26148
51521,26146
51534,26145
51879,26145
51892,26146
" /> 
<polyline style="fill-rule:evenodd;"
points="51085,26146
51098,26148
51110,26151
51123,26155
51134,26161
51146,26168
51156,26175
51166,26184
51175,26194
51182,26204
51189,26215
51195,26227
51199,26239
51202,26252
51204,26265
51205,26278
51205,26721
51204,26734
51202,26747
51199,26760
51195,26772
51189,26784
51182,26795
51175,26805
51166,26815
51156,26824
51146,26831
51134,26838
51123,26844
51110,26848
51098,26851
51085,26853
51072,26854
50727,26854
50714,26853
50701,26851
50689,26848
50676,26844
50665,26838
50653,26831
50643,26824
50633,26815
50624,26805
50617,26795
50610,26784
50604,26772
50600,26760
50597,26747
50595,26734
50594,26721
50594,26278
50595,26265
50597,26252
50600,26239
50604,26227
50610,26215
50617,26204
50624,26194
50633,26184
50643,26175
50653,26168
50665,26161
50676,26155
50689,26151
50701,26148
50714,26146
50727,26145
51072,26145
51085,26146
" /> 
<circle cx="46600" cy="22200" r="295.276" /> 
</g>
<g style="fill:#FFFFFF; fill-opacity:1.0; 
stroke:#FFFFFF; stroke-width:39.3701; stroke-opacity:1; 
stroke-linecap:round; stroke-linejoin:round;">
</g>
<g style="fill:#FFFFFF; fill-opacity:1.0; 
stroke:#FFFFFF; stroke-width:0; stroke-opacity:1; 
stroke-linecap:round; stroke-linejoin:round;">
<circle cx="46600" cy="21609.4" r="295.276" /> 
</g>
<g style="fill:#FFFFFF; fill-opacity:1.0; 
stroke:#FFFFFF; stroke-width:39.3701; stroke-opacity:1; 
stroke-linecap:round; stroke-linejoin:round;">
</g>
<g style="fill:#FFFFFF; fill-opacity:1.0; 
stroke:#FFFFFF; stroke-width:0; stroke-opacity:1; 
stroke-linecap:round; stroke-linejoin:round;">
<circle cx="48400" cy="26352" r="354.331" /> 
</g>
<g style="fill:#FFFFFF; fill-opacity:1.0; 
stroke:#FFFFFF; stroke-width:39.3701; stroke-opacity:1; 
stroke-linecap:round; stroke-linejoin:round;">
</g>
<g style="fill:#FFFFFF; fill-opacity:1.0; 
stroke:#FFFFFF; stroke-width:708.661; stroke-opacity:1; 
stroke-linecap:round; stroke-linejoin:round;">
</g>
<g style="fill:#FFFFFF; fill-opacity:0.0; 
stroke:#FFFFFF; stroke-width:708.661; stroke-opacity:1; 
stroke-linecap:round; stroke-linejoin:round;">
<path d="M48400 25603
L48400 25603
" />
</g>
<g style="fill:#FFFFFF; fill-opacity:0.0; 
stroke:#FFFFFF; stroke-width:0; stroke-opacity:1; 
stroke-linecap:round; stroke-linejoin:round;">
</g>
<g style="fill:#FFFFFF; fill-opacity:1.0; 
stroke:#FFFFFF; stroke-width:0; stroke-opacity:1; 
stroke-linecap:round; stroke-linejoin:round;">
<polyline style="fill-rule:evenodd;"
points="52475,20606
52488,20608
52500,20611
52513,20615
52524,20621
52536,20628
52546,20635
52556,20644
52565,20654
52572,20664
52579,20675
52585,20687
52589,20699
52592,20712
52594,20725
52595,20738
52595,21181
52594,21194
52592,21207
52589,21220
52585,21232
52579,21244
52572,21255
52565,21265
52556,21275
52546,21284
52536,21291
52524,21298
52513,21304
52500,21308
52488,21311
52475,21313
52462,21314
52117,21314
52104,21313
52091,21311
52079,21308
52066,21304
52055,21298
52043,21291
52033,21284
52023,21275
52014,21265
52007,21255
52000,21244
51994,21232
51990,21220
51987,21207
51985,21194
51984,21181
51984,20738
51985,20725
51987,20712
51990,20699
51994,20687
52000,20675
52007,20664
52014,20654
52023,20644
52033,20635
52043,20628
52055,20621
52066,20615
52079,20611
52091,20608
52104,20606
52117,20605
52462,20605
52475,20606
" /> 
<polyline style="fill-rule:evenodd;"
points="53282,20606
53295,20608
53308,20611
53320,20615
53332,20621
53343,20628
53353,20635
53363,20644
53372,20654
53379,20664
53386,20675
53392,20687
53396,20699
53399,20712
53401,20725
53402,20738
53402,21181
53401,21194
53399,21207
53396,21220
53392,21232
53386,21244
53379,21255
53372,21265
53363,21275
53353,21284
53343,21291
53332,21298
53320,21304
53308,21308
53295,21311
53282,21313
53269,21314
52924,21314
52911,21313
52898,21311
52886,21308
52873,21304
52862,21298
52850,21291
52840,21284
52830,21275
52822,21265
52814,21255
52807,21244
52802,21232
52797,21220
52794,21207
52792,21194
52791,21181
52791,20738
52792,20725
52794,20712
52797,20699
52802,20687
52807,20675
52814,20664
52822,20654
52830,20644
52840,20635
52850,20628
52862,20621
52873,20615
52886,20611
52898,20608
52911,20606
52924,20605
53269,20605
53282,20606
" /> 
<polyline style="fill-rule:evenodd;"
points="43534,25088
43547,25090
43560,25093
43572,25097
43584,25103
43595,25110
43605,25117
43615,25126
43624,25136
43631,25146
43638,25157
43644,25169
43648,25181
43651,25194
43653,25207
43654,25220
43654,25565
43653,25578
43651,25591
43648,25603
43644,25616
43638,25627
43631,25639
43624,25649
43615,25659
43605,25667
43595,25675
43584,25682
43572,25687
43560,25692
43547,25695
43534,25697
43521,25698
43078,25698
43065,25697
43052,25695
43039,25692
43027,25687
43015,25682
43004,25675
42994,25667
42984,25659
42975,25649
42968,25639
42961,25627
42955,25616
42951,25603
42948,25591
42946,25578
42945,25565
42945,25220
42946,25207
42948,25194
42951,25181
42955,25169
42961,25157
42968,25146
42975,25136
42984,25126
42994,25117
43004,25110
43015,25103
43027,25097
43039,25093
43052,25090
43065,25088
43078,25087
43521,25087
43534,25088
" /> 
<polyline style="fill-rule:evenodd;"
points="43534,25895
43547,25897
43560,25900
43572,25904
43584,25910
43595,25917
43605,25924
43615,25933
43624,25943
43631,25953
43638,25965
43644,25976
43648,25989
43651,26001
43653,26014
43654,26027
43654,26372
43653,26385
43651,26398
43648,26410
43644,26423
43638,26434
43631,26446
43624,26456
43615,26466
43605,26475
43595,26482
43584,26489
43572,26495
43560,26499
43547,26502
43534,26504
43521,26505
43078,26505
43065,26504
43052,26502
43039,26499
43027,26495
43015,26489
43004,26482
42994,26475
42984,26466
42975,26456
42968,26446
42961,26434
42955,26423
42951,26410
42948,26398
42946,26385
42945,26372
42945,26027
42946,26014
42948,26001
42951,25989
42955,25976
42961,25965
42968,25953
42975,25943
42984,25933
42994,25924
43004,25917
43015,25910
43027,25904
43039,25900
43052,25897
43065,25895
43078,25894
43521,25894
43534,25895
" /> 
<polyline style="fill-rule:evenodd;"
points="51889,25346
51901,25348
51914,25351
51926,25355
51938,25361
51949,25368
51960,25375
51969,25384
51978,25394
51986,25404
51992,25415
51998,25427
52002,25439
52006,25452
52008,25465
52008,25478
52008,25921
52008,25934
52006,25947
52002,25960
51998,25972
51992,25984
51986,25995
51978,26005
51969,26015
51960,26024
51949,26031
51938,26038
51926,26044
51914,26048
51901,26051
51889,26053
51876,26054
51531,26054
51518,26053
51505,26051
51492,26048
51480,26044
51468,26038
51457,26031
51446,26024
51437,26015
51428,26005
51420,25995
51414,25984
51408,25972
51404,25960
51400,25947
51399,25934
51398,25921
51398,25478
51399,25465
51400,25452
51404,25439
51408,25427
51414,25415
51420,25404
51428,25394
51437,25384
51446,25375
51457,25368
51468,25361
51480,25355
51492,25351
51505,25348
51518,25346
51531,25345
51876,25345
51889,25346
" /> 
<polyline style="fill-rule:evenodd;"
points="51081,25346
51094,25348
51107,25351
51119,25355
51131,25361
51142,25368
51153,25375
51162,25384
51171,25394
51179,25404
51185,25415
51191,25427
51195,25439
51199,25452
51200,25465
51201,25478
51201,25921
51200,25934
51199,25947
51195,25960
51191,25972
51185,25984
51179,25995
51171,26005
51162,26015
51153,26024
51142,26031
51131,26038
51119,26044
51107,26048
51094,26051
51081,26053
51068,26054
50723,26054
50710,26053
50698,26051
50685,26048
50673,26044
50661,26038
50650,26031
50639,26024
50630,26015
50621,26005
50613,25995
50607,25984
50601,25972
50597,25960
50593,25947
50591,25934
50591,25921
50591,25478
50591,25465
50593,25452
50597,25439
50601,25427
50607,25415
50613,25404
50621,25394
50630,25384
50639,25375
50650,25368
50661,25361
50673,25355
50685,25351
50698,25348
50710,25346
50723,25345
51068,25345
51081,25346
" /> 
<polyline style="fill-rule:evenodd;"
points="47693,20993
46906,20993
46906,20206
47693,20206
47693,20993
" /> 
<circle cx="47300" cy="19615.7" r="393.701" /> 
</g>
<g style="fill:#FFFFFF; fill-opacity:1.0; 
stroke:#FFFFFF; stroke-width:39.3701; stroke-opacity:1; 
stroke-linecap:round; stroke-linejoin:round;">
</g>
<g style="fill:#FFFFFF; fill-opacity:1.0; 
stroke:#FFFFFF; stroke-width:0; stroke-opacity:1; 
stroke-linecap:round; stroke-linejoin:round;">
<polyline style="fill-rule:evenodd;"
points="43506,15893
43506,15106
44293,15106
44293,15893
43506,15893
" /> 
<circle cx="44687.4" cy="15500" r="393.701" /> 
</g>
<g style="fill:#FFFFFF; fill-opacity:1.0; 
stroke:#FFFFFF; stroke-width:39.3701; stroke-opacity:1; 
stroke-linecap:round; stroke-linejoin:round;">
</g>
<g style="fill:#FFFFFF; fill-opacity:1.0; 
stroke:#FFFFFF; stroke-width:0; stroke-opacity:1; 
stroke-linecap:round; stroke-linejoin:round;">
<polyline style="fill-rule:evenodd;"
points="42685,19396
42698,19398
42710,19401
42723,19405
42734,19411
42746,19418
42756,19425
42766,19434
42775,19444
42782,19454
42789,19465
42795,19477
42799,19489
42802,19502
42804,19515
42805,19528
42805,19971
42804,19984
42802,19997
42799,20010
42795,20022
42789,20034
42782,20045
42775,20055
42766,20065
42756,20074
42746,20081
42734,20088
42723,20094
42710,20098
42698,20101
42685,20103
42672,20104
42327,20104
42314,20103
42301,20101
42289,20098
42276,20094
42265,20088
42253,20081
42243,20074
42233,20065
42224,20055
42217,20045
42210,20034
42204,20022
42200,20010
42197,19997
42195,19984
42194,19971
42194,19528
42195,19515
42197,19502
42200,19489
42204,19477
42210,19465
42217,19454
42224,19444
42233,19434
42243,19425
42253,19418
42265,19411
42276,19405
42289,19401
42301,19398
42314,19396
42327,19395
42672,19395
42685,19396
" /> 
<polyline style="fill-rule:evenodd;"
points="41878,19396
41891,19398
41903,19401
41916,19405
41927,19411
41939,19418
41949,19425
41959,19434
41967,19444
41975,19454
41982,19465
41987,19477
41992,19489
41995,19502
41997,19515
41998,19528
41998,19971
41997,19984
41995,19997
41992,20010
41987,20022
41982,20034
41975,20045
41967,20055
41959,20065
41949,20074
41939,20081
41927,20088
41916,20094
41903,20098
41891,20101
41878,20103
41865,20104
41520,20104
41507,20103
41494,20101
41481,20098
41469,20094
41457,20088
41446,20081
41436,20074
41426,20065
41417,20055
41410,20045
41403,20034
41397,20022
41393,20010
41390,19997
41388,19984
41387,19971
41387,19528
41388,19515
41390,19502
41393,19489
41397,19477
41403,19465
41410,19454
41417,19444
41426,19434
41436,19425
41446,19418
41457,19411
41469,19405
41481,19401
41494,19398
41507,19396
41520,19395
41865,19395
41878,19396
" /> 
<polyline style="fill-rule:evenodd;"
points="45534,25895
45547,25897
45560,25900
45572,25904
45584,25910
45595,25917
45605,25924
45615,25933
45624,25943
45631,25953
45638,25965
45644,25976
45648,25989
45651,26001
45653,26014
45654,26027
45654,26372
45653,26385
45651,26398
45648,26410
45644,26423
45638,26434
45631,26446
45624,26456
45615,26466
45605,26475
45595,26482
45584,26489
45572,26495
45560,26499
45547,26502
45534,26504
45521,26505
45078,26505
45065,26504
45052,26502
45039,26499
45027,26495
45015,26489
45004,26482
44994,26475
44984,26466
44975,26456
44968,26446
44961,26434
44955,26423
44951,26410
44948,26398
44946,26385
44945,26372
44945,26027
44946,26014
44948,26001
44951,25989
44955,25976
44961,25965
44968,25953
44975,25943
44984,25933
44994,25924
45004,25917
45015,25910
45027,25904
45039,25900
45052,25897
45065,25895
45078,25894
45521,25894
45534,25895
" /> 
<polyline style="fill-rule:evenodd;"
points="45534,25088
45547,25090
45560,25093
45572,25097
45584,25103
45595,25110
45605,25117
45615,25126
45624,25136
45631,25146
45638,25157
45644,25169
45648,25181
45651,25194
45653,25207
45654,25220
45654,25565
45653,25578
45651,25591
45648,25603
45644,25616
45638,25627
45631,25639
45624,25649
45615,25659
45605,25667
45595,25675
45584,25682
45572,25687
45560,25692
45547,25695
45534,25697
45521,25698
45078,25698
45065,25697
45052,25695
45039,25692
45027,25687
45015,25682
45004,25675
44994,25667
44984,25659
44975,25649
44968,25639
44961,25627
44955,25616
44951,25603
44948,25591
44946,25578
44945,25565
44945,25220
44946,25207
44948,25194
44951,25181
44955,25169
44961,25157
44968,25146
44975,25136
44984,25126
44994,25117
45004,25110
45015,25103
45027,25097
45039,25093
45052,25090
45065,25088
45078,25087
45521,25087
45534,25088
" /> 
<polyline style="fill-rule:evenodd;"
points="44434,19699
44447,19700
44460,19704
44472,19708
44484,19714
44495,19720
44505,19728
44515,19737
44524,19746
44531,19757
44538,19768
44544,19780
44548,19792
44551,19805
44553,19818
44554,19831
44554,20176
44553,20189
44551,20201
44548,20214
44544,20226
44538,20238
44531,20249
44524,20260
44515,20269
44505,20278
44495,20286
44484,20292
44472,20298
44460,20302
44447,20306
44434,20308
44421,20308
43978,20308
43965,20308
43952,20306
43939,20302
43927,20298
43915,20292
43904,20286
43894,20278
43884,20269
43875,20260
43868,20249
43861,20238
43855,20226
43851,20214
43848,20201
43846,20189
43845,20176
43845,19831
43846,19818
43848,19805
43851,19792
43855,19780
43861,19768
43868,19757
43875,19746
43884,19737
43894,19728
43904,19720
43915,19714
43927,19708
43939,19704
43952,19700
43965,19699
43978,19698
44421,19698
44434,19699
" /> 
<polyline style="fill-rule:evenodd;"
points="44434,18891
44447,18893
44460,18897
44472,18901
44484,18907
44495,18913
44505,18921
44515,18930
44524,18939
44531,18950
44538,18961
44544,18973
44548,18985
44551,18998
44553,19010
44554,19023
44554,19368
44553,19381
44551,19394
44548,19407
44544,19419
44538,19431
44531,19442
44524,19453
44515,19462
44505,19471
44495,19479
44484,19485
44472,19491
44460,19495
44447,19499
44434,19500
44421,19501
43978,19501
43965,19500
43952,19499
43939,19495
43927,19491
43915,19485
43904,19479
43894,19471
43884,19462
43875,19453
43868,19442
43861,19431
43855,19419
43851,19407
43848,19394
43846,19381
43845,19368
43845,19023
43846,19010
43848,18998
43851,18985
43855,18973
43861,18961
43868,18950
43875,18939
43884,18930
43894,18921
43904,18913
43915,18907
43927,18901
43939,18897
43952,18893
43965,18891
43978,18891
44421,18891
44434,18891
" /> 
<polyline style="fill-rule:evenodd;"
points="41934,25902
41947,25904
41960,25907
41972,25912
41984,25917
41995,25924
42005,25932
42015,25940
42024,25950
42031,25960
42038,25972
42044,25983
42048,25996
42051,26008
42053,26021
42054,26034
42054,26379
42053,26392
42051,26405
42048,26418
42044,26430
42038,26442
42031,26453
42024,26463
42015,26473
42005,26482
41995,26489
41984,26496
41972,26502
41960,26506
41947,26509
41934,26511
41921,26512
41478,26512
41465,26511
41452,26509
41439,26506
41427,26502
41415,26496
41404,26489
41394,26482
41384,26473
41375,26463
41368,26453
41361,26442
41355,26430
41351,26418
41348,26405
41346,26392
41345,26379
41345,26034
41346,26021
41348,26008
41351,25996
41355,25983
41361,25972
41368,25960
41375,25950
41384,25940
41394,25932
41404,25924
41415,25917
41427,25912
41439,25907
41452,25904
41465,25902
41478,25901
41921,25901
41934,25902
" /> 
<polyline style="fill-rule:evenodd;"
points="41934,25095
41947,25097
41960,25100
41972,25104
41984,25110
41995,25117
42005,25124
42015,25133
42024,25143
42031,25153
42038,25165
42044,25176
42048,25189
42051,25201
42053,25214
42054,25227
42054,25572
42053,25585
42051,25598
42048,25610
42044,25623
42038,25634
42031,25646
42024,25656
42015,25666
42005,25675
41995,25682
41984,25689
41972,25695
41960,25699
41947,25702
41934,25704
41921,25705
41478,25705
41465,25704
41452,25702
41439,25699
41427,25695
41415,25689
41404,25682
41394,25675
41384,25666
41375,25656
41368,25646
41361,25634
41355,25623
41351,25610
41348,25598
41346,25585
41345,25572
41345,25227
41346,25214
41348,25201
41351,25189
41355,25176
41361,25165
41368,25153
41375,25143
41384,25133
41394,25124
41404,25117
41415,25110
41427,25104
41439,25100
41452,25097
41465,25095
41478,25094
41921,25094
41934,25095
" /> 
<polyline style="fill-rule:evenodd;"
points="44778,21146
44791,21148
44803,21151
44816,21155
44827,21161
44839,21168
44849,21175
44859,21184
44867,21194
44875,21204
44882,21215
44887,21227
44892,21239
44895,21252
44897,21265
44898,21278
44898,21721
44897,21734
44895,21747
44892,21760
44887,21772
44882,21784
44875,21795
44867,21805
44859,21815
44849,21824
44839,21831
44827,21838
44816,21844
44803,21848
44791,21851
44778,21853
44765,21854
44420,21854
44407,21853
44394,21851
44381,21848
44369,21844
44357,21838
44346,21831
44336,21824
44326,21815
44317,21805
44310,21795
44303,21784
44297,21772
44293,21760
44290,21747
44288,21734
44287,21721
44287,21278
44288,21265
44290,21252
44293,21239
44297,21227
44303,21215
44310,21204
44317,21194
44326,21184
44336,21175
44346,21168
44357,21161
44369,21155
44381,21151
44394,21148
44407,21146
44420,21145
44765,21145
44778,21146
" /> 
<polyline style="fill-rule:evenodd;"
points="45585,21146
45598,21148
45610,21151
45623,21155
45634,21161
45646,21168
45656,21175
45666,21184
45675,21194
45682,21204
45689,21215
45695,21227
45699,21239
45702,21252
45704,21265
45705,21278
45705,21721
45704,21734
45702,21747
45699,21760
45695,21772
45689,21784
45682,21795
45675,21805
45666,21815
45656,21824
45646,21831
45634,21838
45623,21844
45610,21848
45598,21851
45585,21853
45572,21854
45227,21854
45214,21853
45201,21851
45189,21848
45176,21844
45165,21838
45153,21831
45143,21824
45133,21815
45124,21805
45117,21795
45110,21784
45104,21772
45100,21760
45097,21747
45095,21734
45094,21721
45094,21278
45095,21265
45097,21252
45100,21239
45104,21227
45110,21215
45117,21204
45124,21194
45133,21184
45143,21175
45153,21168
45165,21161
45176,21155
45189,21151
45201,21148
45214,21146
45227,21145
45572,21145
45585,21146
" /> 
<polyline style="fill-rule:evenodd;"
points="47534,25202
47547,25204
47560,25207
47572,25212
47584,25217
47595,25224
47605,25232
47615,25240
47624,25250
47631,25260
47638,25272
47644,25283
47648,25296
47651,25308
47653,25321
47654,25334
47654,25679
47653,25692
47651,25705
47648,25718
47644,25730
47638,25742
47631,25753
47624,25763
47615,25773
47605,25782
47595,25789
47584,25796
47572,25802
47560,25806
47547,25809
47534,25811
47521,25812
47078,25812
47065,25811
47052,25809
47039,25806
47027,25802
47015,25796
47004,25789
46994,25782
46984,25773
46975,25763
46968,25753
46961,25742
46955,25730
46951,25718
46948,25705
46946,25692
46945,25679
46945,25334
46946,25321
46948,25308
46951,25296
46955,25283
46961,25272
46968,25260
46975,25250
46984,25240
46994,25232
47004,25224
47015,25217
47027,25212
47039,25207
47052,25204
47065,25202
47078,25201
47521,25201
47534,25202
" /> 
<polyline style="fill-rule:evenodd;"
points="47534,24395
47547,24397
47560,24400
47572,24404
47584,24410
47595,24417
47605,24424
47615,24433
47624,24443
47631,24453
47638,24465
47644,24476
47648,24489
47651,24501
47653,24514
47654,24527
47654,24872
47653,24885
47651,24898
47648,24910
47644,24923
47638,24934
47631,24946
47624,24956
47615,24966
47605,24975
47595,24982
47584,24989
47572,24995
47560,24999
47547,25002
47534,25004
47521,25005
47078,25005
47065,25004
47052,25002
47039,24999
47027,24995
47015,24989
47004,24982
46994,24975
46984,24966
46975,24956
46968,24946
46961,24934
46955,24923
46951,24910
46948,24898
46946,24885
46945,24872
46945,24527
46946,24514
46948,24501
46951,24489
46955,24476
46961,24465
46968,24453
46975,24443
46984,24433
46994,24424
47004,24417
47015,24410
47027,24404
47039,24400
47052,24397
47065,24395
47078,24394
47521,24394
47534,24395
" /> 
<polyline style="fill-rule:evenodd;"
points="45585,21946
45598,21948
45610,21951
45623,21955
45634,21961
45646,21968
45656,21975
45666,21984
45675,21994
45682,22004
45689,22015
45695,22027
45699,22039
45702,22052
45704,22065
45705,22078
45705,22521
45704,22534
45702,22547
45699,22560
45695,22572
45689,22584
45682,22595
45675,22605
45666,22615
45656,22624
45646,22631
45634,22638
45623,22644
45610,22648
45598,22651
45585,22653
45572,22654
45227,22654
45214,22653
45201,22651
45189,22648
45176,22644
45165,22638
45153,22631
45143,22624
45133,22615
45124,22605
45117,22595
45110,22584
45104,22572
45100,22560
45097,22547
45095,22534
45094,22521
45094,22078
45095,22065
45097,22052
45100,22039
45104,22027
45110,22015
45117,22004
45124,21994
45133,21984
45143,21975
45153,21968
45165,21961
45176,21955
45189,21951
45201,21948
45214,21946
45227,21945
45572,21945
45585,21946
" /> 
<polyline style="fill-rule:evenodd;"
points="44778,21946
44791,21948
44803,21951
44816,21955
44827,21961
44839,21968
44849,21975
44859,21984
44867,21994
44875,22004
44882,22015
44887,22027
44892,22039
44895,22052
44897,22065
44898,22078
44898,22521
44897,22534
44895,22547
44892,22560
44887,22572
44882,22584
44875,22595
44867,22605
44859,22615
44849,22624
44839,22631
44827,22638
44816,22644
44803,22648
44791,22651
44778,22653
44765,22654
44420,22654
44407,22653
44394,22651
44381,22648
44369,22644
44357,22638
44346,22631
44336,22624
44326,22615
44317,22605
44310,22595
44303,22584
44297,22572
44293,22560
44290,22547
44288,22534
44287,22521
44287,22078
44288,22065
44290,22052
44293,22039
44297,22027
44303,22015
44310,22004
44317,21994
44326,21984
44336,21975
44346,21968
44357,21961
44369,21955
44381,21951
44394,21948
44407,21946
44420,21945
44765,21945
44778,21946
" /> 
<polyline style="fill-rule:evenodd;"
points="44134,13295
44147,13297
44160,13300
44172,13304
44184,13310
44195,13317
44205,13324
44215,13333
44224,13343
44231,13353
44238,13365
44244,13376
44248,13389
44251,13401
44253,13414
44254,13427
44254,13772
44253,13785
44251,13798
44248,13810
44244,13823
44238,13834
44231,13846
44224,13856
44215,13866
44205,13875
44195,13882
44184,13889
44172,13895
44160,13899
44147,13902
44134,13904
44121,13905
43678,13905
43665,13904
43652,13902
43639,13899
43627,13895
43615,13889
43604,13882
43594,13875
43584,13866
43575,13856
43568,13846
43561,13834
43555,13823
43551,13810
43548,13798
43546,13785
43545,13772
43545,13427
43546,13414
43548,13401
43551,13389
43555,13376
43561,13365
43568,13353
43575,13343
43584,13333
43594,13324
43604,13317
43615,13310
43627,13304
43639,13300
43652,13297
43665,13295
43678,13294
44121,13294
44134,13295
" /> 
<polyline style="fill-rule:evenodd;"
points="44134,12488
44147,12490
44160,12493
44172,12497
44184,12503
44195,12510
44205,12517
44215,12526
44224,12536
44231,12546
44238,12557
44244,12569
44248,12581
44251,12594
44253,12607
44254,12620
44254,12965
44253,12978
44251,12991
44248,13003
44244,13016
44238,13027
44231,13039
44224,13049
44215,13059
44205,13067
44195,13075
44184,13082
44172,13087
44160,13092
44147,13095
44134,13097
44121,13098
43678,13098
43665,13097
43652,13095
43639,13092
43627,13087
43615,13082
43604,13075
43594,13067
43584,13059
43575,13049
43568,13039
43561,13027
43555,13016
43551,13003
43548,12991
43546,12978
43545,12965
43545,12620
43546,12607
43548,12594
43551,12581
43555,12569
43561,12557
43568,12546
43575,12536
43584,12526
43594,12517
43604,12510
43615,12503
43627,12497
43639,12493
43652,12490
43665,12488
43678,12487
44121,12487
44134,12488
" /> 
<polyline style="fill-rule:evenodd;"
points="53834,28202
53847,28204
53860,28207
53872,28212
53884,28217
53895,28224
53905,28232
53915,28240
53924,28250
53931,28260
53938,28272
53944,28283
53948,28296
53951,28308
53953,28321
53954,28334
53954,28679
53953,28692
53951,28705
53948,28718
53944,28730
53938,28742
53931,28753
53924,28763
53915,28773
53905,28782
53895,28789
53884,28796
53872,28802
53860,28806
53847,28809
53834,28811
53821,28812
53378,28812
53365,28811
53352,28809
53339,28806
53327,28802
53315,28796
53304,28789
53294,28782
53284,28773
53275,28763
53268,28753
53261,28742
53255,28730
53251,28718
53248,28705
53246,28692
53245,28679
53245,28334
53246,28321
53248,28308
53251,28296
53255,28283
53261,28272
53268,28260
53275,28250
53284,28240
53294,28232
53304,28224
53315,28217
53327,28212
53339,28207
53352,28204
53365,28202
53378,28201
53821,28201
53834,28202
" /> 
<polyline style="fill-rule:evenodd;"
points="53834,27395
53847,27397
53860,27400
53872,27404
53884,27410
53895,27417
53905,27424
53915,27433
53924,27443
53931,27453
53938,27465
53944,27476
53948,27489
53951,27501
53953,27514
53954,27527
53954,27872
53953,27885
53951,27898
53948,27910
53944,27923
53938,27934
53931,27946
53924,27956
53915,27966
53905,27975
53895,27982
53884,27989
53872,27995
53860,27999
53847,28002
53834,28004
53821,28005
53378,28005
53365,28004
53352,28002
53339,27999
53327,27995
53315,27989
53304,27982
53294,27975
53284,27966
53275,27956
53268,27946
53261,27934
53255,27923
53251,27910
53248,27898
53246,27885
53245,27872
53245,27527
53246,27514
53248,27501
53251,27489
53255,27476
53261,27465
53268,27453
53275,27443
53284,27433
53294,27424
53304,27417
53315,27410
53327,27404
53339,27400
53352,27397
53365,27395
53378,27394
53821,27394
53834,27395
" /> 
<polyline style="fill-rule:evenodd;"
points="53034,27395
53047,27397
53060,27400
53072,27404
53084,27410
53095,27417
53105,27424
53115,27433
53124,27443
53131,27453
53138,27465
53144,27476
53148,27489
53151,27501
53153,27514
53154,27527
53154,27872
53153,27885
53151,27898
53148,27910
53144,27923
53138,27934
53131,27946
53124,27956
53115,27966
53105,27975
53095,27982
53084,27989
53072,27995
53060,27999
53047,28002
53034,28004
53021,28005
52578,28005
52565,28004
52552,28002
52539,27999
52527,27995
52515,27989
52504,27982
52494,27975
52484,27966
52475,27956
52468,27946
52461,27934
52455,27923
52451,27910
52448,27898
52446,27885
52445,27872
52445,27527
52446,27514
52448,27501
52451,27489
52455,27476
52461,27465
52468,27453
52475,27443
52484,27433
52494,27424
52504,27417
52515,27410
52527,27404
52539,27400
52552,27397
52565,27395
52578,27394
53021,27394
53034,27395
" /> 
<polyline style="fill-rule:evenodd;"
points="53034,28202
53047,28204
53060,28207
53072,28212
53084,28217
53095,28224
53105,28232
53115,28240
53124,28250
53131,28260
53138,28272
53144,28283
53148,28296
53151,28308
53153,28321
53154,28334
53154,28679
53153,28692
53151,28705
53148,28718
53144,28730
53138,28742
53131,28753
53124,28763
53115,28773
53105,28782
53095,28789
53084,28796
53072,28802
53060,28806
53047,28809
53034,28811
53021,28812
52578,28812
52565,28811
52552,28809
52539,28806
52527,28802
52515,28796
52504,28789
52494,28782
52484,28773
52475,28763
52468,28753
52461,28742
52455,28730
52451,28718
52448,28705
52446,28692
52445,28679
52445,28334
52446,28321
52448,28308
52451,28296
52455,28283
52461,28272
52468,28260
52475,28250
52484,28240
52494,28232
52504,28224
52515,28217
52527,28212
52539,28207
52552,28204
52565,28202
52578,28201
53021,28201
53034,28202
" /> 
<polyline style="fill-rule:evenodd;"
points="44434,25895
44447,25897
44460,25900
44472,25904
44484,25910
44495,25917
44505,25924
44515,25933
44524,25943
44531,25953
44538,25965
44544,25976
44548,25989
44551,26001
44553,26014
44554,26027
44554,26372
44553,26385
44551,26398
44548,26410
44544,26423
44538,26434
44531,26446
44524,26456
44515,26466
44505,26475
44495,26482
44484,26489
44472,26495
44460,26499
44447,26502
44434,26504
44421,26505
43978,26505
43965,26504
43952,26502
43939,26499
43927,26495
43915,26489
43904,26482
43894,26475
43884,26466
43875,26456
43868,26446
43861,26434
43855,26423
43851,26410
43848,26398
43846,26385
43845,26372
43845,26027
43846,26014
43848,26001
43851,25989
43855,25976
43861,25965
43868,25953
43875,25943
43884,25933
43894,25924
43904,25917
43915,25910
43927,25904
43939,25900
43952,25897
43965,25895
43978,25894
44421,25894
44434,25895
" /> 
<polyline style="fill-rule:evenodd;"
points="44434,25088
44447,25090
44460,25093
44472,25097
44484,25103
44495,25110
44505,25117
44515,25126
44524,25136
44531,25146
44538,25157
44544,25169
44548,25181
44551,25194
44553,25207
44554,25220
44554,25565
44553,25578
44551,25591
44548,25603
44544,25616
44538,25627
44531,25639
44524,25649
44515,25659
44505,25667
44495,25675
44484,25682
44472,25687
44460,25692
44447,25695
44434,25697
44421,25698
43978,25698
43965,25697
43952,25695
43939,25692
43927,25687
43915,25682
43904,25675
43894,25667
43884,25659
43875,25649
43868,25639
43861,25627
43855,25616
43851,25603
43848,25591
43846,25578
43845,25565
43845,25220
43846,25207
43848,25194
43851,25181
43855,25169
43861,25157
43868,25146
43875,25136
43884,25126
43894,25117
43904,25110
43915,25103
43927,25097
43939,25093
43952,25090
43965,25088
43978,25087
44421,25087
44434,25088
" /> 
<polyline style="fill-rule:evenodd;"
points="53834,26095
53847,26097
53860,26100
53872,26104
53884,26110
53895,26117
53905,26124
53915,26133
53924,26143
53931,26153
53938,26165
53944,26176
53948,26189
53951,26201
53953,26214
53954,26227
53954,26572
53953,26585
53951,26598
53948,26610
53944,26623
53938,26634
53931,26646
53924,26656
53915,26666
53905,26675
53895,26682
53884,26689
53872,26695
53860,26699
53847,26702
53834,26704
53821,26705
53378,26705
53365,26704
53352,26702
53339,26699
53327,26695
53315,26689
53304,26682
53294,26675
53284,26666
53275,26656
53268,26646
53261,26634
53255,26623
53251,26610
53248,26598
53246,26585
53245,26572
53245,26227
53246,26214
53248,26201
53251,26189
53255,26176
53261,26165
53268,26153
53275,26143
53284,26133
53294,26124
53304,26117
53315,26110
53327,26104
53339,26100
53352,26097
53365,26095
53378,26094
53821,26094
53834,26095
" /> 
<polyline style="fill-rule:evenodd;"
points="53834,25288
53847,25290
53860,25293
53872,25297
53884,25303
53895,25310
53905,25317
53915,25326
53924,25336
53931,25346
53938,25357
53944,25369
53948,25381
53951,25394
53953,25407
53954,25420
53954,25765
53953,25778
53951,25791
53948,25803
53944,25816
53938,25827
53931,25839
53924,25849
53915,25859
53905,25867
53895,25875
53884,25882
53872,25887
53860,25892
53847,25895
53834,25897
53821,25898
53378,25898
53365,25897
53352,25895
53339,25892
53327,25887
53315,25882
53304,25875
53294,25867
53284,25859
53275,25849
53268,25839
53261,25827
53255,25816
53251,25803
53248,25791
53246,25778
53245,25765
53245,25420
53246,25407
53248,25394
53251,25381
53255,25369
53261,25357
53268,25346
53275,25336
53284,25326
53294,25317
53304,25310
53315,25303
53327,25297
53339,25293
53352,25290
53365,25288
53378,25287
53821,25287
53834,25288
" /> 
<polyline style="fill-rule:evenodd;"
points="53034,25288
53047,25290
53060,25293
53072,25297
53084,25303
53095,25310
53105,25317
53115,25326
53124,25336
53131,25346
53138,25357
53144,25369
53148,25381
53151,25394
53153,25407
53154,25420
53154,25765
53153,25778
53151,25791
53148,25803
53144,25816
53138,25827
53131,25839
53124,25849
53115,25859
53105,25867
53095,25875
53084,25882
53072,25887
53060,25892
53047,25895
53034,25897
53021,25898
52578,25898
52565,25897
52552,25895
52539,25892
52527,25887
52515,25882
52504,25875
52494,25867
52484,25859
52475,25849
52468,25839
52461,25827
52455,25816
52451,25803
52448,25791
52446,25778
52445,25765
52445,25420
52446,25407
52448,25394
52451,25381
52455,25369
52461,25357
52468,25346
52475,25336
52484,25326
52494,25317
52504,25310
52515,25303
52527,25297
52539,25293
52552,25290
52565,25288
52578,25287
53021,25287
53034,25288
" /> 
<polyline style="fill-rule:evenodd;"
points="53034,26095
53047,26097
53060,26100
53072,26104
53084,26110
53095,26117
53105,26124
53115,26133
53124,26143
53131,26153
53138,26165
53144,26176
53148,26189
53151,26201
53153,26214
53154,26227
53154,26572
53153,26585
53151,26598
53148,26610
53144,26623
53138,26634
53131,26646
53124,26656
53115,26666
53105,26675
53095,26682
53084,26689
53072,26695
53060,26699
53047,26702
53034,26704
53021,26705
52578,26705
52565,26704
52552,26702
52539,26699
52527,26695
52515,26689
52504,26682
52494,26675
52484,26666
52475,26656
52468,26646
52461,26634
52455,26623
52451,26610
52448,26598
52446,26585
52445,26572
52445,26227
52446,26214
52448,26201
52451,26189
52455,26176
52461,26165
52468,26153
52475,26143
52484,26133
52494,26124
52504,26117
52515,26110
52527,26104
52539,26100
52552,26097
52565,26095
52578,26094
53021,26094
53034,26095
" /> 
<polyline style="fill-rule:evenodd;"
points="54331,11146
54344,11148
54357,11151
54369,11155
54381,11161
54392,11168
54403,11175
54412,11184
54421,11194
54429,11204
54435,11215
54441,11227
54445,11239
54449,11252
54450,11265
54451,11278
54451,11721
54450,11734
54449,11747
54445,11760
54441,11772
54435,11784
54429,11795
54421,11805
54412,11815
54403,11824
54392,11831
54381,11838
54369,11844
54357,11848
54344,11851
54331,11853
54318,11854
53973,11854
53960,11853
53948,11851
53935,11848
53923,11844
53911,11838
53900,11831
53889,11824
53880,11815
53871,11805
53863,11795
53857,11784
53851,11772
53847,11760
53843,11747
53841,11734
53841,11721
53841,11278
53841,11265
53843,11252
53847,11239
53851,11227
53857,11215
53863,11204
53871,11194
53880,11184
53889,11175
53900,11168
53911,11161
53923,11155
53935,11151
53948,11148
53960,11146
53973,11145
54318,11145
54331,11146
" /> 
<polyline style="fill-rule:evenodd;"
points="55139,11146
55151,11148
55164,11151
55176,11155
55188,11161
55199,11168
55210,11175
55219,11184
55228,11194
55236,11204
55242,11215
55248,11227
55252,11239
55256,11252
55258,11265
55258,11278
55258,11721
55258,11734
55256,11747
55252,11760
55248,11772
55242,11784
55236,11795
55228,11805
55219,11815
55210,11824
55199,11831
55188,11838
55176,11844
55164,11848
55151,11851
55139,11853
55126,11854
54781,11854
54768,11853
54755,11851
54742,11848
54730,11844
54718,11838
54707,11831
54696,11824
54687,11815
54678,11805
54670,11795
54664,11784
54658,11772
54654,11760
54650,11747
54649,11734
54648,11721
54648,11278
54649,11265
54650,11252
54654,11239
54658,11227
54664,11215
54670,11204
54678,11194
54687,11184
54696,11175
54707,11168
54718,11161
54730,11155
54742,11151
54755,11148
54768,11146
54781,11145
55126,11145
55139,11146
" /> 
<polyline style="fill-rule:evenodd;"
points="45585,22896
45598,22898
45610,22901
45623,22905
45634,22911
45646,22918
45656,22925
45666,22934
45675,22944
45682,22954
45689,22965
45695,22977
45699,22989
45702,23002
45704,23015
45705,23028
45705,23471
45704,23484
45702,23497
45699,23510
45695,23522
45689,23534
45682,23545
45675,23555
45666,23565
45656,23574
45646,23581
45634,23588
45623,23594
45610,23598
45598,23601
45585,23603
45572,23604
45227,23604
45214,23603
45201,23601
45189,23598
45176,23594
45165,23588
45153,23581
45143,23574
45133,23565
45124,23555
45117,23545
45110,23534
45104,23522
45100,23510
45097,23497
45095,23484
45094,23471
45094,23028
45095,23015
45097,23002
45100,22989
45104,22977
45110,22965
45117,22954
45124,22944
45133,22934
45143,22925
45153,22918
45165,22911
45176,22905
45189,22901
45201,22898
45214,22896
45227,22895
45572,22895
45585,22896
" /> 
<polyline style="fill-rule:evenodd;"
points="44778,22896
44791,22898
44803,22901
44816,22905
44827,22911
44839,22918
44849,22925
44859,22934
44867,22944
44875,22954
44882,22965
44887,22977
44892,22989
44895,23002
44897,23015
44898,23028
44898,23471
44897,23484
44895,23497
44892,23510
44887,23522
44882,23534
44875,23545
44867,23555
44859,23565
44849,23574
44839,23581
44827,23588
44816,23594
44803,23598
44791,23601
44778,23603
44765,23604
44420,23604
44407,23603
44394,23601
44381,23598
44369,23594
44357,23588
44346,23581
44336,23574
44326,23565
44317,23555
44310,23545
44303,23534
44297,23522
44293,23510
44290,23497
44288,23484
44287,23471
44287,23028
44288,23015
44290,23002
44293,22989
44297,22977
44303,22965
44310,22954
44317,22944
44326,22934
44336,22925
44346,22918
44357,22911
44369,22905
44381,22901
44394,22898
44407,22896
44420,22895
44765,22895
44778,22896
" /> 
<polyline style="fill-rule:evenodd;"
points="51734,27388
51747,27390
51760,27393
51772,27397
51784,27403
51795,27410
51805,27417
51815,27426
51824,27436
51831,27446
51838,27457
51844,27469
51848,27481
51851,27494
51853,27507
51854,27520
51854,27865
51853,27878
51851,27891
51848,27903
51844,27916
51838,27927
51831,27939
51824,27949
51815,27959
51805,27967
51795,27975
51784,27982
51772,27987
51760,27992
51747,27995
51734,27997
51721,27998
51278,27998
51265,27997
51252,27995
51239,27992
51227,27987
51215,27982
51204,27975
51194,27967
51184,27959
51175,27949
51168,27939
51161,27927
51155,27916
51151,27903
51148,27891
51146,27878
51145,27865
51145,27520
51146,27507
51148,27494
51151,27481
51155,27469
51161,27457
51168,27446
51175,27436
51184,27426
51194,27417
51204,27410
51215,27403
51227,27397
51239,27393
51252,27390
51265,27388
51278,27387
51721,27387
51734,27388
" /> 
<polyline style="fill-rule:evenodd;"
points="51734,28195
51747,28197
51760,28200
51772,28204
51784,28210
51795,28217
51805,28224
51815,28233
51824,28243
51831,28253
51838,28265
51844,28276
51848,28289
51851,28301
51853,28314
51854,28327
51854,28672
51853,28685
51851,28698
51848,28710
51844,28723
51838,28734
51831,28746
51824,28756
51815,28766
51805,28775
51795,28782
51784,28789
51772,28795
51760,28799
51747,28802
51734,28804
51721,28805
51278,28805
51265,28804
51252,28802
51239,28799
51227,28795
51215,28789
51204,28782
51194,28775
51184,28766
51175,28756
51168,28746
51161,28734
51155,28723
51151,28710
51148,28698
51146,28685
51145,28672
51145,28327
51146,28314
51148,28301
51151,28289
51155,28276
51161,28265
51168,28253
51175,28243
51184,28233
51194,28224
51204,28217
51215,28210
51227,28204
51239,28200
51252,28197
51265,28195
51278,28194
51721,28194
51734,28195
" /> 
<polyline style="fill-rule:evenodd;"
points="48485,27246
48498,27248
48510,27251
48523,27255
48534,27261
48546,27268
48556,27275
48566,27284
48575,27294
48582,27304
48589,27315
48595,27327
48599,27339
48602,27352
48604,27365
48605,27378
48605,27821
48604,27834
48602,27847
48599,27860
48595,27872
48589,27884
48582,27895
48575,27905
48566,27915
48556,27924
48546,27931
48534,27938
48523,27944
48510,27948
48498,27951
48485,27953
48472,27954
48127,27954
48114,27953
48101,27951
48089,27948
48076,27944
48065,27938
48053,27931
48043,27924
48033,27915
48024,27905
48017,27895
48010,27884
48004,27872
48000,27860
47997,27847
47995,27834
47994,27821
47994,27378
47995,27365
47997,27352
48000,27339
48004,27327
48010,27315
48017,27304
48024,27294
48033,27284
48043,27275
48053,27268
48065,27261
48076,27255
48089,27251
48101,27248
48114,27246
48127,27245
48472,27245
48485,27246
" /> 
<polyline style="fill-rule:evenodd;"
points="49292,27246
49305,27248
49318,27251
49330,27255
49342,27261
49353,27268
49363,27275
49373,27284
49382,27294
49389,27304
49396,27315
49402,27327
49406,27339
49409,27352
49411,27365
49412,27378
49412,27821
49411,27834
49409,27847
49406,27860
49402,27872
49396,27884
49389,27895
49382,27905
49373,27915
49363,27924
49353,27931
49342,27938
49330,27944
49318,27948
49305,27951
49292,27953
49279,27954
48934,27954
48921,27953
48908,27951
48896,27948
48883,27944
48872,27938
48860,27931
48850,27924
48840,27915
48832,27905
48824,27895
48817,27884
48812,27872
48807,27860
48804,27847
48802,27834
48801,27821
48801,27378
48802,27365
48804,27352
48807,27339
48812,27327
48817,27315
48824,27304
48832,27294
48840,27284
48850,27275
48860,27268
48872,27261
48883,27255
48896,27251
48908,27248
48921,27246
48934,27245
49279,27245
49292,27246
" /> 
<circle cx="49700" cy="26500" r="393.701" /> 
</g>
<g style="fill:#FFFFFF; fill-opacity:1.0; 
stroke:#FFFFFF; stroke-width:39.3701; stroke-opacity:1; 
stroke-linecap:round; stroke-linejoin:round;">
</g>
<g style="fill:#FFFFFF; fill-opacity:1.0; 
stroke:#FFFFFF; stroke-width:0; stroke-opacity:1; 
stroke-linecap:round; stroke-linejoin:round;">
<circle cx="49700" cy="28500" r="393.701" /> 
</g>
<g style="fill:#FFFFFF; fill-opacity:1.0; 
stroke:#FFFFFF; stroke-width:39.3701; stroke-opacity:1; 
stroke-linecap:round; stroke-linejoin:round;">
</g>
<g style="fill:#FFFFFF; fill-opacity:1.0; 
stroke:#FFFFFF; stroke-width:0; stroke-opacity:1; 
stroke-linecap:round; stroke-linejoin:round;">
<polyline style="fill-rule:evenodd;"
points="47534,26795
47547,26797
47560,26800
47572,26804
47584,26810
47595,26817
47605,26824
47615,26833
47624,26843
47631,26853
47638,26865
47644,26876
47648,26889
47651,26901
47653,26914
47654,26927
47654,27272
47653,27285
47651,27298
47648,27310
47644,27323
47638,27334
47631,27346
47624,27356
47615,27366
47605,27375
47595,27382
47584,27389
47572,27395
47560,27399
47547,27402
47534,27404
47521,27405
47078,27405
47065,27404
47052,27402
47039,27399
47027,27395
47015,27389
47004,27382
46994,27375
46984,27366
46975,27356
46968,27346
46961,27334
46955,27323
46951,27310
46948,27298
46946,27285
46945,27272
46945,26927
46946,26914
46948,26901
46951,26889
46955,26876
46961,26865
46968,26853
46975,26843
46984,26833
46994,26824
47004,26817
47015,26810
47027,26804
47039,26800
47052,26797
47065,26795
47078,26794
47521,26794
47534,26795
" /> 
<polyline style="fill-rule:evenodd;"
points="47534,25988
47547,25990
47560,25993
47572,25997
47584,26003
47595,26010
47605,26017
47615,26026
47624,26036
47631,26046
47638,26057
47644,26069
47648,26081
47651,26094
47653,26107
47654,26120
47654,26465
47653,26478
47651,26491
47648,26503
47644,26516
47638,26527
47631,26539
47624,26549
47615,26559
47605,26567
47595,26575
47584,26582
47572,26587
47560,26592
47547,26595
47534,26597
47521,26598
47078,26598
47065,26597
47052,26595
47039,26592
47027,26587
47015,26582
47004,26575
46994,26567
46984,26559
46975,26549
46968,26539
46961,26527
46955,26516
46951,26503
46948,26491
46946,26478
46945,26465
46945,26120
46946,26107
46948,26094
46951,26081
46955,26069
46961,26057
46968,26046
46975,26036
46984,26026
46994,26017
47004,26010
47015,26003
47027,25997
47039,25993
47052,25990
47065,25988
47078,25987
47521,25987
47534,25988
" /> 
<polyline style="fill-rule:evenodd;"
points="50934,27395
50947,27397
50960,27400
50972,27404
50984,27410
50995,27417
51005,27424
51015,27433
51024,27443
51031,27453
51038,27465
51044,27476
51048,27489
51051,27501
51053,27514
51054,27527
51054,27872
51053,27885
51051,27898
51048,27910
51044,27923
51038,27934
51031,27946
51024,27956
51015,27966
51005,27975
50995,27982
50984,27989
50972,27995
50960,27999
50947,28002
50934,28004
50921,28005
50478,28005
50465,28004
50452,28002
50439,27999
50427,27995
50415,27989
50404,27982
50394,27975
50384,27966
50375,27956
50368,27946
50361,27934
50355,27923
50351,27910
50348,27898
50346,27885
50345,27872
50345,27527
50346,27514
50348,27501
50351,27489
50355,27476
50361,27465
50368,27453
50375,27443
50384,27433
50394,27424
50404,27417
50415,27410
50427,27404
50439,27400
50452,27397
50465,27395
50478,27394
50921,27394
50934,27395
" /> 
<polyline style="fill-rule:evenodd;"
points="50934,28202
50947,28204
50960,28207
50972,28212
50984,28217
50995,28224
51005,28232
51015,28240
51024,28250
51031,28260
51038,28272
51044,28283
51048,28296
51051,28308
51053,28321
51054,28334
51054,28679
51053,28692
51051,28705
51048,28718
51044,28730
51038,28742
51031,28753
51024,28763
51015,28773
51005,28782
50995,28789
50984,28796
50972,28802
50960,28806
50947,28809
50934,28811
50921,28812
50478,28812
50465,28811
50452,28809
50439,28806
50427,28802
50415,28796
50404,28789
50394,28782
50384,28773
50375,28763
50368,28753
50361,28742
50355,28730
50351,28718
50348,28705
50346,28692
50345,28679
50345,28334
50346,28321
50348,28308
50351,28296
50355,28283
50361,28272
50368,28260
50375,28250
50384,28240
50394,28232
50404,28224
50415,28217
50427,28212
50439,28207
50452,28204
50465,28202
50478,28201
50921,28201
50934,28202
" /> 
<circle cx="42500" cy="21600" r="374.016" /> 
</g>
<g style="fill:#FFFFFF; fill-opacity:1.0; 
stroke:#FFFFFF; stroke-width:39.3701; stroke-opacity:1; 
stroke-linecap:round; stroke-linejoin:round;">
</g>
<g style="fill:#FFFFFF; fill-opacity:1.0; 
stroke:#FFFFFF; stroke-width:0; stroke-opacity:1; 
stroke-linecap:round; stroke-linejoin:round;">
<circle cx="42500" cy="23521.3" r="374.016" /> 
</g>
<g style="fill:#FFFFFF; fill-opacity:1.0; 
stroke:#FFFFFF; stroke-width:39.3701; stroke-opacity:1; 
stroke-linecap:round; stroke-linejoin:round;">
</g>
<g style="fill:#FFFFFF; fill-opacity:1.0; 
stroke:#FFFFFF; stroke-width:0; stroke-opacity:1; 
stroke-linecap:round; stroke-linejoin:round;">
<polyline style="fill-rule:evenodd;"
points="45034,13295
45047,13297
45060,13300
45072,13304
45084,13310
45095,13317
45105,13324
45115,13333
45124,13343
45131,13353
45138,13365
45144,13376
45148,13389
45151,13401
45153,13414
45154,13427
45154,13772
45153,13785
45151,13798
45148,13810
45144,13823
45138,13834
45131,13846
45124,13856
45115,13866
45105,13875
45095,13882
45084,13889
45072,13895
45060,13899
45047,13902
45034,13904
45021,13905
44578,13905
44565,13904
44552,13902
44539,13899
44527,13895
44515,13889
44504,13882
44494,13875
44484,13866
44475,13856
44468,13846
44461,13834
44455,13823
44451,13810
44448,13798
44446,13785
44445,13772
44445,13427
44446,13414
44448,13401
44451,13389
44455,13376
44461,13365
44468,13353
44475,13343
44484,13333
44494,13324
44504,13317
44515,13310
44527,13304
44539,13300
44552,13297
44565,13295
44578,13294
45021,13294
45034,13295
" /> 
<polyline style="fill-rule:evenodd;"
points="45034,12488
45047,12490
45060,12493
45072,12497
45084,12503
45095,12510
45105,12517
45115,12526
45124,12536
45131,12546
45138,12557
45144,12569
45148,12581
45151,12594
45153,12607
45154,12620
45154,12965
45153,12978
45151,12991
45148,13003
45144,13016
45138,13027
45131,13039
45124,13049
45115,13059
45105,13067
45095,13075
45084,13082
45072,13087
45060,13092
45047,13095
45034,13097
45021,13098
44578,13098
44565,13097
44552,13095
44539,13092
44527,13087
44515,13082
44504,13075
44494,13067
44484,13059
44475,13049
44468,13039
44461,13027
44455,13016
44451,13003
44448,12991
44446,12978
44445,12965
44445,12620
44446,12607
44448,12594
44451,12581
44455,12569
44461,12557
44468,12546
44475,12536
44484,12526
44494,12517
44504,12510
44515,12503
44527,12497
44539,12493
44552,12490
44565,12488
44578,12487
45021,12487
45034,12488
" /> 
</g>
<g style="fill:#FFFFFF; fill-opacity:1.0; 
stroke:#FFFFFF; stroke-width:826.772; stroke-opacity:1; 
stroke-linecap:round; stroke-linejoin:round;">
</g>
<g style="fill:#FFFFFF; fill-opacity:0.0; 
stroke:#FFFFFF; stroke-width:826.772; stroke-opacity:1; 
stroke-linecap:round; stroke-linejoin:round;">
<path d="M54595 22650
L54595 22650
" />
</g>
<g style="fill:#FFFFFF; fill-opacity:0.0; 
stroke:#FFFFFF; stroke-width:0; stroke-opacity:1; 
stroke-linecap:round; stroke-linejoin:round;">
</g>
<g style="fill:#FFFFFF; fill-opacity:1.0; 
stroke:#FFFFFF; stroke-width:0; stroke-opacity:1; 
stroke-linecap:round; stroke-linejoin:round;">
<polyline style="fill-rule:evenodd;"
points="55008,23236
55008,24063
54181,24063
54181,23236
55008,23236
" /> 
<polyline style="fill-rule:evenodd;"
points="42763,17236
42763,18063
41936,18063
41936,17236
42763,17236
" /> 
</g>
<g style="fill:#FFFFFF; fill-opacity:1.0; 
stroke:#FFFFFF; stroke-width:826.772; stroke-opacity:1; 
stroke-linecap:round; stroke-linejoin:round;">
</g>
<g style="fill:#FFFFFF; fill-opacity:0.0; 
stroke:#FFFFFF; stroke-width:826.772; stroke-opacity:1; 
stroke-linecap:round; stroke-linejoin:round;">
<path d="M42350 16650
L42350 16650
" />
</g>
<g style="fill:#FFFFFF; fill-opacity:0.0; 
stroke:#FFFFFF; stroke-width:0; stroke-opacity:1; 
stroke-linecap:round; stroke-linejoin:round;">
</g>
<g style="fill:#FFFFFF; fill-opacity:1.0; 
stroke:#FFFFFF; stroke-width:0; stroke-opacity:1; 
stroke-linecap:round; stroke-linejoin:round;">
<polyline style="fill-rule:evenodd;"
points="54186,13113
54186,12286
55013,12286
55013,13113
54186,13113
" /> 
</g>
<g style="fill:#FFFFFF; fill-opacity:1.0; 
stroke:#FFFFFF; stroke-width:826.772; stroke-opacity:1; 
stroke-linecap:round; stroke-linejoin:round;">
</g>
<g style="fill:#FFFFFF; fill-opacity:0.0; 
stroke:#FFFFFF; stroke-width:826.772; stroke-opacity:1; 
stroke-linecap:round; stroke-linejoin:round;">
<path d="M54600 13700
L54600 13700
" />
<path d="M54600 14700
L54600 14700
" />
<path d="M54600 15700
L54600 15700
" />
</g>
<g style="fill:#FFFFFF; fill-opacity:0.0; 
stroke:#FFFFFF; stroke-width:0; stroke-opacity:1; 
stroke-linecap:round; stroke-linejoin:round;">
</g>
<g style="fill:#FFFFFF; fill-opacity:1.0; 
stroke:#FFFFFF; stroke-width:0; stroke-opacity:1; 
stroke-linecap:round; stroke-linejoin:round;">
<polyline style="fill-rule:evenodd;"
points="49454,19515
49467,19517
49480,19520
49492,19524
49504,19530
49515,19537
49525,19544
49535,19553
49544,19563
49551,19573
49558,19585
49564,19596
49568,19609
49571,19621
49573,19634
49574,19647
49574,19992
49573,20005
49571,20018
49568,20030
49564,20043
49558,20054
49551,20066
49544,20076
49535,20086
49525,20095
49515,20102
49504,20109
49492,20115
49480,20119
49467,20122
49454,20124
49441,20125
48998,20125
48985,20124
48972,20122
48959,20119
48947,20115
48935,20109
48924,20102
48914,20095
48904,20086
48895,20076
48888,20066
48881,20054
48875,20043
48871,20030
48868,20018
48866,20005
48865,19992
48865,19647
48866,19634
48868,19621
48871,19609
48875,19596
48881,19585
48888,19573
48895,19563
48904,19553
48914,19544
48924,19537
48935,19530
48947,19524
48959,19520
48972,19517
48985,19515
48998,19514
49441,19514
49454,19515
" /> 
<polyline style="fill-rule:evenodd;"
points="49454,18708
49467,18710
49480,18713
49492,18717
49504,18723
49515,18730
49525,18737
49535,18746
49544,18756
49551,18766
49558,18777
49564,18789
49568,18801
49571,18814
49573,18827
49574,18840
49574,19185
49573,19198
49571,19211
49568,19223
49564,19236
49558,19247
49551,19259
49544,19269
49535,19279
49525,19287
49515,19295
49504,19302
49492,19307
49480,19312
49467,19315
49454,19317
49441,19318
48998,19318
48985,19317
48972,19315
48959,19312
48947,19307
48935,19302
48924,19295
48914,19287
48904,19279
48895,19269
48888,19259
48881,19247
48875,19236
48871,19223
48868,19211
48866,19198
48865,19185
48865,18840
48866,18827
48868,18814
48871,18801
48875,18789
48881,18777
48888,18766
48895,18756
48904,18746
48914,18737
48924,18730
48935,18723
48947,18717
48959,18713
48972,18710
48985,18708
48998,18707
49441,18707
49454,18708
" /> 
<polyline style="fill-rule:evenodd;"
points="54186,18063
54186,17236
55013,17236
55013,18063
54186,18063
" /> 
</g>
<g style="fill:#FFFFFF; fill-opacity:1.0; 
stroke:#FFFFFF; stroke-width:826.772; stroke-opacity:1; 
stroke-linecap:round; stroke-linejoin:round;">
</g>
<g style="fill:#FFFFFF; fill-opacity:0.0; 
stroke:#FFFFFF; stroke-width:826.772; stroke-opacity:1; 
stroke-linecap:round; stroke-linejoin:round;">
<path d="M54600 18650
L54600 18650
" />
<path d="M54600 19650
L54600 19650
" />
<path d="M54600 20650
L54600 20650
" />
</g>
<g style="fill:#FFFFFF; fill-opacity:0.0; 
stroke:#FFFFFF; stroke-width:0; stroke-opacity:1; 
stroke-linecap:round; stroke-linejoin:round;">
</g>
<g style="fill:#FFFFFF; fill-opacity:1.0; 
stroke:#FFFFFF; stroke-width:0; stroke-opacity:1; 
stroke-linecap:round; stroke-linejoin:round;">
<polyline style="fill-rule:evenodd;"
points="42353,29093
41526,29093
41526,28266
42353,28266
42353,29093
" /> 
</g>
<g style="fill:#FFFFFF; fill-opacity:1.0; 
stroke:#FFFFFF; stroke-width:826.772; stroke-opacity:1; 
stroke-linecap:round; stroke-linejoin:round;">
</g>
<g style="fill:#FFFFFF; fill-opacity:0.0; 
stroke:#FFFFFF; stroke-width:826.772; stroke-opacity:1; 
stroke-linecap:round; stroke-linejoin:round;">
<path d="M42940 28680
L42940 28680
" />
</g>
<g style="fill:#FFFFFF; fill-opacity:1.0; 
stroke:#FFFFFF; stroke-width:0; stroke-opacity:1; 
stroke-linecap:round; stroke-linejoin:round;">
<circle cx="48875" cy="14685" r="886" /> 
</g>
<g style="fill:#FFFFFF; fill-opacity:1.0; 
stroke:#FFFFFF; stroke-width:39.3701; stroke-opacity:1; 
stroke-linecap:round; stroke-linejoin:round;">
</g> 
</svg>
