%TF.GenerationSoftware,KiCad,Pcbnew,5.0.1-33cea8e~68~ubuntu18.04.1*%
%TF.CreationDate,2018-11-02T12:55:16-03:00*%
%TF.ProjectId,placa,706C6163612E6B696361645F70636200,rev?*%
%TF.SameCoordinates,Original*%
%TF.FileFunction,Copper,L2,Bot,Signal*%
%TF.FilePolarity,Positive*%
%FSLAX46Y46*%
G04 Gerber Fmt 4.6, Leading zero omitted, Abs format (unit mm)*
G04 Created by KiCad (PCBNEW 5.0.1-33cea8e~68~ubuntu18.04.1) date sex 02 nov 2018 12:55:16 -03*
%MOMM*%
%LPD*%
G01*
G04 APERTURE LIST*
%ADD10C,0.150000*%
%ADD11C,0.300000*%
%ADD12C,0.010000*%
%ADD13C,1.524000*%
%ADD14C,1.200000*%
%ADD15C,1.600000*%
%ADD16O,1.600000X1.600000*%
%ADD17R,1.600000X1.600000*%
%ADD18C,1.500000*%
%ADD19O,1.700000X1.700000*%
%ADD20R,1.700000X1.700000*%
%ADD21C,1.100000*%
%ADD22C,1.400000*%
%ADD23C,0.635000*%
%ADD24C,0.381000*%
%ADD25C,0.508000*%
G04 APERTURE END LIST*
D10*
X124856666Y-42672000D02*
G75*
G03X124856666Y-42672000I-1666666J0D01*
G01*
X120690000Y-42672000D02*
X125690000Y-42672000D01*
X123190000Y-40172000D02*
X123190000Y-45172000D01*
D11*
X139747285Y-73084571D02*
X139390142Y-74084571D01*
X139033000Y-73084571D01*
X136533000Y-74084571D02*
X137390142Y-74084571D01*
X136961571Y-74084571D02*
X136961571Y-72584571D01*
X137104428Y-72798857D01*
X137247285Y-72941714D01*
X137390142Y-73013142D01*
X135890142Y-73941714D02*
X135818714Y-74013142D01*
X135890142Y-74084571D01*
X135961571Y-74013142D01*
X135890142Y-73941714D01*
X135890142Y-74084571D01*
X135247285Y-72727428D02*
X135175857Y-72656000D01*
X135033000Y-72584571D01*
X134675857Y-72584571D01*
X134533000Y-72656000D01*
X134461571Y-72727428D01*
X134390142Y-72870285D01*
X134390142Y-73013142D01*
X134461571Y-73227428D01*
X135318714Y-74084571D01*
X134390142Y-74084571D01*
D10*
X103632000Y-27432000D02*
X141732000Y-27178000D01*
X103632000Y-111252000D02*
X103632000Y-27432000D01*
X122682000Y-122428000D02*
X103632000Y-111252000D01*
X141478000Y-111252000D02*
X122682000Y-122428000D01*
X141478000Y-110998000D02*
X141478000Y-111252000D01*
X141732000Y-27178000D02*
X141478000Y-110998000D01*
D12*
G36*
X129351000Y-117581000D02*
X122931000Y-121401000D01*
X122931000Y-117581000D01*
X129351000Y-117581000D01*
G37*
X129351000Y-117581000D02*
X122931000Y-121401000D01*
X122931000Y-117581000D01*
X129351000Y-117581000D01*
G36*
X120431000Y-120011000D02*
X122621000Y-121421000D01*
X122621000Y-117591000D01*
X116271000Y-117581000D01*
X120431000Y-120011000D01*
G37*
X120431000Y-120011000D02*
X122621000Y-121421000D01*
X122621000Y-117591000D01*
X116271000Y-117581000D01*
X120431000Y-120011000D01*
G36*
X129481000Y-117241000D02*
X132071000Y-115741000D01*
X114791000Y-115711000D01*
X117401000Y-117211000D01*
X129481000Y-117241000D01*
G37*
X129481000Y-117241000D02*
X132071000Y-115741000D01*
X114791000Y-115711000D01*
X117401000Y-117211000D01*
X129481000Y-117241000D01*
G36*
X135781000Y-113641000D02*
X138371000Y-112141000D01*
X108671000Y-112161000D01*
X111281000Y-113661000D01*
X135781000Y-113641000D01*
G37*
X135781000Y-113641000D02*
X138371000Y-112141000D01*
X108671000Y-112161000D01*
X111281000Y-113661000D01*
X135781000Y-113641000D01*
G36*
X131361000Y-115431000D02*
X133901000Y-113931000D01*
X110571000Y-113941000D01*
X113041000Y-115431000D01*
X131361000Y-115431000D01*
G37*
X131361000Y-115431000D02*
X133901000Y-113931000D01*
X110571000Y-113941000D01*
X113041000Y-115431000D01*
X131361000Y-115431000D01*
G36*
X106181000Y-111321000D02*
X106181000Y-111821000D01*
X106191000Y-111831000D01*
X106691000Y-111531000D01*
X106681000Y-111321000D01*
X106181000Y-111321000D01*
G37*
X106181000Y-111321000D02*
X106181000Y-111821000D01*
X106191000Y-111831000D01*
X106691000Y-111531000D01*
X106681000Y-111321000D01*
X106181000Y-111321000D01*
G36*
X106681000Y-111531000D02*
X106191000Y-111831000D01*
X120831000Y-120231000D01*
X121131000Y-119831000D01*
X106681000Y-111531000D01*
G37*
X106681000Y-111531000D02*
X106191000Y-111831000D01*
X120831000Y-120231000D01*
X121131000Y-119831000D01*
X106681000Y-111531000D01*
G36*
X138621000Y-111821000D02*
X139121000Y-111821000D01*
X124921000Y-120221000D01*
X124621000Y-119721000D01*
X138621000Y-111821000D01*
G37*
X138621000Y-111821000D02*
X139121000Y-111821000D01*
X124921000Y-120221000D01*
X124621000Y-119721000D01*
X138621000Y-111821000D01*
G36*
X138631000Y-110041000D02*
X138631000Y-108541000D01*
X106991000Y-108541000D01*
X106991000Y-110041000D01*
X138631000Y-110041000D01*
G37*
X138631000Y-110041000D02*
X138631000Y-108541000D01*
X106991000Y-108541000D01*
X106991000Y-110041000D01*
X138631000Y-110041000D01*
G36*
X138631000Y-106441000D02*
X138631000Y-104941000D01*
X106991000Y-104941000D01*
X106991000Y-106441000D01*
X138631000Y-106441000D01*
G37*
X138631000Y-106441000D02*
X138631000Y-104941000D01*
X106991000Y-104941000D01*
X106991000Y-106441000D01*
X138631000Y-106441000D01*
G36*
X138631000Y-102841000D02*
X138631000Y-101341000D01*
X106991000Y-101341000D01*
X106991000Y-102841000D01*
X138631000Y-102841000D01*
G37*
X138631000Y-102841000D02*
X138631000Y-101341000D01*
X106991000Y-101341000D01*
X106991000Y-102841000D01*
X138631000Y-102841000D01*
G36*
X138631000Y-99231000D02*
X138631000Y-97731000D01*
X106991000Y-97731000D01*
X106991000Y-99231000D01*
X138631000Y-99231000D01*
G37*
X138631000Y-99231000D02*
X138631000Y-97731000D01*
X106991000Y-97731000D01*
X106991000Y-99231000D01*
X138631000Y-99231000D01*
G36*
X138631000Y-95631000D02*
X138631000Y-94131000D01*
X106991000Y-94131000D01*
X106991000Y-95631000D01*
X138631000Y-95631000D01*
G37*
X138631000Y-95631000D02*
X138631000Y-94131000D01*
X106991000Y-94131000D01*
X106991000Y-95631000D01*
X138631000Y-95631000D01*
G36*
X138631000Y-92031000D02*
X138631000Y-90531000D01*
X106991000Y-90531000D01*
X106991000Y-92031000D01*
X138631000Y-92031000D01*
G37*
X138631000Y-92031000D02*
X138631000Y-90531000D01*
X106991000Y-90531000D01*
X106991000Y-92031000D01*
X138631000Y-92031000D01*
G36*
X138631000Y-88431000D02*
X138631000Y-86931000D01*
X106991000Y-86931000D01*
X106991000Y-88431000D01*
X138631000Y-88431000D01*
G37*
X138631000Y-88431000D02*
X138631000Y-86931000D01*
X106991000Y-86931000D01*
X106991000Y-88431000D01*
X138631000Y-88431000D01*
G36*
X138631000Y-84831000D02*
X138631000Y-83331000D01*
X106991000Y-83331000D01*
X106991000Y-84831000D01*
X138631000Y-84831000D01*
G37*
X138631000Y-84831000D02*
X138631000Y-83331000D01*
X106991000Y-83331000D01*
X106991000Y-84831000D01*
X138631000Y-84831000D01*
G36*
X138631000Y-81231000D02*
X138631000Y-79731000D01*
X106991000Y-79731000D01*
X106991000Y-81231000D01*
X138631000Y-81231000D01*
G37*
X138631000Y-81231000D02*
X138631000Y-79731000D01*
X106991000Y-79731000D01*
X106991000Y-81231000D01*
X138631000Y-81231000D01*
G36*
X137991000Y-111821000D02*
X137991000Y-110321000D01*
X106681000Y-110331000D01*
X106681000Y-111831000D01*
X137991000Y-111821000D01*
G37*
X137991000Y-111821000D02*
X137991000Y-110321000D01*
X106681000Y-110331000D01*
X106681000Y-111831000D01*
X137991000Y-111821000D01*
G36*
X138331000Y-108221000D02*
X138331000Y-106721000D01*
X106681000Y-106731000D01*
X106681000Y-108231000D01*
X138331000Y-108221000D01*
G37*
X138331000Y-108221000D02*
X138331000Y-106721000D01*
X106681000Y-106731000D01*
X106681000Y-108231000D01*
X138331000Y-108221000D01*
G36*
X138321000Y-104621000D02*
X138321000Y-103121000D01*
X106681000Y-103131000D01*
X106681000Y-104631000D01*
X138321000Y-104621000D01*
G37*
X138321000Y-104621000D02*
X138321000Y-103121000D01*
X106681000Y-103131000D01*
X106681000Y-104631000D01*
X138321000Y-104621000D01*
G36*
X138331000Y-101031000D02*
X138331000Y-99531000D01*
X106681000Y-99531000D01*
X106681000Y-101031000D01*
X138331000Y-101031000D01*
G37*
X138331000Y-101031000D02*
X138331000Y-99531000D01*
X106681000Y-99531000D01*
X106681000Y-101031000D01*
X138331000Y-101031000D01*
G36*
X138331000Y-97431000D02*
X138331000Y-95931000D01*
X106681000Y-95931000D01*
X106681000Y-97431000D01*
X138331000Y-97431000D01*
G37*
X138331000Y-97431000D02*
X138331000Y-95931000D01*
X106681000Y-95931000D01*
X106681000Y-97431000D01*
X138331000Y-97431000D01*
G36*
X138331000Y-93831000D02*
X138331000Y-92331000D01*
X106681000Y-92331000D01*
X106681000Y-93831000D01*
X138331000Y-93831000D01*
G37*
X138331000Y-93831000D02*
X138331000Y-92331000D01*
X106681000Y-92331000D01*
X106681000Y-93831000D01*
X138331000Y-93831000D01*
G36*
X138331000Y-90231000D02*
X138331000Y-88731000D01*
X106681000Y-88731000D01*
X106681000Y-90231000D01*
X138331000Y-90231000D01*
G37*
X138331000Y-90231000D02*
X138331000Y-88731000D01*
X106681000Y-88731000D01*
X106681000Y-90231000D01*
X138331000Y-90231000D01*
G36*
X138331000Y-86631000D02*
X138331000Y-85131000D01*
X106681000Y-85131000D01*
X106681000Y-86631000D01*
X138331000Y-86631000D01*
G37*
X138331000Y-86631000D02*
X138331000Y-85131000D01*
X106681000Y-85131000D01*
X106681000Y-86631000D01*
X138331000Y-86631000D01*
G36*
X138331000Y-83021000D02*
X138331000Y-81521000D01*
X106681000Y-81531000D01*
X106681000Y-83031000D01*
X138331000Y-83021000D01*
G37*
X138331000Y-83021000D02*
X138331000Y-81521000D01*
X106681000Y-81531000D01*
X106681000Y-83031000D01*
X138331000Y-83021000D01*
G36*
X106681000Y-111321000D02*
X106681000Y-77631000D01*
X106181000Y-77631000D01*
X106181000Y-111321000D01*
X106681000Y-111321000D01*
G37*
X106681000Y-111321000D02*
X106681000Y-77631000D01*
X106181000Y-77631000D01*
X106181000Y-111321000D01*
X106681000Y-111321000D01*
G36*
X139131000Y-111841000D02*
X139131000Y-77631000D01*
X138631000Y-77631000D01*
X138631000Y-111841000D01*
X139131000Y-111841000D01*
G37*
X139131000Y-111841000D02*
X139131000Y-77631000D01*
X138631000Y-77631000D01*
X138631000Y-111841000D01*
X139131000Y-111841000D01*
G36*
X139131000Y-77631000D02*
X139131000Y-76131000D01*
X125581000Y-76131000D01*
X125581000Y-77631000D01*
X139131000Y-77631000D01*
G37*
X139131000Y-77631000D02*
X139131000Y-76131000D01*
X125581000Y-76131000D01*
X125581000Y-77631000D01*
X139131000Y-77631000D01*
G36*
X119631000Y-77631000D02*
X119631000Y-76131000D01*
X106181000Y-76131000D01*
X106181000Y-77631000D01*
X119631000Y-77631000D01*
G37*
X119631000Y-77631000D02*
X119631000Y-76131000D01*
X106181000Y-76131000D01*
X106181000Y-77631000D01*
X119631000Y-77631000D01*
D13*
X125631000Y-76881000D03*
X119631000Y-76881000D03*
X118135400Y-30581600D03*
D14*
X118364000Y-56388000D03*
X118364000Y-54888000D03*
D15*
X125852000Y-66548000D03*
D16*
X123952000Y-66548000D03*
D17*
X120142000Y-52324000D03*
D15*
X120142000Y-49824000D03*
D17*
X111506000Y-39370000D03*
D15*
X113506000Y-39370000D03*
D18*
X107950000Y-54864000D03*
X107950000Y-59744000D03*
D19*
X138671300Y-57531000D03*
D20*
X138671300Y-60071000D03*
X107569000Y-44831000D03*
D19*
X107569000Y-42291000D03*
D20*
X138684000Y-32258000D03*
D19*
X138684000Y-34798000D03*
X138684000Y-37338000D03*
X138684000Y-39878000D03*
D20*
X138684000Y-44831000D03*
D19*
X138684000Y-47371000D03*
X138684000Y-49911000D03*
X138684000Y-52451000D03*
D20*
X106527600Y-72847200D03*
D19*
X109067600Y-72847200D03*
D15*
X134366000Y-64262000D03*
D16*
X134366000Y-66162000D03*
D21*
X138658600Y-42341800D03*
X135890000Y-62484000D03*
X114300000Y-69342000D03*
X123952000Y-73406000D03*
X117602000Y-59944000D03*
X133477000Y-71247000D03*
X136144000Y-52578000D03*
X107696000Y-31496000D03*
X127508000Y-71882000D03*
D22*
X115316024Y-52324000D03*
D21*
X115316024Y-45974024D03*
D23*
X125631000Y-76881000D02*
X125631000Y-74775000D01*
D24*
X136439999Y-63033999D02*
X135890000Y-62484000D01*
X136693999Y-63287999D02*
X136439999Y-63033999D01*
X133666001Y-66861999D02*
X132528001Y-66861999D01*
X134366000Y-66162000D02*
X133666001Y-66861999D01*
X132528001Y-66861999D02*
X127508000Y-71882000D01*
D25*
X115316024Y-46304224D02*
X115176300Y-46164500D01*
X115316024Y-52324000D02*
X115316024Y-45974024D01*
D11*
G36*
X140861219Y-75284676D02*
X140761572Y-75284000D01*
X140761572Y-71601000D01*
X133304429Y-71601000D01*
X133304429Y-75233443D01*
X104357000Y-75037189D01*
X104357000Y-71997200D01*
X105014866Y-71997200D01*
X105014866Y-73697200D01*
X105065314Y-73950817D01*
X105208976Y-74165824D01*
X105423983Y-74309486D01*
X105677600Y-74359934D01*
X107377600Y-74359934D01*
X107631217Y-74309486D01*
X107846224Y-74165824D01*
X107989886Y-73950817D01*
X108004447Y-73877614D01*
X108267463Y-74125428D01*
X108729539Y-74316819D01*
X108963600Y-74186669D01*
X108963600Y-72951200D01*
X109171600Y-72951200D01*
X109171600Y-74186669D01*
X109405661Y-74316819D01*
X109867737Y-74125428D01*
X110295987Y-73721930D01*
X110537226Y-73185262D01*
X110407517Y-72951200D01*
X109171600Y-72951200D01*
X108963600Y-72951200D01*
X108943600Y-72951200D01*
X108943600Y-72743200D01*
X108963600Y-72743200D01*
X108963600Y-71507731D01*
X109171600Y-71507731D01*
X109171600Y-72743200D01*
X110407517Y-72743200D01*
X110537226Y-72509138D01*
X110295987Y-71972470D01*
X109946630Y-71643305D01*
X126308000Y-71643305D01*
X126308000Y-72120695D01*
X126490689Y-72561745D01*
X126828255Y-72899311D01*
X127269305Y-73082000D01*
X127746695Y-73082000D01*
X128187745Y-72899311D01*
X128525311Y-72561745D01*
X128708000Y-72120695D01*
X128708000Y-71870645D01*
X132876148Y-67702499D01*
X133583225Y-67702499D01*
X133666001Y-67718964D01*
X133748777Y-67702499D01*
X133748781Y-67702499D01*
X133993948Y-67653732D01*
X134094665Y-67586435D01*
X134223188Y-67612000D01*
X134508812Y-67612000D01*
X134931762Y-67527870D01*
X135411392Y-67207392D01*
X135731870Y-66727762D01*
X135844407Y-66162000D01*
X135731870Y-65596238D01*
X135471717Y-65206892D01*
X135595250Y-65083359D01*
X135816000Y-64550423D01*
X135816000Y-63973577D01*
X135595250Y-63440641D01*
X135187359Y-63032750D01*
X134654423Y-62812000D01*
X134077577Y-62812000D01*
X133544641Y-63032750D01*
X133136750Y-63440641D01*
X132916000Y-63973577D01*
X132916000Y-64550423D01*
X133136750Y-65083359D01*
X133260283Y-65206892D01*
X133000130Y-65596238D01*
X132915540Y-66021499D01*
X132610771Y-66021499D01*
X132528000Y-66005035D01*
X132445229Y-66021499D01*
X132445221Y-66021499D01*
X132200054Y-66070266D01*
X132080159Y-66150378D01*
X131992211Y-66209142D01*
X131992209Y-66209144D01*
X131922035Y-66256033D01*
X131875146Y-66326207D01*
X127519355Y-70682000D01*
X127269305Y-70682000D01*
X126828255Y-70864689D01*
X126490689Y-71202255D01*
X126308000Y-71643305D01*
X109946630Y-71643305D01*
X109867737Y-71568972D01*
X109405661Y-71377581D01*
X109171600Y-71507731D01*
X108963600Y-71507731D01*
X108729539Y-71377581D01*
X108267463Y-71568972D01*
X108004447Y-71816786D01*
X107989886Y-71743583D01*
X107846224Y-71528576D01*
X107631217Y-71384914D01*
X107377600Y-71334466D01*
X105677600Y-71334466D01*
X105423983Y-71384914D01*
X105208976Y-71528576D01*
X105065314Y-71743583D01*
X105014866Y-71997200D01*
X104357000Y-71997200D01*
X104357000Y-66548000D01*
X122473593Y-66548000D01*
X122586130Y-67113762D01*
X122906608Y-67593392D01*
X123386238Y-67913870D01*
X123809188Y-67998000D01*
X124094812Y-67998000D01*
X124517762Y-67913870D01*
X124907108Y-67653717D01*
X125030641Y-67777250D01*
X125563577Y-67998000D01*
X126140423Y-67998000D01*
X126673359Y-67777250D01*
X127081250Y-67369359D01*
X127302000Y-66836423D01*
X127302000Y-66259577D01*
X127081250Y-65726641D01*
X126673359Y-65318750D01*
X126140423Y-65098000D01*
X125563577Y-65098000D01*
X125030641Y-65318750D01*
X124907108Y-65442283D01*
X124517762Y-65182130D01*
X124094812Y-65098000D01*
X123809188Y-65098000D01*
X123386238Y-65182130D01*
X122906608Y-65502608D01*
X122586130Y-65982238D01*
X122473593Y-66548000D01*
X104357000Y-66548000D01*
X104357000Y-59465523D01*
X106550000Y-59465523D01*
X106550000Y-60022477D01*
X106763137Y-60537037D01*
X107156963Y-60930863D01*
X107671523Y-61144000D01*
X108228477Y-61144000D01*
X108743037Y-60930863D01*
X109136863Y-60537037D01*
X109350000Y-60022477D01*
X109350000Y-59465523D01*
X109136863Y-58950963D01*
X108743037Y-58557137D01*
X108228477Y-58344000D01*
X107671523Y-58344000D01*
X107156963Y-58557137D01*
X106763137Y-58950963D01*
X106550000Y-59465523D01*
X104357000Y-59465523D01*
X104357000Y-54585523D01*
X106550000Y-54585523D01*
X106550000Y-55142477D01*
X106763137Y-55657037D01*
X107156963Y-56050863D01*
X107671523Y-56264000D01*
X108228477Y-56264000D01*
X108743037Y-56050863D01*
X109136863Y-55657037D01*
X109350000Y-55142477D01*
X109350000Y-54639360D01*
X117114000Y-54639360D01*
X117114000Y-55136640D01*
X117304301Y-55596068D01*
X117346233Y-55638000D01*
X117304301Y-55679932D01*
X117114000Y-56139360D01*
X117114000Y-56636640D01*
X117304301Y-57096068D01*
X117655932Y-57447699D01*
X118115360Y-57638000D01*
X118612640Y-57638000D01*
X118870961Y-57531000D01*
X137141914Y-57531000D01*
X137258332Y-58116271D01*
X137585062Y-58605257D01*
X137567683Y-58608714D01*
X137352676Y-58752376D01*
X137209014Y-58967383D01*
X137158566Y-59221000D01*
X137158566Y-60921000D01*
X137209014Y-61174617D01*
X137352676Y-61389624D01*
X137567683Y-61533286D01*
X137821300Y-61583734D01*
X139521300Y-61583734D01*
X139774917Y-61533286D01*
X139989924Y-61389624D01*
X140133586Y-61174617D01*
X140184034Y-60921000D01*
X140184034Y-59221000D01*
X140133586Y-58967383D01*
X139989924Y-58752376D01*
X139774917Y-58608714D01*
X139757538Y-58605257D01*
X140084268Y-58116271D01*
X140200686Y-57531000D01*
X140084268Y-56945729D01*
X139752739Y-56449561D01*
X139256571Y-56118032D01*
X138819033Y-56031000D01*
X138523567Y-56031000D01*
X138086029Y-56118032D01*
X137589861Y-56449561D01*
X137258332Y-56945729D01*
X137141914Y-57531000D01*
X118870961Y-57531000D01*
X119072068Y-57447699D01*
X119423699Y-57096068D01*
X119614000Y-56636640D01*
X119614000Y-56139360D01*
X119423699Y-55679932D01*
X119381767Y-55638000D01*
X119423699Y-55596068D01*
X119614000Y-55136640D01*
X119614000Y-54639360D01*
X119423699Y-54179932D01*
X119072068Y-53828301D01*
X118612640Y-53638000D01*
X118115360Y-53638000D01*
X117655932Y-53828301D01*
X117304301Y-54179932D01*
X117114000Y-54639360D01*
X109350000Y-54639360D01*
X109350000Y-54585523D01*
X109136863Y-54070963D01*
X108743037Y-53677137D01*
X108228477Y-53464000D01*
X107671523Y-53464000D01*
X107156963Y-53677137D01*
X106763137Y-54070963D01*
X106550000Y-54585523D01*
X104357000Y-54585523D01*
X104357000Y-52055468D01*
X113966024Y-52055468D01*
X113966024Y-52592532D01*
X114171549Y-53088714D01*
X114551310Y-53468475D01*
X115047492Y-53674000D01*
X115584556Y-53674000D01*
X116080738Y-53468475D01*
X116460499Y-53088714D01*
X116666024Y-52592532D01*
X116666024Y-52055468D01*
X116460499Y-51559286D01*
X116425213Y-51524000D01*
X118679266Y-51524000D01*
X118679266Y-53124000D01*
X118729714Y-53377617D01*
X118873376Y-53592624D01*
X119088383Y-53736286D01*
X119342000Y-53786734D01*
X120942000Y-53786734D01*
X121195617Y-53736286D01*
X121410624Y-53592624D01*
X121554286Y-53377617D01*
X121604734Y-53124000D01*
X121604734Y-51524000D01*
X121554286Y-51270383D01*
X121410624Y-51055376D01*
X121195617Y-50911714D01*
X120988984Y-50870612D01*
X121000404Y-50829483D01*
X120142000Y-49971078D01*
X119283596Y-50829483D01*
X119295016Y-50870612D01*
X119088383Y-50911714D01*
X118873376Y-51055376D01*
X118729714Y-51270383D01*
X118679266Y-51524000D01*
X116425213Y-51524000D01*
X116220024Y-51318811D01*
X116220024Y-49578946D01*
X118675772Y-49578946D01*
X118693603Y-50158701D01*
X118881161Y-50611502D01*
X119136517Y-50682404D01*
X119994922Y-49824000D01*
X120289078Y-49824000D01*
X121147483Y-50682404D01*
X121402839Y-50611502D01*
X121608228Y-50069054D01*
X121603367Y-49911000D01*
X137154614Y-49911000D01*
X137271032Y-50496271D01*
X137602561Y-50992439D01*
X137884762Y-51181000D01*
X137602561Y-51369561D01*
X137271032Y-51865729D01*
X137154614Y-52451000D01*
X137271032Y-53036271D01*
X137602561Y-53532439D01*
X138098729Y-53863968D01*
X138536267Y-53951000D01*
X138831733Y-53951000D01*
X139269271Y-53863968D01*
X139765439Y-53532439D01*
X140096968Y-53036271D01*
X140213386Y-52451000D01*
X140096968Y-51865729D01*
X139765439Y-51369561D01*
X139483238Y-51181000D01*
X139765439Y-50992439D01*
X140096968Y-50496271D01*
X140213386Y-49911000D01*
X140096968Y-49325729D01*
X139765439Y-48829561D01*
X139476368Y-48636410D01*
X139558730Y-48599387D01*
X139962228Y-48171137D01*
X140153619Y-47709061D01*
X140023469Y-47475000D01*
X138788000Y-47475000D01*
X138788000Y-47495000D01*
X138580000Y-47495000D01*
X138580000Y-47475000D01*
X137344531Y-47475000D01*
X137214381Y-47709061D01*
X137405772Y-48171137D01*
X137809270Y-48599387D01*
X137891632Y-48636410D01*
X137602561Y-48829561D01*
X137271032Y-49325729D01*
X137154614Y-49911000D01*
X121603367Y-49911000D01*
X121590397Y-49489299D01*
X121402839Y-49036498D01*
X121147483Y-48965596D01*
X120289078Y-49824000D01*
X119994922Y-49824000D01*
X119136517Y-48965596D01*
X118881161Y-49036498D01*
X118675772Y-49578946D01*
X116220024Y-49578946D01*
X116220024Y-48818517D01*
X119283596Y-48818517D01*
X120142000Y-49676922D01*
X121000404Y-48818517D01*
X120929502Y-48563161D01*
X120387054Y-48357772D01*
X119807299Y-48375603D01*
X119354498Y-48563161D01*
X119283596Y-48818517D01*
X116220024Y-48818517D01*
X116220024Y-46767080D01*
X116333335Y-46653769D01*
X116516024Y-46212719D01*
X116516024Y-45735329D01*
X116333335Y-45294279D01*
X115995769Y-44956713D01*
X115554719Y-44774024D01*
X115077329Y-44774024D01*
X114636279Y-44956713D01*
X114298713Y-45294279D01*
X114116024Y-45735329D01*
X114116024Y-46212719D01*
X114298713Y-46653769D01*
X114412025Y-46767081D01*
X114412024Y-51318811D01*
X114171549Y-51559286D01*
X113966024Y-52055468D01*
X104357000Y-52055468D01*
X104357000Y-45099500D01*
X106061000Y-45099500D01*
X106061000Y-45811885D01*
X106161175Y-46053727D01*
X106346273Y-46238826D01*
X106588116Y-46339000D01*
X107300500Y-46339000D01*
X107465000Y-46174500D01*
X107465000Y-44935000D01*
X107673000Y-44935000D01*
X107673000Y-46174500D01*
X107837500Y-46339000D01*
X108549884Y-46339000D01*
X108791727Y-46238826D01*
X108976825Y-46053727D01*
X109077000Y-45811885D01*
X109077000Y-45099500D01*
X108912500Y-44935000D01*
X107673000Y-44935000D01*
X107465000Y-44935000D01*
X106225500Y-44935000D01*
X106061000Y-45099500D01*
X104357000Y-45099500D01*
X104357000Y-42291000D01*
X106039614Y-42291000D01*
X106156032Y-42876271D01*
X106483485Y-43366339D01*
X106346273Y-43423174D01*
X106161175Y-43608273D01*
X106061000Y-43850115D01*
X106061000Y-44562500D01*
X106225500Y-44727000D01*
X107465000Y-44727000D01*
X107465000Y-44707000D01*
X107673000Y-44707000D01*
X107673000Y-44727000D01*
X108912500Y-44727000D01*
X109077000Y-44562500D01*
X109077000Y-43981000D01*
X137171266Y-43981000D01*
X137171266Y-45681000D01*
X137221714Y-45934617D01*
X137365376Y-46149624D01*
X137580383Y-46293286D01*
X137653586Y-46307847D01*
X137405772Y-46570863D01*
X137214381Y-47032939D01*
X137344531Y-47267000D01*
X138580000Y-47267000D01*
X138580000Y-47247000D01*
X138788000Y-47247000D01*
X138788000Y-47267000D01*
X140023469Y-47267000D01*
X140153619Y-47032939D01*
X139962228Y-46570863D01*
X139714414Y-46307847D01*
X139787617Y-46293286D01*
X140002624Y-46149624D01*
X140146286Y-45934617D01*
X140196734Y-45681000D01*
X140196734Y-43981000D01*
X140146286Y-43727383D01*
X140002624Y-43512376D01*
X139787617Y-43368714D01*
X139534000Y-43318266D01*
X137834000Y-43318266D01*
X137580383Y-43368714D01*
X137365376Y-43512376D01*
X137221714Y-43727383D01*
X137171266Y-43981000D01*
X109077000Y-43981000D01*
X109077000Y-43850115D01*
X108976825Y-43608273D01*
X108791727Y-43423174D01*
X108654515Y-43366339D01*
X108981968Y-42876271D01*
X109098386Y-42291000D01*
X108981968Y-41705729D01*
X108650439Y-41209561D01*
X108154271Y-40878032D01*
X107716733Y-40791000D01*
X107421267Y-40791000D01*
X106983729Y-40878032D01*
X106487561Y-41209561D01*
X106156032Y-41705729D01*
X106039614Y-42291000D01*
X104357000Y-42291000D01*
X104357000Y-38570000D01*
X110043266Y-38570000D01*
X110043266Y-40170000D01*
X110093714Y-40423617D01*
X110237376Y-40638624D01*
X110452383Y-40782286D01*
X110706000Y-40832734D01*
X112306000Y-40832734D01*
X112559617Y-40782286D01*
X112761760Y-40647219D01*
X113260946Y-40836228D01*
X113840701Y-40818397D01*
X114293502Y-40630839D01*
X114364404Y-40375483D01*
X113506000Y-39517078D01*
X113491858Y-39531221D01*
X113344780Y-39384143D01*
X113358922Y-39370000D01*
X113653078Y-39370000D01*
X114511483Y-40228404D01*
X114766839Y-40157502D01*
X114972228Y-39615054D01*
X114954397Y-39035299D01*
X114766839Y-38582498D01*
X114511483Y-38511596D01*
X113653078Y-39370000D01*
X113358922Y-39370000D01*
X113344780Y-39355858D01*
X113491858Y-39208779D01*
X113506000Y-39222922D01*
X114364404Y-38364517D01*
X114293502Y-38109161D01*
X113751054Y-37903772D01*
X113171299Y-37921603D01*
X112760338Y-38091830D01*
X112559617Y-37957714D01*
X112306000Y-37907266D01*
X110706000Y-37907266D01*
X110452383Y-37957714D01*
X110237376Y-38101376D01*
X110093714Y-38316383D01*
X110043266Y-38570000D01*
X104357000Y-38570000D01*
X104357000Y-34798000D01*
X137154614Y-34798000D01*
X137271032Y-35383271D01*
X137602561Y-35879439D01*
X137884762Y-36068000D01*
X137602561Y-36256561D01*
X137271032Y-36752729D01*
X137154614Y-37338000D01*
X137271032Y-37923271D01*
X137602561Y-38419439D01*
X137884762Y-38608000D01*
X137602561Y-38796561D01*
X137271032Y-39292729D01*
X137154614Y-39878000D01*
X137271032Y-40463271D01*
X137602561Y-40959439D01*
X138098729Y-41290968D01*
X138536267Y-41378000D01*
X138831733Y-41378000D01*
X139269271Y-41290968D01*
X139765439Y-40959439D01*
X140096968Y-40463271D01*
X140213386Y-39878000D01*
X140096968Y-39292729D01*
X139765439Y-38796561D01*
X139483238Y-38608000D01*
X139765439Y-38419439D01*
X140096968Y-37923271D01*
X140213386Y-37338000D01*
X140096968Y-36752729D01*
X139765439Y-36256561D01*
X139483238Y-36068000D01*
X139765439Y-35879439D01*
X140096968Y-35383271D01*
X140213386Y-34798000D01*
X140096968Y-34212729D01*
X139770238Y-33723743D01*
X139787617Y-33720286D01*
X140002624Y-33576624D01*
X140146286Y-33361617D01*
X140196734Y-33108000D01*
X140196734Y-31408000D01*
X140146286Y-31154383D01*
X140002624Y-30939376D01*
X139787617Y-30795714D01*
X139534000Y-30745266D01*
X137834000Y-30745266D01*
X137580383Y-30795714D01*
X137365376Y-30939376D01*
X137221714Y-31154383D01*
X137171266Y-31408000D01*
X137171266Y-33108000D01*
X137221714Y-33361617D01*
X137365376Y-33576624D01*
X137580383Y-33720286D01*
X137597762Y-33723743D01*
X137271032Y-34212729D01*
X137154614Y-34798000D01*
X104357000Y-34798000D01*
X104357000Y-30300736D01*
X116723400Y-30300736D01*
X116723400Y-30862464D01*
X116938364Y-31381434D01*
X117335566Y-31778636D01*
X117854536Y-31993600D01*
X118416264Y-31993600D01*
X118935234Y-31778636D01*
X119332436Y-31381434D01*
X119547400Y-30862464D01*
X119547400Y-30300736D01*
X119332436Y-29781766D01*
X118935234Y-29384564D01*
X118416264Y-29169600D01*
X117854536Y-29169600D01*
X117335566Y-29384564D01*
X116938364Y-29781766D01*
X116723400Y-30300736D01*
X104357000Y-30300736D01*
X104357000Y-28152182D01*
X141004785Y-27907863D01*
X140861219Y-75284676D01*
X140861219Y-75284676D01*
G37*
X140861219Y-75284676D02*
X140761572Y-75284000D01*
X140761572Y-71601000D01*
X133304429Y-71601000D01*
X133304429Y-75233443D01*
X104357000Y-75037189D01*
X104357000Y-71997200D01*
X105014866Y-71997200D01*
X105014866Y-73697200D01*
X105065314Y-73950817D01*
X105208976Y-74165824D01*
X105423983Y-74309486D01*
X105677600Y-74359934D01*
X107377600Y-74359934D01*
X107631217Y-74309486D01*
X107846224Y-74165824D01*
X107989886Y-73950817D01*
X108004447Y-73877614D01*
X108267463Y-74125428D01*
X108729539Y-74316819D01*
X108963600Y-74186669D01*
X108963600Y-72951200D01*
X109171600Y-72951200D01*
X109171600Y-74186669D01*
X109405661Y-74316819D01*
X109867737Y-74125428D01*
X110295987Y-73721930D01*
X110537226Y-73185262D01*
X110407517Y-72951200D01*
X109171600Y-72951200D01*
X108963600Y-72951200D01*
X108943600Y-72951200D01*
X108943600Y-72743200D01*
X108963600Y-72743200D01*
X108963600Y-71507731D01*
X109171600Y-71507731D01*
X109171600Y-72743200D01*
X110407517Y-72743200D01*
X110537226Y-72509138D01*
X110295987Y-71972470D01*
X109946630Y-71643305D01*
X126308000Y-71643305D01*
X126308000Y-72120695D01*
X126490689Y-72561745D01*
X126828255Y-72899311D01*
X127269305Y-73082000D01*
X127746695Y-73082000D01*
X128187745Y-72899311D01*
X128525311Y-72561745D01*
X128708000Y-72120695D01*
X128708000Y-71870645D01*
X132876148Y-67702499D01*
X133583225Y-67702499D01*
X133666001Y-67718964D01*
X133748777Y-67702499D01*
X133748781Y-67702499D01*
X133993948Y-67653732D01*
X134094665Y-67586435D01*
X134223188Y-67612000D01*
X134508812Y-67612000D01*
X134931762Y-67527870D01*
X135411392Y-67207392D01*
X135731870Y-66727762D01*
X135844407Y-66162000D01*
X135731870Y-65596238D01*
X135471717Y-65206892D01*
X135595250Y-65083359D01*
X135816000Y-64550423D01*
X135816000Y-63973577D01*
X135595250Y-63440641D01*
X135187359Y-63032750D01*
X134654423Y-62812000D01*
X134077577Y-62812000D01*
X133544641Y-63032750D01*
X133136750Y-63440641D01*
X132916000Y-63973577D01*
X132916000Y-64550423D01*
X133136750Y-65083359D01*
X133260283Y-65206892D01*
X133000130Y-65596238D01*
X132915540Y-66021499D01*
X132610771Y-66021499D01*
X132528000Y-66005035D01*
X132445229Y-66021499D01*
X132445221Y-66021499D01*
X132200054Y-66070266D01*
X132080159Y-66150378D01*
X131992211Y-66209142D01*
X131992209Y-66209144D01*
X131922035Y-66256033D01*
X131875146Y-66326207D01*
X127519355Y-70682000D01*
X127269305Y-70682000D01*
X126828255Y-70864689D01*
X126490689Y-71202255D01*
X126308000Y-71643305D01*
X109946630Y-71643305D01*
X109867737Y-71568972D01*
X109405661Y-71377581D01*
X109171600Y-71507731D01*
X108963600Y-71507731D01*
X108729539Y-71377581D01*
X108267463Y-71568972D01*
X108004447Y-71816786D01*
X107989886Y-71743583D01*
X107846224Y-71528576D01*
X107631217Y-71384914D01*
X107377600Y-71334466D01*
X105677600Y-71334466D01*
X105423983Y-71384914D01*
X105208976Y-71528576D01*
X105065314Y-71743583D01*
X105014866Y-71997200D01*
X104357000Y-71997200D01*
X104357000Y-66548000D01*
X122473593Y-66548000D01*
X122586130Y-67113762D01*
X122906608Y-67593392D01*
X123386238Y-67913870D01*
X123809188Y-67998000D01*
X124094812Y-67998000D01*
X124517762Y-67913870D01*
X124907108Y-67653717D01*
X125030641Y-67777250D01*
X125563577Y-67998000D01*
X126140423Y-67998000D01*
X126673359Y-67777250D01*
X127081250Y-67369359D01*
X127302000Y-66836423D01*
X127302000Y-66259577D01*
X127081250Y-65726641D01*
X126673359Y-65318750D01*
X126140423Y-65098000D01*
X125563577Y-65098000D01*
X125030641Y-65318750D01*
X124907108Y-65442283D01*
X124517762Y-65182130D01*
X124094812Y-65098000D01*
X123809188Y-65098000D01*
X123386238Y-65182130D01*
X122906608Y-65502608D01*
X122586130Y-65982238D01*
X122473593Y-66548000D01*
X104357000Y-66548000D01*
X104357000Y-59465523D01*
X106550000Y-59465523D01*
X106550000Y-60022477D01*
X106763137Y-60537037D01*
X107156963Y-60930863D01*
X107671523Y-61144000D01*
X108228477Y-61144000D01*
X108743037Y-60930863D01*
X109136863Y-60537037D01*
X109350000Y-60022477D01*
X109350000Y-59465523D01*
X109136863Y-58950963D01*
X108743037Y-58557137D01*
X108228477Y-58344000D01*
X107671523Y-58344000D01*
X107156963Y-58557137D01*
X106763137Y-58950963D01*
X106550000Y-59465523D01*
X104357000Y-59465523D01*
X104357000Y-54585523D01*
X106550000Y-54585523D01*
X106550000Y-55142477D01*
X106763137Y-55657037D01*
X107156963Y-56050863D01*
X107671523Y-56264000D01*
X108228477Y-56264000D01*
X108743037Y-56050863D01*
X109136863Y-55657037D01*
X109350000Y-55142477D01*
X109350000Y-54639360D01*
X117114000Y-54639360D01*
X117114000Y-55136640D01*
X117304301Y-55596068D01*
X117346233Y-55638000D01*
X117304301Y-55679932D01*
X117114000Y-56139360D01*
X117114000Y-56636640D01*
X117304301Y-57096068D01*
X117655932Y-57447699D01*
X118115360Y-57638000D01*
X118612640Y-57638000D01*
X118870961Y-57531000D01*
X137141914Y-57531000D01*
X137258332Y-58116271D01*
X137585062Y-58605257D01*
X137567683Y-58608714D01*
X137352676Y-58752376D01*
X137209014Y-58967383D01*
X137158566Y-59221000D01*
X137158566Y-60921000D01*
X137209014Y-61174617D01*
X137352676Y-61389624D01*
X137567683Y-61533286D01*
X137821300Y-61583734D01*
X139521300Y-61583734D01*
X139774917Y-61533286D01*
X139989924Y-61389624D01*
X140133586Y-61174617D01*
X140184034Y-60921000D01*
X140184034Y-59221000D01*
X140133586Y-58967383D01*
X139989924Y-58752376D01*
X139774917Y-58608714D01*
X139757538Y-58605257D01*
X140084268Y-58116271D01*
X140200686Y-57531000D01*
X140084268Y-56945729D01*
X139752739Y-56449561D01*
X139256571Y-56118032D01*
X138819033Y-56031000D01*
X138523567Y-56031000D01*
X138086029Y-56118032D01*
X137589861Y-56449561D01*
X137258332Y-56945729D01*
X137141914Y-57531000D01*
X118870961Y-57531000D01*
X119072068Y-57447699D01*
X119423699Y-57096068D01*
X119614000Y-56636640D01*
X119614000Y-56139360D01*
X119423699Y-55679932D01*
X119381767Y-55638000D01*
X119423699Y-55596068D01*
X119614000Y-55136640D01*
X119614000Y-54639360D01*
X119423699Y-54179932D01*
X119072068Y-53828301D01*
X118612640Y-53638000D01*
X118115360Y-53638000D01*
X117655932Y-53828301D01*
X117304301Y-54179932D01*
X117114000Y-54639360D01*
X109350000Y-54639360D01*
X109350000Y-54585523D01*
X109136863Y-54070963D01*
X108743037Y-53677137D01*
X108228477Y-53464000D01*
X107671523Y-53464000D01*
X107156963Y-53677137D01*
X106763137Y-54070963D01*
X106550000Y-54585523D01*
X104357000Y-54585523D01*
X104357000Y-52055468D01*
X113966024Y-52055468D01*
X113966024Y-52592532D01*
X114171549Y-53088714D01*
X114551310Y-53468475D01*
X115047492Y-53674000D01*
X115584556Y-53674000D01*
X116080738Y-53468475D01*
X116460499Y-53088714D01*
X116666024Y-52592532D01*
X116666024Y-52055468D01*
X116460499Y-51559286D01*
X116425213Y-51524000D01*
X118679266Y-51524000D01*
X118679266Y-53124000D01*
X118729714Y-53377617D01*
X118873376Y-53592624D01*
X119088383Y-53736286D01*
X119342000Y-53786734D01*
X120942000Y-53786734D01*
X121195617Y-53736286D01*
X121410624Y-53592624D01*
X121554286Y-53377617D01*
X121604734Y-53124000D01*
X121604734Y-51524000D01*
X121554286Y-51270383D01*
X121410624Y-51055376D01*
X121195617Y-50911714D01*
X120988984Y-50870612D01*
X121000404Y-50829483D01*
X120142000Y-49971078D01*
X119283596Y-50829483D01*
X119295016Y-50870612D01*
X119088383Y-50911714D01*
X118873376Y-51055376D01*
X118729714Y-51270383D01*
X118679266Y-51524000D01*
X116425213Y-51524000D01*
X116220024Y-51318811D01*
X116220024Y-49578946D01*
X118675772Y-49578946D01*
X118693603Y-50158701D01*
X118881161Y-50611502D01*
X119136517Y-50682404D01*
X119994922Y-49824000D01*
X120289078Y-49824000D01*
X121147483Y-50682404D01*
X121402839Y-50611502D01*
X121608228Y-50069054D01*
X121603367Y-49911000D01*
X137154614Y-49911000D01*
X137271032Y-50496271D01*
X137602561Y-50992439D01*
X137884762Y-51181000D01*
X137602561Y-51369561D01*
X137271032Y-51865729D01*
X137154614Y-52451000D01*
X137271032Y-53036271D01*
X137602561Y-53532439D01*
X138098729Y-53863968D01*
X138536267Y-53951000D01*
X138831733Y-53951000D01*
X139269271Y-53863968D01*
X139765439Y-53532439D01*
X140096968Y-53036271D01*
X140213386Y-52451000D01*
X140096968Y-51865729D01*
X139765439Y-51369561D01*
X139483238Y-51181000D01*
X139765439Y-50992439D01*
X140096968Y-50496271D01*
X140213386Y-49911000D01*
X140096968Y-49325729D01*
X139765439Y-48829561D01*
X139476368Y-48636410D01*
X139558730Y-48599387D01*
X139962228Y-48171137D01*
X140153619Y-47709061D01*
X140023469Y-47475000D01*
X138788000Y-47475000D01*
X138788000Y-47495000D01*
X138580000Y-47495000D01*
X138580000Y-47475000D01*
X137344531Y-47475000D01*
X137214381Y-47709061D01*
X137405772Y-48171137D01*
X137809270Y-48599387D01*
X137891632Y-48636410D01*
X137602561Y-48829561D01*
X137271032Y-49325729D01*
X137154614Y-49911000D01*
X121603367Y-49911000D01*
X121590397Y-49489299D01*
X121402839Y-49036498D01*
X121147483Y-48965596D01*
X120289078Y-49824000D01*
X119994922Y-49824000D01*
X119136517Y-48965596D01*
X118881161Y-49036498D01*
X118675772Y-49578946D01*
X116220024Y-49578946D01*
X116220024Y-48818517D01*
X119283596Y-48818517D01*
X120142000Y-49676922D01*
X121000404Y-48818517D01*
X120929502Y-48563161D01*
X120387054Y-48357772D01*
X119807299Y-48375603D01*
X119354498Y-48563161D01*
X119283596Y-48818517D01*
X116220024Y-48818517D01*
X116220024Y-46767080D01*
X116333335Y-46653769D01*
X116516024Y-46212719D01*
X116516024Y-45735329D01*
X116333335Y-45294279D01*
X115995769Y-44956713D01*
X115554719Y-44774024D01*
X115077329Y-44774024D01*
X114636279Y-44956713D01*
X114298713Y-45294279D01*
X114116024Y-45735329D01*
X114116024Y-46212719D01*
X114298713Y-46653769D01*
X114412025Y-46767081D01*
X114412024Y-51318811D01*
X114171549Y-51559286D01*
X113966024Y-52055468D01*
X104357000Y-52055468D01*
X104357000Y-45099500D01*
X106061000Y-45099500D01*
X106061000Y-45811885D01*
X106161175Y-46053727D01*
X106346273Y-46238826D01*
X106588116Y-46339000D01*
X107300500Y-46339000D01*
X107465000Y-46174500D01*
X107465000Y-44935000D01*
X107673000Y-44935000D01*
X107673000Y-46174500D01*
X107837500Y-46339000D01*
X108549884Y-46339000D01*
X108791727Y-46238826D01*
X108976825Y-46053727D01*
X109077000Y-45811885D01*
X109077000Y-45099500D01*
X108912500Y-44935000D01*
X107673000Y-44935000D01*
X107465000Y-44935000D01*
X106225500Y-44935000D01*
X106061000Y-45099500D01*
X104357000Y-45099500D01*
X104357000Y-42291000D01*
X106039614Y-42291000D01*
X106156032Y-42876271D01*
X106483485Y-43366339D01*
X106346273Y-43423174D01*
X106161175Y-43608273D01*
X106061000Y-43850115D01*
X106061000Y-44562500D01*
X106225500Y-44727000D01*
X107465000Y-44727000D01*
X107465000Y-44707000D01*
X107673000Y-44707000D01*
X107673000Y-44727000D01*
X108912500Y-44727000D01*
X109077000Y-44562500D01*
X109077000Y-43981000D01*
X137171266Y-43981000D01*
X137171266Y-45681000D01*
X137221714Y-45934617D01*
X137365376Y-46149624D01*
X137580383Y-46293286D01*
X137653586Y-46307847D01*
X137405772Y-46570863D01*
X137214381Y-47032939D01*
X137344531Y-47267000D01*
X138580000Y-47267000D01*
X138580000Y-47247000D01*
X138788000Y-47247000D01*
X138788000Y-47267000D01*
X140023469Y-47267000D01*
X140153619Y-47032939D01*
X139962228Y-46570863D01*
X139714414Y-46307847D01*
X139787617Y-46293286D01*
X140002624Y-46149624D01*
X140146286Y-45934617D01*
X140196734Y-45681000D01*
X140196734Y-43981000D01*
X140146286Y-43727383D01*
X140002624Y-43512376D01*
X139787617Y-43368714D01*
X139534000Y-43318266D01*
X137834000Y-43318266D01*
X137580383Y-43368714D01*
X137365376Y-43512376D01*
X137221714Y-43727383D01*
X137171266Y-43981000D01*
X109077000Y-43981000D01*
X109077000Y-43850115D01*
X108976825Y-43608273D01*
X108791727Y-43423174D01*
X108654515Y-43366339D01*
X108981968Y-42876271D01*
X109098386Y-42291000D01*
X108981968Y-41705729D01*
X108650439Y-41209561D01*
X108154271Y-40878032D01*
X107716733Y-40791000D01*
X107421267Y-40791000D01*
X106983729Y-40878032D01*
X106487561Y-41209561D01*
X106156032Y-41705729D01*
X106039614Y-42291000D01*
X104357000Y-42291000D01*
X104357000Y-38570000D01*
X110043266Y-38570000D01*
X110043266Y-40170000D01*
X110093714Y-40423617D01*
X110237376Y-40638624D01*
X110452383Y-40782286D01*
X110706000Y-40832734D01*
X112306000Y-40832734D01*
X112559617Y-40782286D01*
X112761760Y-40647219D01*
X113260946Y-40836228D01*
X113840701Y-40818397D01*
X114293502Y-40630839D01*
X114364404Y-40375483D01*
X113506000Y-39517078D01*
X113491858Y-39531221D01*
X113344780Y-39384143D01*
X113358922Y-39370000D01*
X113653078Y-39370000D01*
X114511483Y-40228404D01*
X114766839Y-40157502D01*
X114972228Y-39615054D01*
X114954397Y-39035299D01*
X114766839Y-38582498D01*
X114511483Y-38511596D01*
X113653078Y-39370000D01*
X113358922Y-39370000D01*
X113344780Y-39355858D01*
X113491858Y-39208779D01*
X113506000Y-39222922D01*
X114364404Y-38364517D01*
X114293502Y-38109161D01*
X113751054Y-37903772D01*
X113171299Y-37921603D01*
X112760338Y-38091830D01*
X112559617Y-37957714D01*
X112306000Y-37907266D01*
X110706000Y-37907266D01*
X110452383Y-37957714D01*
X110237376Y-38101376D01*
X110093714Y-38316383D01*
X110043266Y-38570000D01*
X104357000Y-38570000D01*
X104357000Y-34798000D01*
X137154614Y-34798000D01*
X137271032Y-35383271D01*
X137602561Y-35879439D01*
X137884762Y-36068000D01*
X137602561Y-36256561D01*
X137271032Y-36752729D01*
X137154614Y-37338000D01*
X137271032Y-37923271D01*
X137602561Y-38419439D01*
X137884762Y-38608000D01*
X137602561Y-38796561D01*
X137271032Y-39292729D01*
X137154614Y-39878000D01*
X137271032Y-40463271D01*
X137602561Y-40959439D01*
X138098729Y-41290968D01*
X138536267Y-41378000D01*
X138831733Y-41378000D01*
X139269271Y-41290968D01*
X139765439Y-40959439D01*
X140096968Y-40463271D01*
X140213386Y-39878000D01*
X140096968Y-39292729D01*
X139765439Y-38796561D01*
X139483238Y-38608000D01*
X139765439Y-38419439D01*
X140096968Y-37923271D01*
X140213386Y-37338000D01*
X140096968Y-36752729D01*
X139765439Y-36256561D01*
X139483238Y-36068000D01*
X139765439Y-35879439D01*
X140096968Y-35383271D01*
X140213386Y-34798000D01*
X140096968Y-34212729D01*
X139770238Y-33723743D01*
X139787617Y-33720286D01*
X140002624Y-33576624D01*
X140146286Y-33361617D01*
X140196734Y-33108000D01*
X140196734Y-31408000D01*
X140146286Y-31154383D01*
X140002624Y-30939376D01*
X139787617Y-30795714D01*
X139534000Y-30745266D01*
X137834000Y-30745266D01*
X137580383Y-30795714D01*
X137365376Y-30939376D01*
X137221714Y-31154383D01*
X137171266Y-31408000D01*
X137171266Y-33108000D01*
X137221714Y-33361617D01*
X137365376Y-33576624D01*
X137580383Y-33720286D01*
X137597762Y-33723743D01*
X137271032Y-34212729D01*
X137154614Y-34798000D01*
X104357000Y-34798000D01*
X104357000Y-30300736D01*
X116723400Y-30300736D01*
X116723400Y-30862464D01*
X116938364Y-31381434D01*
X117335566Y-31778636D01*
X117854536Y-31993600D01*
X118416264Y-31993600D01*
X118935234Y-31778636D01*
X119332436Y-31381434D01*
X119547400Y-30862464D01*
X119547400Y-30300736D01*
X119332436Y-29781766D01*
X118935234Y-29384564D01*
X118416264Y-29169600D01*
X117854536Y-29169600D01*
X117335566Y-29384564D01*
X116938364Y-29781766D01*
X116723400Y-30300736D01*
X104357000Y-30300736D01*
X104357000Y-28152182D01*
X141004785Y-27907863D01*
X140861219Y-75284676D01*
M02*
