M48
;DRILL file {KiCad 5.0.1-33cea8e~68~ubuntu18.04.1} date sex 02 nov 2018 12:55:08 -03
;FORMAT={-:-/ absolute / inch / decimal}
FMAT,2
INCH,TZ
T1C0.0276
T2C0.0315
T3C0.0394
%
G90
G05
M72
T1
X5.29Y-2.53
X5.29Y-2.6048
T2
X4.24Y-1.24
X4.5Y-2.73
X4.54Y-1.81
X4.54Y-2.06
X4.63Y-2.36
X4.88Y-2.89
X5.02Y-2.83
X5.255Y-2.805
X5.35Y-2.46
X5.36Y-2.07
X5.459Y-1.667
X4.66Y-2.1609
X4.66Y-2.22
X4.73Y-1.9616
X4.73Y-2.06
X4.651Y-1.204
X4.88Y-2.62
X4.9548Y-2.62
X4.39Y-1.55
X4.4687Y-1.55
X4.25Y-2.16
X4.25Y-2.3521
T3
X4.7099Y-3.0268
X4.9461Y-3.0268
X5.46Y-1.765
X5.46Y-1.865
X5.46Y-1.965
X5.46Y-2.065
X4.194Y-2.868
X4.294Y-2.868
X4.235Y-1.665
X4.235Y-1.765
X5.46Y-1.27
X5.46Y-1.37
X5.46Y-1.47
X5.46Y-1.57
X5.4595Y-2.265
X5.4595Y-2.365
T0
M30
